<svg width="502" height="158" viewBox="0 0 502 158" fill="none" xmlns="http://www.w3.org/2000/svg">
<path d="M481.615 137.859C479.422 136.196 478.185 133.917 478.185 131.537V8.06863C478.185 3.61179 473.534 0.000512456 467.794 0H10.3917C4.65234 0 0.00132 3.61077 0 8.06863V149.632C0.00132 154.088 4.65168 157.699 10.3917 157.7H497.346C497.962 157.701 498.557 157.6 499.085 157.417C499.879 157.143 500.51 156.693 500.937 156.165C501.364 155.636 501.599 155.024 501.599 154.386C501.607 153.564 501.178 152.688 500.314 152.041L481.615 137.859ZM497.842 154.78C497.781 154.831 497.715 154.868 497.639 154.894C497.563 154.919 497.476 154.938 497.346 154.938H10.3917C8.49882 154.937 6.80064 154.346 5.55852 153.383C4.31904 152.418 3.55806 151.1 3.55674 149.631V8.06863C3.55806 6.59788 4.31904 5.28035 5.55852 4.3154C6.80064 3.353 8.49882 2.76214 10.3917 2.76112H467.794C469.686 2.76214 471.384 3.35352 472.627 4.3154C473.866 5.28035 474.627 6.59839 474.628 8.06863V131.537C474.628 134.661 476.251 137.652 479.128 139.835L497.83 154.017C498.002 154.155 498.036 154.251 498.043 154.386C498.045 154.52 497.965 154.681 497.842 154.78Z" fill="#333333"/>
</svg>
