<svg width="30" height="30" viewBox="0 0 30 30" fill="none" xmlns="http://www.w3.org/2000/svg">
<path d="M5.76875 23.75C5.19375 23.75 4.71375 23.5575 4.32875 23.1725C3.94375 22.7875 3.75083 22.3071 3.75 21.7313V8.26875C3.75 7.69375 3.94292 7.21375 4.32875 6.82875C4.71458 6.44375 5.19458 6.25083 5.76875 6.25H24.2313C24.8062 6.25 25.2863 6.44292 25.6713 6.82875C26.0563 7.21458 26.2492 7.69458 26.25 8.26875V21.7313C26.25 22.3062 26.0575 22.7863 25.6725 23.1713C25.2875 23.5563 24.8071 23.7492 24.2313 23.75H5.76875ZM15 15.1437L5 8.60625V21.7313C5 21.9554 5.07208 22.1396 5.21625 22.2837C5.36042 22.4279 5.54458 22.5 5.76875 22.5H24.2313C24.4554 22.5 24.6396 22.4279 24.7837 22.2837C24.9279 22.1396 25 21.9554 25 21.7313V8.60625L15 15.1437ZM15 13.75L24.615 7.5H5.385L15 13.75ZM5 8.60625V7.5V21.7313C5 21.9554 5.07208 22.1396 5.21625 22.2837C5.36042 22.4279 5.54458 22.5 5.76875 22.5H5V8.60625Z" fill="#FFA952"/>
</svg>
