<svg width="30" height="30" viewBox="0 0 30 30" fill="none" xmlns="http://www.w3.org/2000/svg">
<g clip-path="url(#clip0_27_851)">
<path d="M15 0.999966L15.448 0.105966C15.3089 0.0362835 15.1555 0 15 0C14.8445 0 14.6911 0.0362835 14.552 0.105966L15 0.999966ZM9 17V16H8V17H9ZM17 17H18V16H17V17ZM0 30H30V28H0V30ZM14.552 0.105966L2.552 6.10597L3.448 7.89397L15.448 1.89397L14.552 0.105966ZM0 12H30V9.99997H0V12ZM27.448 6.10597L15.448 0.105966L14.552 1.89397L26.552 7.89397L27.448 6.10597ZM2 11V29H4V11H2ZM26 11V29H28V11H26ZM10 29V17H8V29H10ZM9 18H17V16H9V18ZM16 17V29H18V17H16Z" fill="#FFA952"/>
</g>
<defs>
<clipPath id="clip0_27_851">
<rect width="30" height="30" fill="white"/>
</clipPath>
</defs>
</svg>
