<svg width="30" height="30" viewBox="0 0 30 30" fill="none" xmlns="http://www.w3.org/2000/svg">
<path d="M28.5905 13.6907L24.8438 10.3603V5.2367L20.5446 0.9375H8.90625V8.4375H4.6875C4.31467 8.43793 3.95724 8.58623 3.69361 8.84986C3.42998 9.11349 3.28168 9.47092 3.28125 9.84375V27.6562C3.28168 28.0291 3.42998 28.3865 3.69361 28.6501C3.95724 28.9138 4.31467 29.0621 4.6875 29.0625H29.0625V14.7418C29.0624 14.5432 29.0203 14.3469 28.939 14.1657C28.8576 13.9846 28.7388 13.8227 28.5905 13.6907ZM8.90625 27.1875H5.15625V10.3125H8.90625V27.1875ZM19.2188 2.8125H19.7679L22.9688 6.0133V6.5625H19.2188V2.8125ZM10.7812 2.8125H17.3438V8.4375H22.9688V12.6562H10.7812V2.8125ZM27.1875 27.1875H10.7812V14.5312H24.8438V12.8689L27.1875 14.9523V27.1875Z" fill="#FFA952"/>
<path d="M13.5938 20.1562H15.4688V22.0312H13.5938V20.1562ZM17.3438 20.1562H19.2188V22.0312H17.3438V20.1562ZM13.5938 23.9062H15.4688V25.7812H13.5938V23.9062ZM17.3438 23.9062H19.2188V25.7812H17.3438V23.9062ZM21.0938 20.1562H22.9688V22.0312H21.0938V20.1562ZM21.0938 23.9062H22.9688V25.7812H21.0938V23.9062ZM13.5938 16.4062H22.9688V18.2812H13.5938V16.4062Z" fill="#FFA952"/>
</svg>
