<svg width="120" height="120" viewBox="0 0 120 120" fill="none" xmlns="http://www.w3.org/2000/svg">
<path d="M90.65 60L96.95 53.7C99.15 51.5 101.95 50.3 105 50V45L75 15H25C19.45 15 15 19.45 15 25V95C15 97.6522 16.0536 100.196 17.9289 102.071C19.8043 103.946 22.3478 105 25 105H55V95.65L55.65 95H25V25H60V60H90.65ZM70 22.5L97.5 50H70V22.5ZM95.65 69.15L105.85 79.35L75.2 110H65V99.8L95.65 69.15ZM114.25 70.95L109.35 75.85L99.15 65.65L104.05 60.75C105 59.75 106.65 59.75 107.65 60.75L114.25 67.35C115.25 68.35 115.25 70 114.25 70.95Z" fill="#333333" fill-opacity="0.7"/>
</svg>
