<svg width="108" height="108" viewBox="0 0 108 108" fill="none" xmlns="http://www.w3.org/2000/svg">
<mask id="mask0_57_92" style="mask-type:alpha" maskUnits="userSpaceOnUse" x="0" y="0" width="108" height="108">
<g clip-path="url(#clip0_57_92)">
<path d="M10.125 0C7.43968 0 4.86435 1.06674 2.96554 2.96554C1.06674 4.86435 0 7.43968 0 10.125L0 57.375C0 60.0603 1.06674 62.6357 2.96554 64.5345C4.86435 66.4333 7.43968 67.5 10.125 67.5H40.5V74.25H6.75C4.95979 74.25 3.2429 74.9612 1.97703 76.227C0.711159 77.4929 0 79.2098 0 81L0 101.25C0 103.04 0.711159 104.757 1.97703 106.023C3.2429 107.289 4.95979 108 6.75 108H101.25C103.04 108 104.757 107.289 106.023 106.023C107.289 104.757 108 103.04 108 101.25V81C108 79.2098 107.289 77.4929 106.023 76.227C104.757 74.9612 103.04 74.25 101.25 74.25H67.5V67.5H97.875C100.56 67.5 103.136 66.4333 105.034 64.5345C106.933 62.6357 108 60.0603 108 57.375V10.125C108 7.43968 106.933 4.86435 105.034 2.96554C103.136 1.06674 100.56 0 97.875 0L10.125 0ZM10.125 6.75H97.875C98.7701 6.75 99.6286 7.10558 100.261 7.73851C100.894 8.37145 101.25 9.22989 101.25 10.125V57.375C101.25 58.2701 100.894 59.1286 100.261 59.7615C99.6286 60.3944 98.7701 60.75 97.875 60.75H10.125C9.22989 60.75 8.37145 60.3944 7.73851 59.7615C7.10558 59.1286 6.75 58.2701 6.75 57.375V10.125C6.75 9.22989 7.10558 8.37145 7.73851 7.73851C8.37145 7.10558 9.22989 6.75 10.125 6.75ZM81 84.375C81 83.4799 81.3556 82.6214 81.9885 81.9885C82.6214 81.3556 83.4799 81 84.375 81C85.2701 81 86.1286 81.3556 86.7615 81.9885C87.3944 82.6214 87.75 83.4799 87.75 84.375C87.75 85.2701 87.3944 86.1286 86.7615 86.7615C86.1286 87.3944 85.2701 87.75 84.375 87.75C83.4799 87.75 82.6214 87.3944 81.9885 86.7615C81.3556 86.1286 81 85.2701 81 84.375ZM94.5 84.375C94.5 83.4799 94.8556 82.6214 95.4885 81.9885C96.1214 81.3556 96.9799 81 97.875 81C98.7701 81 99.6286 81.3556 100.261 81.9885C100.894 82.6214 101.25 83.4799 101.25 84.375C101.25 85.2701 100.894 86.1286 100.261 86.7615C99.6286 87.3944 98.7701 87.75 97.875 87.75C96.9799 87.75 96.1214 87.3944 95.4885 86.7615C94.8556 86.1286 94.5 85.2701 94.5 84.375ZM10.125 81H43.875C44.7701 81 45.6285 81.3556 46.2615 81.9885C46.8944 82.6214 47.25 83.4799 47.25 84.375C47.25 85.2701 46.8944 86.1286 46.2615 86.7615C45.6285 87.3944 44.7701 87.75 43.875 87.75H10.125C9.22989 87.75 8.37145 87.3944 7.73851 86.7615C7.10558 86.1286 6.75 85.2701 6.75 84.375C6.75 83.4799 7.10558 82.6214 7.73851 81.9885C8.37145 81.3556 9.22989 81 10.125 81ZM6.75 96.1875C6.75 95.7399 6.92779 95.3107 7.24426 94.9943C7.56073 94.6778 7.98995 94.5 8.4375 94.5H45.5625C46.0101 94.5 46.4393 94.6778 46.7557 94.9943C47.0722 95.3107 47.25 95.7399 47.25 96.1875C47.25 96.6351 47.0722 97.0643 46.7557 97.3807C46.4393 97.6972 46.0101 97.875 45.5625 97.875H8.4375C7.98995 97.875 7.56073 97.6972 7.24426 97.3807C6.92779 97.0643 6.75 96.6351 6.75 96.1875Z" fill="#FFA952"/>
</g>
</mask>
<g mask="url(#mask0_57_92)">
<rect x="-4" y="-7" width="134" height="131" fill="#333333" fill-opacity="0.7"/>
</g>
<defs>
<clipPath id="clip0_57_92">
<rect width="108" height="108" fill="white"/>
</clipPath>
</defs>
</svg>
