<svg width="30" height="30" viewBox="0 0 30 30" fill="none" xmlns="http://www.w3.org/2000/svg">
<g clip-path="url(#clip0_27_854)">
<path d="M6.85134 2.49006C6.74065 2.34768 6.60093 2.23048 6.44147 2.14624C6.282 2.062 6.10644 2.01265 5.92644 2.00148C5.74643 1.99031 5.56612 2.01756 5.39746 2.08144C5.2288 2.14531 5.07566 2.24434 4.94821 2.37194L3.00946 4.31257C2.10384 5.22007 1.77009 6.50444 2.16571 7.63132C3.80958 12.2946 6.48038 16.529 9.98071 20.0213C13.4731 23.5217 17.7074 26.1924 22.3707 27.8363C23.4976 28.2319 24.782 27.8982 25.6895 26.9926L27.6282 25.0538C27.7558 24.9264 27.8548 24.7732 27.9187 24.6046C27.9826 24.4359 28.0098 24.2556 27.9987 24.0756C27.9875 23.8956 27.9382 23.72 27.8539 23.5606C27.7697 23.4011 27.6525 23.2614 27.5101 23.1507L23.1845 19.7869C23.0322 19.6692 22.8553 19.5875 22.6669 19.5478C22.4786 19.5082 22.2837 19.5118 22.097 19.5582L17.9907 20.5838C17.4426 20.7199 16.8686 20.7121 16.3243 20.5614C15.78 20.4106 15.2839 20.1219 14.8838 19.7232L10.2788 15.1163C9.8798 14.7165 9.59075 14.2204 9.43964 13.6761C9.28854 13.1318 9.28051 12.5577 9.41634 12.0094L10.4438 7.90319C10.4903 7.71641 10.4938 7.52155 10.4542 7.33321C10.4146 7.14487 10.3328 6.96794 10.2151 6.81569L6.85134 2.49006ZM3.53259 0.95819C3.8607 0.62997 4.25489 0.375309 4.68898 0.211117C5.12306 0.046925 5.58711 -0.0230413 6.0503 0.00586429C6.5135 0.0347698 6.96525 0.161886 7.37555 0.378771C7.78586 0.595657 8.14532 0.897349 8.43009 1.26382L11.7938 5.58757C12.4107 6.38069 12.6282 7.41382 12.3845 8.38882L11.3588 12.4951C11.3062 12.7078 11.3092 12.9304 11.3677 13.1416C11.4262 13.3528 11.538 13.5454 11.6926 13.7007L16.2995 18.3076C16.455 18.4624 16.6479 18.5745 16.8594 18.633C17.0709 18.6914 17.294 18.6943 17.507 18.6413L21.6113 17.6157C22.0925 17.4961 22.5946 17.4871 23.0798 17.5894C23.565 17.6917 24.0206 17.9026 24.4126 18.2063L28.7363 21.5701C30.2907 22.7794 30.4332 25.0763 29.042 26.4657L27.1032 28.4044C25.7157 29.7919 23.642 30.4013 21.7088 29.7207C16.7601 27.9818 12.2674 25.149 8.56509 21.4332C4.84954 17.7315 2.01675 13.2394 0.277589 8.29132C-0.40116 6.36007 0.208215 4.28444 1.59571 2.89694L3.53259 0.95819Z" fill="#FFA952"/>
</g>
<defs>
<clipPath id="clip0_27_854">
<rect width="30" height="30" fill="white"/>
</clipPath>
</defs>
</svg>
