<svg width="301" height="122" viewBox="0 0 301 122" fill="none" xmlns="http://www.w3.org/2000/svg">
<g clip-path="url(#clip0_59_200)">
<path d="M47.3781 16.8944C46.7328 18.4812 45.8287 20.3039 45.0056 21.8586C45.5382 22.1319 49.5519 23.7565 50.6493 24.0352C51.3163 22.3411 52.0104 20.7246 52.5411 19.0559C51.6634 18.7306 49.1766 17.5734 47.3781 16.8944Z" fill="white"/>
<path d="M139.74 17.9667C138.298 19.3389 136.533 20.9685 135.371 22.1801C136.598 23.3381 137.868 24.5497 139.002 25.5737C140.299 24.2494 141.891 22.8128 143.183 21.3761C142.624 20.7898 140.805 19.0293 139.74 17.9667Z" fill="white"/>
<path d="M132.531 5.85087C130.68 4.15676 128.7 2.37697 126.914 0.918701C125.106 2.75215 123.514 4.62844 121.9 6.45108C123.002 7.5002 125.687 9.95741 127.463 11.3404C128.818 9.89295 131.498 7.07291 132.531 5.85087Z" fill="white"/>
<path d="M46.4819 16.6481C45.818 18.2693 45.022 19.8414 44.2031 21.3912C44.082 21.604 44.0491 21.8556 44.1114 22.0923C44.1737 22.329 44.3263 22.5321 44.5366 22.6584C45.4314 23.11 46.3959 23.4543 47.3256 23.8217C48.3274 24.2518 49.3543 24.6213 50.4007 24.9284C50.6382 24.9866 50.889 24.952 51.1016 24.8317C51.3143 24.7114 51.4726 24.5145 51.5442 24.2815C52.1961 22.6294 52.8933 20.9936 53.436 19.3022C53.4961 19.0654 53.4621 18.8147 53.3411 18.6023C53.2202 18.3899 53.0216 18.2323 52.7868 18.1624C52.124 17.9138 51.476 17.6127 50.6676 17.2626C49.6605 16.8261 48.6507 16.3914 47.6238 16.0012C47.3864 15.9384 47.1337 15.971 46.9201 16.092C46.7066 16.213 46.5492 16.4127 46.4819 16.6481C46.4219 16.8848 46.4559 17.1355 46.5769 17.3477C46.6979 17.56 46.8964 17.7176 47.1311 17.7876C48.8742 18.4495 50.5421 19.2929 52.2941 19.9491L51.6449 18.8097C51.1026 20.5015 50.4054 22.1373 49.7531 23.7889L50.8965 23.1416C49.8785 22.8438 48.8794 22.4852 47.9046 22.0678C47.3624 21.8553 46.8232 21.6378 46.2871 21.4155L46.0934 21.3352C46.1848 21.3738 46.2243 21.3912 46.1093 21.3418C46.0159 21.3032 45.923 21.2622 45.83 21.2217C45.7103 21.1696 45.5906 21.1175 45.474 21.0588L45.8075 22.326C46.7023 20.6327 47.5483 18.9131 48.2738 17.1407C48.3377 16.9037 48.3053 16.6512 48.1837 16.4379C48.0621 16.2246 47.8611 16.0675 47.6242 16.0008C47.3868 15.9421 47.1359 15.9765 46.9232 16.097C46.7106 16.2175 46.5526 16.4148 46.4819 16.6481Z" fill="#211715"/>
<path d="M139.082 17.3112C137.617 18.705 136.117 20.0679 134.714 21.525C134.543 21.7005 134.447 21.9354 134.447 22.1801C134.447 22.4247 134.543 22.6596 134.714 22.8351C135.918 23.9726 137.115 25.1178 138.345 26.2287C138.522 26.3985 138.757 26.4933 139.003 26.4933C139.248 26.4933 139.483 26.3985 139.66 26.2287C141.044 24.8198 142.515 23.497 143.84 22.0311C144.01 21.8548 144.104 21.6201 144.104 21.376C144.104 21.1319 144.01 20.8973 143.84 20.721C142.723 19.5549 141.541 18.4502 140.397 17.3112C139.549 16.4678 138.234 17.7775 139.082 18.6235C140.227 19.7622 141.409 20.8669 142.525 22.033V20.721C141.201 22.1878 139.729 23.5098 138.345 24.9186H139.66C138.431 23.8078 137.233 22.6625 136.028 21.525V22.8351C137.431 21.378 138.934 20.0174 140.397 18.6216C141.266 17.7964 139.949 16.4879 139.082 17.3112Z" fill="#211715"/>
<path d="M133.188 5.19575C131.35 3.51245 129.5 1.84227 127.571 0.263576C127.394 0.0948843 127.159 0.000732422 126.914 0.000732422C126.669 0.000732422 126.434 0.0948843 126.257 0.263576C124.511 2.03913 122.892 3.93047 121.242 5.79596C121.072 5.97181 120.977 6.20663 120.977 6.45098C120.977 6.69534 121.072 6.93016 121.242 7.10601C123.029 8.80436 124.864 10.4757 126.805 11.9953C126.982 12.1641 127.218 12.2584 127.463 12.2584C127.708 12.2584 127.943 12.1641 128.12 11.9953C129.821 10.1812 131.578 8.40254 133.188 6.50579C133.356 6.32899 133.45 6.09453 133.45 5.85077C133.45 5.60701 133.356 5.37254 133.188 5.19575C133.013 5.02381 132.777 4.92744 132.531 4.92744C132.285 4.92744 132.049 5.02381 131.873 5.19575C130.263 7.0925 128.506 8.86998 126.805 10.6853H128.12C126.178 9.16565 124.343 7.49315 122.557 5.79596V7.10601C124.206 5.24168 125.826 3.35033 127.571 1.57362H126.257C128.185 3.15232 130.035 4.82404 131.873 6.50579C132.753 7.31097 134.071 6.00401 133.188 5.19575Z" fill="#211715"/>
<path d="M8.21184 40.3073C11.3699 42.2515 13.1796 43.3604 16.4686 44.1328C16.9008 44.2343 19.6754 46.7189 20.0299 47.1331C20.0299 47.1331 20.1906 47.3199 20.4463 47.6198C22.8927 44.6354 25.5414 41.5899 28.2564 38.7224C27.8465 38.2782 27.4433 37.8279 27.0467 37.3714C26.817 35.8927 26.3068 33.9323 25.9621 32.4848C25.4973 30.5371 25.0177 28.5558 23.992 26.8347C23.2359 25.5659 22.144 24.3439 20.6779 24.5519C20.4107 24.6175 20.1709 24.7649 19.9923 24.9734C19.8538 25.1424 19.7558 25.3404 19.7055 25.5527C19.6553 25.7649 19.6541 25.9858 19.7022 26.1986C20.0206 27.6113 20.2398 28.3451 20.59 29.6304L19.3504 28.4829C17.3877 26.6687 13.3783 23.3581 11.4156 21.5428C10.9419 21.0927 10.3959 20.7248 9.80036 20.4543C9.49357 20.297 9.15405 20.2135 8.80903 20.2105C8.46401 20.2076 8.1231 20.2852 7.81365 20.4373C7.49831 20.6445 7.24891 20.9371 7.09479 21.2807C6.94067 21.6243 6.88824 22.0046 6.94366 22.3769C7.0517 22.8323 7.2189 23.2716 7.44102 23.6839L7.62578 23.9772C7.23172 23.6244 6.84437 23.2755 6.46374 22.9304C5.70918 22.2488 4.96121 21.757 3.99013 21.9249C3.55378 22.0146 3.16448 22.258 2.89358 22.6105C2.62268 22.9629 2.48831 23.4009 2.5151 23.844C2.58444 24.7102 3.11665 25.4058 3.74261 26.011C4.05636 26.3144 4.39568 26.6347 4.75437 26.9679C4.26134 26.5433 3.69193 26.2158 3.07637 26.0029C2.69968 25.9072 2.30201 25.9357 1.94294 26.0841C1.58387 26.2325 1.28272 26.4929 1.08462 26.8262C0.952469 27.1445 0.896748 27.4892 0.921899 27.8328C0.94705 28.1763 1.05238 28.5093 1.22949 28.8052C1.58618 29.4134 2.02836 29.9676 2.5426 30.451C3.23363 31.1122 4.11369 31.9008 5.06812 32.7164C4.47019 32.3936 3.80977 32.2024 3.13137 32.1555C2.27533 32.122 1.72142 32.5415 1.56222 33.0337C1.45017 33.3665 1.42063 33.7213 1.47615 34.068C1.53166 34.4146 1.67057 34.7427 1.88101 35.0242C2.51624 35.8387 3.23606 36.5841 4.02847 37.2479C5.34649 38.3676 6.74465 39.3901 8.21184 40.3073Z" fill="white"/>
<path d="M21.6749 32.3887C21.6938 31.559 21.668 30.7288 21.5974 29.9018C21.4376 29.1153 21.2363 28.3377 20.9943 27.5724C20.891 27.1787 20.7931 26.7838 20.7007 26.3878C20.6302 26.0882 20.5004 25.7802 20.7452 25.5282C20.8529 25.4174 20.8304 25.4679 20.8897 25.4595C21.0287 25.4443 21.1692 25.4551 21.3042 25.4915C21.6015 25.5704 21.8751 25.7199 22.1017 25.9273C23.3997 27.0466 24.0323 28.8878 24.4905 30.4796C24.9941 32.2313 25.4039 34.0249 25.7986 35.804C25.9059 36.2884 26.0074 36.774 26.093 37.263C26.1176 37.5406 26.2209 37.8055 26.3908 38.0269C26.5868 38.2658 26.7995 38.4935 27.0059 38.7217C27.792 39.5991 28.6027 40.4535 29.4381 41.2846C30.2841 42.1299 31.5991 40.8214 30.7528 39.9746C29.7 38.9226 28.6842 37.8361 27.7055 36.7149L27.9445 37.1237C27.6733 35.4191 27.2209 33.747 26.8189 32.0699C26.3808 30.2434 25.9067 28.403 25.0065 26.7386C24.2391 25.3201 23.072 23.8356 21.3588 23.6291C20.9377 23.5596 20.5055 23.6115 20.113 23.7784C19.7205 23.9454 19.3841 24.2206 19.1432 24.5717C18.5621 25.4405 18.7721 26.3349 19.001 27.2771C19.2113 28.1413 19.4577 28.9955 19.6882 29.8543C19.9093 30.6788 19.7803 31.5426 19.816 32.3868C19.8659 33.5745 21.7256 33.5811 21.6753 32.3868L21.6749 32.3887Z" fill="#211715"/>
<path d="M8.68207 39.5075C6.83098 38.3394 5.09902 36.9936 3.51096 35.4893C3.16275 35.1741 2.8568 34.8154 2.60069 34.4221C2.49874 34.2518 2.43349 34.0623 2.40908 33.8655C2.38467 33.6687 2.40165 33.469 2.45893 33.2792C2.43181 33.4309 2.51703 33.2309 2.426 33.3208C2.44769 33.2992 2.6282 33.1394 2.51393 33.2224C2.61617 33.141 2.74118 33.093 2.87184 33.085C3.40251 33.0631 3.92996 33.1771 4.4038 33.4162C4.64132 33.4799 4.89445 33.4478 5.10844 33.327C5.32242 33.2061 5.48007 33.0062 5.54726 32.7704C5.60665 32.5338 5.57236 32.2834 5.45149 32.0712C5.33062 31.8591 5.13244 31.7014 4.89806 31.631C3.70077 31.1423 2.07041 30.9439 1.11134 32.0123C0.106556 33.1317 0.514047 34.7888 1.35033 35.8614C2.23635 36.9389 3.24976 37.9057 4.36855 38.7409C5.45313 39.5878 6.59852 40.3462 7.74352 41.109C7.84895 41.1704 7.96547 41.2105 8.08646 41.227C8.20744 41.2435 8.3305 41.2362 8.44862 41.2053C8.56674 41.1744 8.67761 41.1207 8.77489 41.0471C8.87216 40.9736 8.95395 40.8817 9.01558 40.7766C9.0772 40.6716 9.11746 40.5554 9.13405 40.4349C9.15064 40.3143 9.14324 40.1917 9.11227 40.074C9.08131 39.9563 9.02737 39.8458 8.95356 39.7489C8.87974 39.6519 8.78749 39.5704 8.68207 39.509V39.5075Z" fill="#211715"/>
<path d="M4.79587 25.8489C3.72098 25.0542 2.3273 24.6975 1.13155 25.463C-0.231143 26.3341 -0.262906 28.1263 0.506369 29.4109C1.18462 30.5426 2.19637 31.4211 3.17133 32.2911C4.17534 33.1869 5.20155 34.0577 6.24998 34.9035C7.40427 35.8383 8.57872 36.7528 9.79538 37.6054C10.0088 37.7272 10.2617 37.7607 10.4996 37.6985C10.7375 37.6363 10.9414 37.4836 11.0674 37.2731C11.1867 37.0597 11.2186 36.8087 11.1564 36.5725C11.0943 36.3362 10.9429 36.1331 10.7339 36.0055C8.49749 34.4129 6.35885 32.6881 4.3295 30.8406C3.86894 30.4272 3.39986 30.0142 2.97107 29.5695C2.52097 29.1063 1.93878 28.4833 1.85047 27.814C1.82172 27.7113 1.81579 27.6036 1.8331 27.4984C1.8504 27.3932 1.89053 27.293 1.95067 27.2048C2.01081 27.1166 2.08953 27.0425 2.18133 26.9878C2.27314 26.933 2.37582 26.8988 2.48223 26.8876C2.94705 26.8047 3.46842 27.1632 3.85732 27.4508C4.07063 27.5731 4.3237 27.6069 4.56176 27.5447C4.79983 27.4825 5.00374 27.3294 5.12938 27.1185C5.24816 26.905 5.27978 26.6541 5.21766 26.418C5.15554 26.1819 5.00447 25.9788 4.79587 25.8509V25.8489Z" fill="#211715"/>
<path d="M14.9598 29.2112C13.2242 27.7079 11.4986 26.1924 9.7829 24.6647C8.93538 23.9099 8.09018 23.1524 7.24731 22.392C6.47261 21.6949 5.64872 21.0684 4.57461 20.9758C4.07209 20.9368 3.56839 21.0347 3.11744 21.2591C2.66649 21.4835 2.28528 21.8258 2.01462 22.2495C1.7508 22.6886 1.60539 23.1883 1.59249 23.6999C1.5796 24.2115 1.69966 24.7178 1.94102 25.1695C2.3489 26.0303 3.0899 26.6822 3.77318 27.3234C4.4779 27.9842 5.19243 28.6343 5.91677 29.2738C7.60174 30.7688 9.32027 32.2257 11.0724 33.6443C11.2502 33.8114 11.4853 33.9045 11.7297 33.9045C11.9741 33.9045 12.2093 33.8114 12.387 33.6443C12.5603 33.4696 12.6574 33.2338 12.6574 32.9881C12.6574 32.7425 12.5603 32.5067 12.387 32.332C9.70698 30.1681 7.0761 27.9205 4.58855 25.5385C4.09236 25.0634 3.49313 24.5076 3.44045 23.7773C3.43401 23.6471 3.45553 23.5171 3.50355 23.3959C3.55158 23.2746 3.62501 23.165 3.71894 23.0743C3.81288 22.9837 3.92515 22.914 4.04826 22.87C4.17137 22.826 4.30248 22.8087 4.43284 22.8193C5.1688 22.8756 5.74672 23.5337 6.25918 23.9954C6.99282 24.6575 7.72917 25.318 8.46824 25.977C10.1824 27.5027 11.9079 29.0175 13.6448 30.5213C14.5446 31.2998 15.865 29.9948 14.9617 29.2112H14.9598Z" fill="#211715"/>
<path d="M20.0061 27.8298C18.1367 26.1052 16.1713 24.484 14.2485 22.8193C13.3069 22.004 12.4117 21.0997 11.4181 20.3489C10.1972 19.4264 8.39915 18.7737 7.05621 19.8471C6.74054 20.1069 6.48228 20.4289 6.29768 20.7931C6.11308 21.1572 6.00616 21.5554 5.98364 21.9627C6.00037 22.7378 6.22593 23.4941 6.63671 24.1525C7.23594 25.1842 8.8446 24.2524 8.24189 23.2172C7.96803 22.7455 7.70812 22.1534 7.93782 21.6509C8.18378 21.1136 8.72801 21.0495 9.2548 21.2325C10.4676 21.6547 11.4278 22.815 12.3737 23.641C14.4759 25.4752 16.64 27.2458 18.6914 29.1383C19.5687 29.9489 20.8865 28.6404 20.0061 27.8282V27.8298Z" fill="#211715"/>
<path d="M15.0314 29.1495C12.7898 31.2917 11.0669 33.8925 9.37612 36.4682C9.2644 36.6794 9.23877 36.9253 9.30456 37.1548C9.37036 37.3843 9.52251 37.5796 9.7293 37.7001C9.93608 37.8205 10.1815 37.8568 10.4145 37.8013C10.6475 37.7459 10.85 37.6029 10.9797 37.4023C12.5888 34.954 14.2157 32.4972 16.3461 30.4595C17.211 29.6324 15.8952 28.3235 15.0291 29.1495H15.0314Z" fill="#211715"/>
<path d="M176.994 40.3073C173.836 42.2515 172.027 43.3604 168.738 44.1328C168.305 44.2343 165.531 46.7189 165.176 47.1331C165.176 47.1331 165.016 47.3199 164.76 47.6198C162.313 44.6354 159.664 41.5899 156.949 38.7224C157.36 38.2782 157.763 37.8279 158.159 37.3714C158.389 35.8927 158.899 33.9323 159.244 32.4848C159.709 30.5371 160.188 28.5558 161.213 26.8347C161.97 25.5659 163.061 24.3439 164.528 24.5519C164.795 24.6173 165.035 24.7648 165.213 24.9734C165.352 25.1424 165.45 25.3404 165.5 25.5527C165.55 25.7649 165.551 25.9858 165.503 26.1986C165.185 27.6113 164.966 28.3451 164.615 29.6304L165.855 28.4829C167.818 26.6687 171.828 23.3581 173.79 21.5428C174.264 21.0926 174.81 20.7247 175.405 20.4543C175.712 20.297 176.052 20.2135 176.397 20.2105C176.742 20.2076 177.083 20.2852 177.392 20.4373C177.707 20.6445 177.957 20.9371 178.111 21.2807C178.265 21.6243 178.317 22.0046 178.262 22.3769C178.154 22.8323 177.987 23.2717 177.764 23.6839L177.58 23.9772C177.974 23.6244 178.361 23.2755 178.742 22.9304C179.496 22.2488 180.244 21.757 181.215 21.9249C181.652 22.0146 182.041 22.258 182.312 22.6104C182.583 22.9629 182.717 23.4008 182.691 23.844C182.621 24.7102 182.089 25.4058 181.463 26.011C181.149 26.3144 180.81 26.6347 180.451 26.9679C180.944 26.5434 181.514 26.2159 182.129 26.0029C182.505 25.9076 182.903 25.9363 183.261 26.0846C183.62 26.233 183.921 26.493 184.119 26.8258C184.251 27.1442 184.307 27.4889 184.282 27.8324C184.257 28.176 184.151 28.509 183.974 28.8048C183.618 29.4132 183.175 29.9674 182.661 30.4506C181.97 31.1118 181.09 31.9004 180.136 32.716C180.734 32.3932 181.394 32.2019 182.073 32.1552C182.929 32.1216 183.482 32.5412 183.642 33.0333C183.754 33.3661 183.784 33.721 183.728 34.0676C183.673 34.4142 183.534 34.7423 183.323 35.0238C182.688 35.8387 181.968 36.5843 181.175 37.2483C179.857 38.3679 178.458 39.3904 176.991 40.3076" fill="white"/>
<path d="M165.392 32.3888C165.361 31.6602 165.375 30.9305 165.434 30.2037C165.565 29.4159 165.862 28.6331 166.061 27.8588C166.271 27.0482 166.627 26.1103 166.388 25.2727C166.273 24.8344 166.027 24.4414 165.682 24.146C165.338 23.8507 164.911 23.667 164.459 23.6195C162.735 23.4577 161.412 24.7886 160.563 26.1242C159.544 27.7256 159.001 29.5784 158.551 31.4041C158.084 33.2989 157.57 35.1988 157.263 37.1268L157.502 36.718C156.524 37.8394 155.508 38.926 154.455 39.9777C153.609 40.8226 154.923 42.1334 155.77 41.2877C156.515 40.5428 157.243 39.7805 157.953 39.0008C158.326 38.6477 158.664 38.2591 158.962 37.8405C159.126 37.4149 159.226 36.9674 159.258 36.5127C159.619 34.7425 160.056 32.9766 160.512 31.2285C160.951 29.5494 161.498 27.716 162.664 26.3781C163.058 25.925 163.6 25.4132 164.252 25.4572C164.394 25.4664 164.529 25.5081 164.598 25.766C164.687 26.101 164.461 26.6074 164.379 26.9382C164.155 27.8449 163.85 28.7388 163.654 29.6513C163.46 30.5538 163.573 31.477 163.534 32.3918C163.484 33.5842 165.343 33.5815 165.394 32.3918L165.392 32.3888Z" fill="#211715"/>
<path d="M177.463 41.1078C178.587 40.3583 179.716 39.6141 180.783 38.783C181.923 37.9364 182.955 36.955 183.857 35.8603C184.686 34.7973 185.094 33.17 184.123 32.0456C183.17 30.9428 181.523 31.1343 180.309 31.6299C180.076 31.7016 179.879 31.8595 179.758 32.0713C179.637 32.283 179.602 32.5327 179.66 32.7693C179.727 33.0054 179.884 33.2057 180.098 33.3269C180.312 33.448 180.566 33.4803 180.804 33.4166C181.278 33.1801 181.805 33.0663 182.336 33.0854C182.466 33.0939 182.591 33.1418 182.693 33.2229C182.583 33.1433 182.775 33.3155 182.781 33.3213C182.678 33.2202 182.79 33.4533 182.748 33.2796C182.807 33.4565 182.828 33.6437 182.81 33.8291C182.792 34.0145 182.735 34.1942 182.643 34.3565C182.383 34.7765 182.064 35.158 181.696 35.4898C180.108 36.9939 178.376 38.3397 176.525 39.5079C176.317 39.6358 176.165 39.8389 176.103 40.075C176.041 40.3112 176.073 40.5621 176.192 40.7755C176.318 40.9858 176.522 41.1383 176.76 41.2005C176.997 41.2626 177.25 41.2294 177.463 41.1078Z" fill="#211715"/>
<path d="M181.35 27.4489C181.737 27.1617 182.262 26.8031 182.725 26.8857C182.831 26.8973 182.934 26.9318 183.025 26.9867C183.117 27.0416 183.195 27.1156 183.256 27.2037C183.316 27.2917 183.356 27.3917 183.373 27.4968C183.391 27.6018 183.385 27.7094 183.357 27.8121C183.269 28.4841 182.689 29.1005 182.236 29.5676C181.805 30.0118 181.338 30.4248 180.878 30.8386C178.848 32.6868 176.71 34.4121 174.473 36.0051C174.265 36.1335 174.115 36.3366 174.053 36.5725C173.991 36.8084 174.022 37.0591 174.14 37.2727C174.266 37.4833 174.47 37.6362 174.708 37.6984C174.946 37.7606 175.199 37.727 175.412 37.605C177.585 36.0589 179.671 34.3954 181.661 32.6219C182.665 31.8088 183.578 30.8899 184.385 29.8814C185.239 28.718 185.676 26.9282 184.504 25.7961C183.317 24.6489 181.635 24.9469 180.411 25.8501C180.204 25.9792 180.054 26.1823 179.992 26.4179C179.93 26.6535 179.961 26.9038 180.078 27.1177C180.203 27.3285 180.407 27.4815 180.645 27.5437C180.883 27.6059 181.136 27.5723 181.35 27.45V27.4489Z" fill="#211715"/>
<path d="M171.562 30.5213C173.091 29.1978 174.612 27.8649 176.123 26.5224C176.87 25.8601 177.614 25.1956 178.356 24.5292C178.957 23.9888 179.579 23.2377 180.342 22.9223C180.464 22.8581 180.599 22.8202 180.737 22.8109C180.875 22.8017 181.013 22.8213 181.143 22.8686C181.273 22.9158 181.391 22.9897 181.491 23.0854C181.59 23.1811 181.668 23.2964 181.72 23.4241C181.95 24.0451 181.426 24.716 181.026 25.1375C179.892 26.3321 178.608 27.4114 177.37 28.4956C175.879 29.8033 174.363 31.0817 172.821 32.3308C172.648 32.5055 172.55 32.7413 172.55 32.987C172.55 33.2327 172.648 33.4685 172.821 33.6432C172.998 33.8117 173.234 33.9057 173.478 33.9057C173.723 33.9057 173.959 33.8117 174.136 33.6432C175.68 32.3967 177.196 31.1183 178.685 29.808C179.432 29.1523 180.172 28.4883 180.904 27.8159C181.624 27.2066 182.286 26.5318 182.88 25.8002C183.198 25.4045 183.421 24.941 183.531 24.4457C183.641 23.9504 183.635 23.4365 183.513 22.9439C183.372 22.4732 183.108 22.0482 182.748 21.7122C182.388 21.3762 181.946 21.1413 181.465 21.0313C180.95 20.9488 180.422 20.9816 179.921 21.1275C179.42 21.2734 178.958 21.5286 178.568 21.8747C177.707 22.5494 176.92 23.3311 176.105 24.0594C174.166 25.7912 172.214 27.5085 170.249 29.2112C169.344 29.9944 170.664 31.3002 171.563 30.5213H171.562Z" fill="#211715"/>
<path d="M166.515 29.1384C168.568 27.247 170.731 25.4753 172.834 23.6403C173.773 22.8216 174.72 21.6803 175.915 21.2433C176.449 21.048 177.016 21.0982 177.271 21.6502C177.501 22.152 177.241 22.7448 176.967 23.2165C176.367 24.2506 177.974 25.1851 178.572 24.1518C179.288 22.9197 179.502 21.4614 178.578 20.278C177.486 18.8822 175.618 19.1756 174.273 20.0116C173.209 20.6728 172.313 21.6417 171.371 22.4611C170.349 23.3512 169.318 24.2309 168.29 25.1148C167.251 26.0076 166.209 26.8996 165.203 27.8283C164.323 28.6389 165.64 29.9482 166.517 29.1384H166.515Z" fill="#211715"/>
<path d="M168.861 30.4595C170.991 32.4972 172.618 34.954 174.227 37.4035C174.356 37.6115 174.559 37.7621 174.796 37.824C175.033 37.886 175.285 37.8544 175.499 37.7358C175.71 37.61 175.863 37.4068 175.925 37.1698C175.988 36.9329 175.954 36.681 175.833 36.4682C174.14 33.8925 172.417 31.2917 170.175 29.1495C169.312 28.3239 167.995 29.632 168.861 30.4595Z" fill="#211715"/>
<path d="M66.1004 121.105C66.1004 112.143 66.1778 98.4052 66.0888 96.1781C66.0113 94.225 65.7828 91.6543 64.3341 89.9057C62.8884 88.1687 61.3423 86.5171 59.7037 84.9593C48.6 75.5168 24.9066 55.1845 19.6274 48.6265C22.5682 44.9905 25.8347 41.2209 29.1818 37.7567C29.2485 37.6906 29.3366 37.6502 29.4304 37.6428C29.5241 37.6353 29.6175 37.6613 29.6939 37.7161C36.6239 42.9347 58.9859 60.4787 64.3802 63.7592C66.2243 64.8809 72.5881 67.1988 74.1723 67.6276C74.6681 67.7615 75.2794 67.9267 75.905 68.0966L78.965 69.2866C80.9587 72.7605 86.6581 76.2649 92.5331 76.3155C99.565 76.3761 104.435 72.0823 106.365 69.4946C106.365 69.4946 106.421 69.4201 106.498 69.319L106.744 68.7964C107.846 68.4903 109.8 67.9615 111.035 67.6276C112.619 67.1988 118.983 64.8809 120.827 63.7592C126.221 60.4783 148.583 42.9347 155.513 37.7161C155.59 37.6613 155.683 37.6353 155.777 37.6427C155.871 37.6501 155.959 37.6905 156.026 37.7567C159.372 41.2209 162.639 44.9905 165.58 48.6265C160.301 55.1845 136.606 75.5168 125.504 84.9593C123.865 86.5171 122.319 88.1687 120.873 89.9057C119.424 91.6543 119.196 94.225 119.118 96.1781C119.029 98.4052 119.107 112.143 119.107 121.105H66.1004Z" fill="white"/>
<path d="M176.525 39.5075C175.189 40.3297 173.856 41.1673 172.446 41.8597C171.842 42.1562 171.221 42.416 170.586 42.6375C169.894 42.878 169.17 43.0123 168.478 43.2431C167.673 43.5133 166.979 44.2494 166.352 44.7905C165.704 45.3116 165.091 45.8754 164.518 46.4781C163.73 47.3697 165.04 48.6848 165.833 47.7881C166.381 47.2116 166.966 46.6716 167.585 46.1716C167.798 45.9866 168.013 45.8042 168.23 45.6243C168.306 45.5618 168.381 45.4997 168.458 45.4382C168.483 45.4174 168.767 45.1939 168.616 45.3101C168.742 45.2147 168.878 45.1321 169.004 45.0357C169.171 44.9056 169.113 45.0742 168.962 45.0333C169.054 45.0588 169.289 44.9527 169.388 44.9276C172.339 44.1815 174.895 42.6888 177.463 41.1063C178.479 40.4806 177.547 38.8776 176.525 39.5064L176.525 39.5075Z" fill="#211715"/>
<path d="M110.401 39.7569C110.349 39.7998 110.297 39.8451 110.246 39.8927C110.246 39.8927 111.64 26.1368 92.5321 26.1368C73.4242 26.1368 75.0755 39.8927 75.0755 39.8927C74.8087 39.647 74.4957 39.4564 74.1545 39.3319C73.8134 39.2074 73.4509 39.1515 73.088 39.1675C72.6266 39.1525 72.1697 39.2626 71.7662 39.4861C71.3626 39.7095 71.0274 40.0379 70.7964 40.4362C70.0179 41.7818 70.0508 44.2614 70.5733 45.7957C70.9436 46.8822 71.5498 48.5443 73.0117 49.7362C73.3572 50.0259 73.7645 50.2332 74.2025 50.3425C74.6405 50.4518 75.0978 50.4601 75.5395 50.3669C76.3375 53.0967 77.6877 55.6348 79.5071 57.825C81.4752 60.1722 83.5627 61.7953 85.9685 62.6136C85.7601 63.7231 85.4701 64.8158 85.1008 65.8829C84.3478 67.4724 82.0365 68.7477 78.949 69.2592C80.9279 72.7412 86.6421 76.2649 92.5329 76.3154C99.5648 76.376 104.435 72.0823 106.365 69.4946C106.365 69.4946 106.439 69.395 106.54 69.263C103.441 68.7543 101.117 67.4763 100.359 65.8825C100.103 65.3422 99.8274 63.914 99.5218 62.5715C104.318 61.0662 108.287 54.3268 108.946 52.5443C109.261 51.8377 109.529 51.1114 109.75 50.37L109.974 50.4086C110.389 50.4635 110.81 50.4322 111.213 50.3165C111.615 50.2008 111.988 50.0034 112.31 49.7366C113.772 48.5447 114.378 46.8826 114.749 45.796C115.271 44.2617 115.304 41.7818 114.525 40.4366C114.294 40.0383 113.959 39.7099 113.556 39.4865C113.152 39.2631 112.695 39.1529 112.234 39.1678C111.572 39.1407 110.922 39.3495 110.401 39.7569Z" fill="white"/>
<path d="M89.9424 12.1108C90.8287 12.0105 91.72 11.9607 92.612 11.9614C97.1601 11.9033 101.602 13.3303 105.26 16.0243C109.311 18.9382 113.503 24.0869 113.854 32.3764C113.938 34.7074 113.656 37.0372 113.017 39.2814C112.762 39.2126 112.499 39.1738 112.235 39.1656C111.872 39.1497 111.51 39.2056 111.168 39.33C110.827 39.4545 110.514 39.6451 110.248 39.8908L107.459 37.6884C106.558 35.4303 104.524 32.9353 102.404 31.1169C101.453 30.268 100.365 29.5859 99.1853 29.0997C99.1853 29.0997 97.4197 28.784 95.7301 28.6555L95.6914 28.6721C93.3348 29.6617 90.0117 31.7395 88.147 32.772C88.0411 32.8239 87.9228 32.8455 87.8053 32.8344C87.6879 32.8233 87.5758 32.78 87.4815 32.7092C87.3872 32.6385 87.3145 32.5431 87.2713 32.4337C87.2282 32.3242 87.2164 32.205 87.2371 32.0892C87.286 31.6805 87.2588 31.2664 87.1569 30.8676C87.0326 30.3577 86.6394 30.1411 86.333 30.3013C83.7204 31.6666 79.9976 35.1968 77.8888 37.539L75.0782 39.8908C74.8114 39.6451 74.4984 39.4545 74.1573 39.33C73.8162 39.2056 73.4537 39.1497 73.0907 39.1656C72.8002 39.1732 72.512 39.2191 72.2335 39.3022C71.5961 37.0497 71.3056 34.7138 71.3721 32.3745C71.4605 29.1549 72.2911 25.9988 73.7995 23.1503C75.308 20.3018 77.4539 17.8373 80.0712 15.9475C82.9602 13.8159 86.3679 12.4914 89.9424 12.1108Z" fill="#85807F"/>
<path d="M75.7337 39.2378C75.1544 38.7227 74.4348 38.3905 73.666 38.2832C72.8972 38.1758 72.1137 38.2982 71.4147 38.6348C70.9244 38.8983 70.4987 39.2665 70.168 39.7131C69.8374 40.1598 69.6099 40.6738 69.502 41.2183C68.8574 43.7658 69.5132 46.6955 70.9828 48.8543C72.0608 50.4369 73.6025 51.569 75.5961 51.3015C75.8331 51.2349 76.0341 51.078 76.1557 50.8647C76.2772 50.6513 76.3094 50.3989 76.2453 50.162C76.1743 49.9287 76.016 49.7314 75.8032 49.6111C75.5904 49.4907 75.3394 49.4563 75.1019 49.5151C73.7489 49.6965 72.7003 48.222 72.1546 47.1992C71.5938 46.1825 71.2509 45.061 71.1474 43.9055C71.0758 42.8796 71.1509 41.4495 71.7215 40.7095C71.656 40.7945 71.8474 40.5748 71.8691 40.5524C71.9221 40.487 71.988 40.4332 72.0628 40.3942C72.2672 40.2628 72.496 40.1735 72.7356 40.1317C73.0295 40.0665 73.3346 40.0702 73.6268 40.1425C73.9191 40.2148 74.1905 40.3536 74.4198 40.5482C75.3064 41.3445 76.6253 40.0383 75.7344 39.2381L75.7337 39.2378Z" fill="#211715"/>
<path d="M110.904 40.5477C111.294 40.2219 111.796 40.06 112.304 40.096C112.812 40.132 113.286 40.3632 113.626 40.7407C113.494 40.5782 113.669 40.8145 113.691 40.85C113.743 40.9328 113.791 41.0183 113.834 41.1063C113.95 41.384 114.035 41.6737 114.087 41.9701C114.203 42.6081 114.233 43.2588 114.175 43.9047C114.074 45.0375 113.742 46.1378 113.2 47.1385C112.655 48.1807 111.597 49.6992 110.221 49.5147C109.983 49.4577 109.733 49.4929 109.521 49.613C109.309 49.7331 109.15 49.9292 109.077 50.1616C109.014 50.3984 109.046 50.6507 109.167 50.864C109.289 51.0772 109.49 51.2342 109.727 51.301C112.962 51.7349 114.844 48.5933 115.682 45.9277C116.084 44.5706 116.168 43.1399 115.928 41.7455C115.866 41.1771 115.688 40.6272 115.406 40.1295C115.123 39.6318 114.742 39.1966 114.285 38.8505C113.568 38.3935 112.72 38.1837 111.872 38.2535C111.023 38.3232 110.221 38.6686 109.589 39.2365C108.698 40.0363 110.015 41.3433 110.904 40.5466V40.5477Z" fill="#211715"/>
<path d="M109.185 48.8376C108.893 50.0744 108.493 51.2834 107.99 52.4509C107.99 52.4509 108.067 52.2818 107.987 52.4543C107.952 52.5292 107.918 52.6049 107.883 52.6798C107.8 52.8535 107.713 53.0272 107.623 53.1954C107.401 53.6181 107.162 54.0323 106.913 54.4395C105.669 56.5485 104.078 58.434 102.206 60.017C101.194 60.8815 99.9963 61.5023 98.7051 61.8312C97.5399 62.1014 98.033 63.8866 99.1993 63.6175C101.892 62.9973 104.131 61.0314 105.885 58.9918C107.381 57.3091 108.63 55.4228 109.593 53.3896C109.648 53.2653 109.701 53.1404 109.753 53.0148C109.777 52.9557 109.889 52.6971 109.782 52.9411C109.93 52.603 110.074 52.2644 110.204 51.919C110.529 51.0774 110.788 50.2119 110.979 49.3302C111.038 49.0935 111.004 48.8431 110.883 48.6309C110.762 48.4187 110.564 48.2611 110.329 48.1907C110.092 48.1279 109.839 48.1605 109.625 48.2814C109.411 48.4024 109.254 48.6021 109.186 48.8376H109.185Z" fill="#211715"/>
<path d="M74.2935 49.268C74.8781 51.8598 75.9288 54.3247 77.3947 56.5435C78.9874 58.9332 81.0814 61.1711 83.617 62.5777C84.9147 63.3005 86.3329 63.7836 87.8031 64.0035C88.0406 64.0609 88.2911 64.0258 88.5037 63.9056C88.7162 63.7853 88.8747 63.5889 88.947 63.3562C89.0105 63.1193 88.978 62.8671 88.8565 62.6539C88.7349 62.4407 88.5341 62.2837 88.2974 62.2168C83.1069 61.451 79.2295 56.9828 77.2482 52.3887C76.7511 51.2221 76.3621 50.0127 76.0862 48.7755C75.8216 47.6133 74.0286 48.105 74.2932 49.268H74.2935Z" fill="#211715"/>
<path d="M104.81 14.5962C101.671 12.6016 98.0893 11.4029 94.378 11.1046C90.6668 10.8063 86.9387 11.4176 83.519 12.8851C80.7183 14.1379 78.2089 15.9559 76.1493 18.2244C74.0897 20.4929 72.5248 23.1624 71.5534 26.0643C70.1928 30.3354 70.0877 34.9053 71.2505 39.2339C71.5472 40.3884 73.3422 39.899 73.0435 38.7414C72.0798 35.1429 72.062 31.3577 72.9916 27.7503C73.732 24.9416 75.0896 22.3319 76.9662 20.1101C78.9261 17.731 81.4156 15.8401 84.2372 14.5875C87.0587 13.3349 90.1345 12.7552 93.2201 12.8944C97.0103 12.9827 100.7 14.126 103.872 16.195C104.879 16.8462 105.812 15.2428 104.811 14.5951L104.81 14.5962Z" fill="#211715"/>
<path d="M113.984 39.2338C114.451 37.4529 114.724 35.6269 114.798 33.7875C114.834 31.9735 114.668 30.161 114.302 28.3837C113.71 25.4127 112.484 22.6033 110.708 20.1455C109.833 18.9439 108.837 17.8344 107.735 16.8345C106.851 16.0344 105.532 17.3405 106.421 18.1446C110.659 21.9809 112.876 27.3697 112.943 33.0515C112.936 34.9724 112.683 36.8845 112.192 38.7421C111.908 39.9001 113.7 40.3941 113.985 39.2346L113.984 39.2338Z" fill="#211715"/>
<path d="M98.7148 29.9018C100.432 30.6864 101.975 31.8062 103.251 33.195C104.642 34.5548 105.765 36.1633 106.56 37.9365C106.632 38.1693 106.79 38.3659 107.003 38.4862C107.215 38.6065 107.466 38.6414 107.703 38.5838C107.94 38.5171 108.141 38.3601 108.263 38.1467C108.384 37.9334 108.417 37.6809 108.353 37.444C107.476 35.4147 106.227 33.5665 104.669 31.9946C103.264 30.4401 101.558 29.1841 99.6533 28.3018C99.4387 28.1855 99.1876 28.1551 98.9512 28.2168C98.7148 28.2786 98.511 28.4278 98.3812 28.6342C98.2586 28.8467 98.2248 29.0989 98.2872 29.3361C98.3496 29.5733 98.5032 29.7765 98.7148 29.9018Z" fill="#211715"/>
<path d="M78.5443 38.1959C80.639 35.8773 82.9566 33.6027 85.5591 31.8522C85.8342 31.6673 86.1138 31.4894 86.4009 31.3234C86.4716 31.2911 86.5391 31.2523 86.6027 31.2076C86.6801 31.1362 86.6712 31.1872 86.6639 31.1601C86.532 31.1452 86.4014 31.1207 86.273 31.0868C86.2343 31.1165 86.2897 31.1389 86.2788 31.2026C86.285 31.3613 86.302 31.5194 86.3296 31.6758C86.3296 31.8568 86.2959 32.0383 86.3032 32.2189C86.3125 32.4783 86.3834 32.7317 86.5102 32.9585C86.6369 33.1852 86.8158 33.3787 87.0322 33.5232C87.8151 34.0288 88.5534 33.6108 89.2576 33.2074C89.9126 32.8322 90.5629 32.4493 91.216 32.0715C92.8083 31.104 94.4591 30.2356 96.1589 29.471C96.3707 29.346 96.5245 29.1428 96.5869 28.9055C96.6494 28.6682 96.6154 28.416 96.4925 28.2035C96.3636 27.9961 96.1598 27.846 95.923 27.7841C95.6863 27.7223 95.4348 27.7534 95.2204 27.8711C93.7019 28.5489 92.2255 29.3167 90.7992 30.1705C90.1167 30.5626 89.4377 30.961 88.7567 31.3554C88.46 31.5271 88.163 31.6973 87.8658 31.8661C87.8009 31.897 87.738 31.9319 87.6776 31.9707C87.6822 31.8704 88.0618 31.9908 88.0765 31.9931C88.1207 32.0004 88.111 32.1209 88.1668 32.0881C88.2055 32.0645 88.1881 31.787 88.1889 31.7465C88.204 30.8876 87.9894 29.8856 87.1539 29.4691C86.3567 29.0739 85.6006 29.6166 84.9437 30.0369C83.5609 30.9511 82.2544 31.975 81.0369 33.0986C79.7026 34.2921 78.4323 35.5548 77.2312 36.8813C76.4324 37.7652 77.7432 39.0814 78.5458 38.1913L78.5443 38.1959Z" fill="#211715"/>
<path d="M105.695 68.8513C105.635 68.9303 105.576 69.0093 105.517 69.0883C105.362 69.2944 105.635 68.942 105.468 69.1504C105.381 69.2593 105.292 69.3677 105.202 69.4746C104.963 69.7564 104.714 70.0297 104.456 70.2945C103.908 70.8567 103.324 71.3821 102.707 71.867C101.257 73.0043 99.63 73.8961 97.89 74.5068C95.7011 75.2427 93.3797 75.5045 91.0811 75.2745C88.7825 75.0445 86.5597 74.3281 84.5613 73.1732C82.6838 72.116 80.8668 70.7029 79.7675 68.8192C79.1659 67.789 77.5596 68.7208 78.1623 69.7545C79.2686 71.6489 81 73.1454 82.8411 74.3068C85.0166 75.6864 87.4515 76.6094 89.997 77.0196C94.6826 77.7228 99.4568 76.5458 103.273 73.7468C104.805 72.6326 106.163 71.298 107.301 69.7865C107.424 69.574 107.458 69.3218 107.396 69.0845C107.333 68.8472 107.18 68.644 106.968 68.5189C106.754 68.4009 106.502 68.3695 106.265 68.4314C106.028 68.4933 105.824 68.6436 105.696 68.8513H105.695Z" fill="#211715"/>
<path d="M106.637 69.7868C108.896 69.1546 111.177 68.6096 113.392 67.8333C115.772 67.036 118.105 66.105 120.379 65.0446C121.575 64.4187 122.718 63.6982 123.797 62.89C125.378 61.783 126.935 60.6416 128.484 59.4933C132.501 56.5185 136.474 53.4846 140.441 50.4434C144.289 47.4936 148.115 44.5377 151.906 41.6262C152.644 41.0601 153.382 40.4948 154.12 39.9302C154.433 39.6914 154.746 39.4528 155.06 39.2146C155.35 39.025 155.627 38.8154 155.888 38.5873C155.904 38.5715 155.971 38.5395 155.983 38.5155L155.496 38.5433L155.623 38.6753C155.779 38.8643 155.948 39.0416 156.13 39.2057C156.49 39.5845 156.847 39.9649 157.202 40.3471C157.874 41.0696 158.538 41.7989 159.195 42.5348C160.523 44.0201 161.824 45.5282 163.099 47.059C163.712 47.7955 164.321 48.5363 164.923 49.2815V47.9692C163.737 49.3914 162.474 50.7488 161.14 52.0356C159.24 53.9296 157.286 55.77 155.317 57.5938C150.465 62.0852 145.509 66.4646 140.527 70.8124C135.881 74.8686 131.208 78.8945 126.508 82.89C125.294 83.9048 124.131 84.98 123.026 86.1115C122.267 86.9028 121.529 87.7133 120.812 88.5432C120.144 89.2569 119.59 90.0676 119.167 90.9475C118.121 93.3484 118.169 96.0383 118.154 98.6098C118.116 105.278 118.168 111.947 118.176 118.615C118.176 119.445 118.176 120.274 118.176 121.104C118.176 122.296 120.035 122.298 120.035 121.104C120.035 114.239 119.993 107.374 120.006 100.51C120.009 98.4068 119.911 96.2375 120.205 94.1493C120.308 93.2502 120.55 92.3726 120.924 91.5477C121.396 90.7036 121.98 89.9271 122.661 89.2395C123.916 87.7788 125.272 86.4079 126.72 85.1368C131.231 81.2978 135.723 77.437 140.196 73.5545C145.21 69.1928 150.199 64.8022 155.099 60.315C158.673 57.0403 162.331 53.761 165.533 50.1145C165.772 49.8412 166.008 49.5645 166.236 49.2819C166.402 49.1035 166.494 48.8691 166.494 48.6258C166.494 48.3824 166.402 48.148 166.236 47.9696C163.721 44.8624 161.115 41.8266 158.389 38.8988C158.053 38.5386 157.717 38.181 157.379 37.8262C157.031 37.4614 156.676 36.9577 156.182 36.7929C155.526 36.5736 155.063 36.8963 154.574 37.2669C153.938 37.7483 153.304 38.2315 152.671 38.7163C149.005 41.5205 145.367 44.3359 141.718 47.1393C137.603 50.3017 133.482 53.458 129.323 56.5659C126.464 58.7039 123.615 60.918 120.584 62.8143C118.774 63.9472 116.718 64.6377 114.723 65.3815C112.496 66.2118 110.26 66.8703 107.967 67.4948C107.358 67.6608 106.749 67.8281 106.141 67.9966C104.991 68.3185 105.479 70.1068 106.635 69.7834L106.637 69.7868Z" fill="#211715"/>
<path d="M79.2128 70.1501C81.1855 69.8135 83.216 69.1465 84.7476 67.8148C85.3532 67.2966 85.8172 66.634 86.0963 65.8887C86.4183 64.8968 86.6752 63.8851 86.8652 62.8599C86.9252 62.6232 86.8912 62.3726 86.7702 62.1603C86.6493 61.948 86.4507 61.7904 86.216 61.7204C85.9784 61.6578 85.7256 61.6905 85.5118 61.8114C85.2981 61.9324 85.1404 62.1319 85.0726 62.3674C84.8564 63.3296 84.6666 64.3112 84.3544 65.2484C84.3304 65.3206 84.3033 65.3916 84.277 65.4634C84.2076 65.6614 84.3668 65.3059 84.2665 65.4788C84.1809 65.6259 84.0976 65.7691 84.0046 65.9119C83.9001 66.0733 84.1073 65.8038 83.9659 65.9636C83.914 66.0219 83.8648 66.0817 83.811 66.1389C83.6909 66.2674 83.564 66.3896 83.431 66.5048C83.4085 66.5241 83.2265 66.6754 83.295 66.6206C83.3543 66.5735 83.1366 66.7364 83.1068 66.7568C82.9557 66.8618 82.8008 66.9609 82.6419 67.054C82.4611 67.161 82.2755 67.2602 82.0873 67.3532C81.9064 67.4424 81.71 67.5319 81.607 67.5736C80.6749 67.9402 79.7056 68.2049 78.7162 68.3629C78.4795 68.4299 78.2788 68.5869 78.1573 68.8001C78.0359 69.0133 78.0034 69.2656 78.067 69.5024C78.1372 69.7363 78.2953 69.9342 78.5083 70.0547C78.7213 70.1753 78.9729 70.2094 79.2104 70.1497L79.2128 70.1501Z" fill="#211715"/>
<path d="M98.6255 62.8174C98.8131 63.8539 99.0601 64.8788 99.3653 65.8871C99.6401 66.6352 100.105 67.2994 100.714 67.8148C102.247 69.1453 104.278 69.8134 106.251 70.15C106.488 70.2081 106.739 70.1734 106.952 70.053C107.164 69.9326 107.323 69.7357 107.394 69.5027C107.458 69.2659 107.425 69.0137 107.304 68.8005C107.182 68.5874 106.982 68.4303 106.745 68.3633C105.755 68.2058 104.786 67.9411 103.854 67.5739C103.745 67.5299 103.593 67.4608 103.418 67.3755C103.214 67.2762 103.015 67.1691 102.819 67.0544C102.66 66.961 102.505 66.8614 102.354 66.7572C102.281 66.707 102.209 66.6556 102.139 66.6028C102.279 66.7112 102.055 66.5283 102.029 66.5059C101.895 66.3908 101.768 66.2686 101.648 66.14C101.595 66.0828 101.546 66.0242 101.493 65.9647C101.332 65.7833 101.584 66.1126 101.455 65.913C101.368 65.7806 101.289 65.6474 101.208 65.5116C101.08 65.2943 101.24 65.6416 101.182 65.4633C101.159 65.3908 101.132 65.3193 101.109 65.2468C100.808 64.2945 100.639 63.2983 100.418 62.326C100.353 62.0891 100.195 61.8879 99.9809 61.7666C99.7664 61.6452 99.5124 61.6138 99.2747 61.6791C99.037 61.7444 98.835 61.9011 98.7133 62.1148C98.5915 62.3285 98.5599 62.5816 98.6255 62.8185V62.8174Z" fill="#211715"/>
<path d="M7.74358 41.1078C10.3117 42.6884 12.8674 44.1818 15.819 44.9291C15.919 44.9542 16.1545 45.0604 16.247 45.0349C16.0956 45.077 16.0379 44.9071 16.2044 45.0372C16.3284 45.1341 16.4651 45.2163 16.5918 45.3116C16.4392 45.1958 16.7246 45.4189 16.7506 45.4398C16.8281 45.5013 16.904 45.5633 16.9784 45.6258C17.1818 45.7941 17.3833 45.9647 17.5826 46.1376C18.216 46.6482 18.8148 47.2001 19.3749 47.7897C20.1678 48.6859 21.4786 47.3717 20.6895 46.4796C20.1169 45.877 19.5044 45.3133 18.8562 44.7921C18.2283 44.2517 17.5346 43.5129 16.7301 43.2447C16.0383 43.0131 15.3135 42.8795 14.6213 42.639C13.9863 42.4176 13.3654 42.1579 12.7621 41.8613C11.3517 41.17 10.0185 40.3312 8.6829 39.5091C7.66185 38.8807 6.72718 40.4829 7.74435 41.109L7.74358 41.1078Z" fill="#211715"/>
<path d="M76.1527 67.2034C73.9604 66.6048 71.7999 65.8962 69.6794 65.0804C67.8751 64.3907 66.0553 63.7337 64.4153 62.6873C61.4691 60.8052 58.679 58.6603 55.8816 56.569C51.8857 53.5818 47.9239 50.5495 43.9671 47.5106C40.3884 44.7616 36.8306 42.0106 33.2403 39.2589C32.5795 38.7522 31.9179 38.2467 31.2555 37.7424C30.9715 37.5272 30.6881 37.3125 30.4053 37.0981C30.1351 36.8571 29.7818 36.7297 29.4195 36.7426C29.0571 36.7555 28.7138 36.9077 28.4616 37.1672C27.0605 38.4885 25.7931 39.9954 24.5137 41.432C23.2343 42.8687 21.9723 44.3366 20.7374 45.8188C20.1435 46.5321 19.5546 47.2495 18.9708 47.9711C18.8047 48.1495 18.7124 48.3839 18.7124 48.6273C18.7124 48.8706 18.8047 49.105 18.9708 49.2834C20.1575 50.7054 21.4201 52.0627 22.7532 53.3494C24.626 55.2161 26.5512 57.0306 28.491 58.8274C33.305 63.2871 38.2231 67.6349 43.1669 71.951C47.7916 75.989 52.4423 79.9969 57.1192 83.9746C58.2646 84.9508 59.3964 85.9165 60.4504 86.993C61.2062 87.765 61.9409 88.5562 62.6544 89.3665C63.3108 90.0354 63.8696 90.7929 64.3146 91.6168C65.3407 93.7783 65.1822 96.3992 65.1946 98.741C65.2299 105.367 65.1807 111.993 65.1726 118.619C65.1726 119.449 65.1726 120.279 65.1726 121.108C65.1726 122.3 67.0318 122.302 67.0318 121.108C67.0318 114.208 67.0752 107.309 67.0613 100.41C67.057 98.189 67.1248 95.9364 66.8064 93.732C66.6743 92.7507 66.4072 91.7922 66.0127 90.8834C65.5658 89.983 64.9859 89.1545 64.2925 88.4254C63.0019 86.8693 61.5949 85.4128 60.0836 84.0684C55.5609 80.2211 51.0572 76.3521 46.5725 72.4613C41.5199 68.0703 36.4932 63.6473 31.5557 59.1277C27.9356 55.814 24.2294 52.4945 20.9877 48.8044C20.7483 48.5311 20.5128 48.2544 20.2846 47.9715V49.2838C22.6641 46.3437 25.1265 43.4677 27.6919 40.6882C28.0253 40.3264 28.361 39.9662 28.699 39.6075C29.062 39.2777 29.4006 38.9223 29.7123 38.5441C29.7057 38.5313 29.2363 38.4838 29.2475 38.5344C29.2545 38.5618 29.3223 38.5846 29.3432 38.6066C29.3973 38.6539 29.4548 38.6972 29.5152 38.7363C29.6624 38.8474 29.8094 38.9587 29.9563 39.0702C30.5808 39.5442 31.204 40.0194 31.8261 40.496C35.3347 43.1821 38.7344 45.8122 42.262 48.5246C46.1812 51.5368 50.1138 54.5322 54.0599 57.5108C56.9774 59.7001 59.891 61.9172 62.9325 63.9352C64.3821 64.8491 65.9209 65.6142 67.5253 66.2187C69.5457 67.0378 71.601 67.8399 73.695 68.4575C74.3446 68.6504 75.0031 68.8149 75.6569 68.992C76.8128 69.3055 77.3062 67.5187 76.1512 67.2057L76.1527 67.2034Z" fill="#211715"/>
<path d="M92.3599 46.6005C92.5188 47.1721 92.646 47.7519 92.7411 48.3374L92.7078 48.0912C92.7191 48.1706 92.7213 48.251 92.7144 48.3309L92.7477 48.0846C92.7422 48.1214 92.7333 48.1576 92.7209 48.1927L92.8147 47.9711C92.8039 47.9954 92.7909 48.0187 92.7759 48.0406L92.9212 47.853C92.9045 47.8739 92.8854 47.8926 92.8643 47.909L93.0521 47.7643C93.0079 47.7917 92.9618 47.8161 92.9142 47.8372L93.1362 47.7438C93.0618 47.7756 92.9837 47.7983 92.9038 47.8113L93.1509 47.7781C93.0783 47.7868 93.005 47.7868 92.9324 47.7781L93.1796 47.8113C93.0974 47.7998 93.0165 47.7801 92.934 47.7689C92.8141 47.7305 92.6861 47.7248 92.5633 47.7523C92.4404 47.7578 92.3211 47.7958 92.2178 47.8623C92.1123 47.9237 92.0201 48.0052 91.9462 48.1021C91.8724 48.199 91.8184 48.3095 91.7875 48.4272C91.7565 48.5449 91.7491 48.6676 91.7657 48.7881C91.7823 48.9087 91.8226 49.0248 91.8843 49.1299C91.9433 49.2344 92.0229 49.3258 92.1184 49.3988C92.2139 49.4718 92.3232 49.5247 92.4397 49.5545C92.6303 49.5799 92.8155 49.6282 93.0095 49.6367C93.3028 49.6385 93.5923 49.5696 93.8532 49.436C94.0187 49.3609 94.1653 49.25 94.2824 49.1114C94.3995 48.9728 94.4842 48.81 94.5302 48.6347C94.5901 48.35 94.5873 48.0558 94.5221 47.7724C94.4272 47.2127 94.2971 46.658 94.1526 46.1087C94.1201 45.9914 94.0648 45.8817 93.9898 45.7857C93.9148 45.6897 93.8215 45.6093 93.7153 45.5493C93.6092 45.4892 93.4921 45.4505 93.371 45.4355C93.2498 45.4205 93.1268 45.4295 93.0091 45.4618C92.7739 45.531 92.5748 45.6885 92.4538 45.901C92.3327 46.1135 92.299 46.3645 92.3599 46.6013V46.6005Z" fill="#211715"/>
<path d="M83.1375 41.6702C82.8462 42.6132 83.036 44.7824 84.8286 44.9669C87.1984 44.953 87.3243 42.3302 86.5268 41.097C85.8753 40.0876 83.9532 39.6677 83.1375 41.6702Z" fill="#211715"/>
<path d="M102.185 41.6702C102.477 42.6132 102.287 44.7824 100.494 44.9669C98.1243 44.9527 97.9985 42.3302 98.796 41.097C99.4491 40.0876 101.369 39.6677 102.185 41.6702Z" fill="#211715"/>
<path d="M91.5074 55.3963C91.1187 54.9851 90.7819 54.528 90.5045 54.0353C90.386 53.8253 90.2881 53.6042 90.2125 53.3753C90.1663 53.2364 90.1295 53.0945 90.1024 52.9507C90.0579 52.6906 90.1764 52.6149 89.8096 52.9642C89.461 53.2962 89.4773 53.2198 89.7139 53.2198H90.4755H91.7684H94.598H95.8402H96.0649C96.3206 53.2198 96.3604 53.3066 96.001 52.9561C95.6818 52.645 95.7527 52.5728 95.6876 52.8523C95.6491 53.0159 95.6071 53.1783 95.5613 53.3394C95.2896 54.4188 94.7185 55.4001 93.9132 56.171C93.7412 56.3452 93.6452 56.5801 93.6462 56.8245C93.6472 57.0689 93.7451 57.303 93.9185 57.4758C94.0919 57.6486 94.3268 57.7461 94.5721 57.7471C94.8173 57.7481 95.053 57.6525 95.2278 57.4811C96.2467 56.4989 96.9761 55.2574 97.337 53.8914C97.5674 53.109 97.8312 52.112 96.9883 51.5824C96.5014 51.2767 95.8522 51.3666 95.2987 51.367L91.8188 51.3693H90.2361C89.638 51.3693 89.0202 51.3153 88.5705 51.7982C87.8961 52.5238 88.323 53.7239 88.67 54.5082C89.0537 55.3194 89.5679 56.0626 90.1923 56.7083C91.0034 57.5884 92.3158 56.2752 91.507 55.3983L91.5074 55.3963Z" fill="#211715"/>
</g>
<g clip-path="url(#clip1_59_200)">
<path d="M166.047 16.8944C165.398 18.4812 164.491 20.3039 163.664 21.8586C164.199 22.1319 168.23 23.7565 169.332 24.0352C170.002 22.3411 170.699 20.7246 171.232 19.0559C170.35 18.7306 167.853 17.5734 166.047 16.8944Z" fill="white"/>
<path d="M258.806 17.9667C257.358 19.3389 255.586 20.9685 254.419 22.1801C255.65 23.3381 256.926 24.5497 258.066 25.5737C259.368 24.2494 260.967 22.8128 262.264 21.3761C261.703 20.7898 259.876 19.0293 258.806 17.9667Z" fill="white"/>
<path d="M251.566 5.85087C249.708 4.15676 247.719 2.37697 245.925 0.918701C244.11 2.75215 242.511 4.62844 240.89 6.45108C241.997 7.5002 244.693 9.95741 246.476 11.3404C247.838 9.89295 250.529 7.07291 251.566 5.85087Z" fill="white"/>
<path d="M165.147 16.6481C164.48 18.2693 163.68 19.8414 162.858 21.3912C162.736 21.604 162.703 21.8556 162.766 22.0924C162.828 22.3291 162.982 22.5322 163.193 22.6584C164.092 23.11 165.06 23.4543 165.994 23.8217C167 24.2517 168.031 24.6213 169.082 24.9284C169.321 24.9866 169.573 24.952 169.786 24.8317C170 24.7113 170.159 24.5145 170.231 24.2814C170.885 22.6294 171.585 20.9936 172.131 19.3022C172.191 19.0654 172.157 18.8148 172.035 18.6024C171.914 18.39 171.714 18.2324 171.479 18.1624C170.813 17.9138 170.162 17.6127 169.35 17.2626C168.339 16.8261 167.325 16.3914 166.294 16.0012C166.055 15.938 165.801 15.9704 165.586 16.0915C165.371 16.2126 165.213 16.4127 165.145 16.6485C165.085 16.8852 165.119 17.1359 165.24 17.3482C165.362 17.5605 165.561 17.7181 165.797 17.7879C167.548 18.4499 169.222 19.2933 170.982 19.9495L170.332 18.8093C169.787 20.5011 169.087 22.1369 168.432 23.7885L169.58 23.1412C168.558 22.8433 167.554 22.4847 166.575 22.0674C166.032 21.8549 165.491 21.6374 164.951 21.4151L164.757 21.3348C164.848 21.3734 164.888 21.3908 164.772 21.3414C164.679 21.3028 164.585 21.2618 164.492 21.2213C164.372 21.1692 164.252 21.1171 164.134 21.0584L164.469 22.3256C165.368 20.6323 166.218 18.9127 166.946 17.1403C167.011 16.9034 166.978 16.6508 166.856 16.4375C166.734 16.2241 166.532 16.067 166.294 16.0004C166.056 15.9415 165.804 15.9759 165.59 16.0965C165.376 16.2171 165.218 16.4146 165.147 16.6481Z" fill="#211715"/>
<path d="M258.146 17.3112C256.674 18.705 255.167 20.0679 253.759 21.525C253.587 21.7004 253.49 21.9354 253.49 22.1801C253.49 22.4247 253.587 22.6597 253.759 22.8351C254.968 23.9726 256.171 25.1178 257.406 26.2287C257.583 26.3985 257.82 26.4933 258.066 26.4933C258.312 26.4933 258.549 26.3985 258.726 26.2287C260.116 24.8198 261.594 23.497 262.924 22.0311C263.094 21.8548 263.189 21.6201 263.189 21.376C263.189 21.1319 263.094 20.8973 262.924 20.721C261.803 19.5549 260.616 18.4502 259.466 17.3112C258.615 16.4678 257.294 17.7775 258.146 18.6235C259.295 19.7622 260.482 20.8669 261.604 22.033V20.721C260.273 22.1878 258.796 23.5098 257.406 24.9186H258.726C257.491 23.8078 256.288 22.6625 255.079 21.525V22.8351C256.488 21.378 257.997 20.0174 259.466 18.6216C260.337 17.7964 259.016 16.4879 258.146 17.3112Z" fill="#211715"/>
<path d="M252.226 5.19575C250.38 3.51399 248.522 1.84227 246.585 0.263576C246.407 0.0948843 246.171 0.000732422 245.925 0.000732422C245.679 0.000732422 245.442 0.0948843 245.265 0.263576C243.512 2.03913 241.886 3.93047 240.229 5.79596C240.058 5.97171 239.962 6.20657 239.962 6.45098C239.962 6.6954 240.058 6.93025 240.229 7.10601C242.023 8.80436 243.866 10.4757 245.816 11.9953C245.994 12.1641 246.23 12.2583 246.476 12.2583C246.722 12.2583 246.959 12.1641 247.136 11.9953C248.844 10.1812 250.609 8.40254 252.226 6.50579C252.395 6.32908 252.49 6.09459 252.49 5.85077C252.49 5.60695 252.395 5.37246 252.226 5.19575C252.05 5.02381 251.813 4.92744 251.566 4.92744C251.319 4.92744 251.081 5.02381 250.905 5.19575C249.288 7.0925 247.524 8.86998 245.816 10.6853H247.136C245.186 9.16565 243.343 7.49315 241.55 5.79596V7.10601C243.206 5.24168 244.832 3.35033 246.585 1.57362H245.265C247.202 3.15232 249.06 4.82404 250.905 6.50579C251.789 7.31097 253.114 6.00401 252.226 5.19575Z" fill="#211715"/>
<path d="M299.334 31.7167C299.504 31.4339 299.605 31.1157 299.629 30.7874C299.653 30.459 299.6 30.1296 299.473 29.8253C299.283 29.5072 298.994 29.2586 298.65 29.1168C298.306 28.9751 297.924 28.9476 297.563 29.0387C296.972 29.2425 296.426 29.5557 295.953 29.9616C296.297 29.6435 296.622 29.3371 296.925 29.0472C297.561 28.524 297.98 27.7868 298.103 26.9763C298.129 26.5528 298 26.1342 297.74 25.7973C297.48 25.4605 297.106 25.2279 296.687 25.1421C295.754 24.9819 295.038 25.4509 294.314 26.1032C293.949 26.4321 293.577 26.7656 293.198 27.1037L293.375 26.8231C293.589 26.4292 293.749 26.0093 293.853 25.574C293.906 25.2184 293.855 24.8552 293.707 24.527C293.559 24.1988 293.32 23.9193 293.018 23.7213C292.721 23.5761 292.394 23.5019 292.063 23.5047C291.732 23.5075 291.406 23.5873 291.112 23.7375C290.54 23.9961 290.016 24.3477 289.561 24.7778C287.678 26.5147 283.829 29.6756 281.946 31.4102C281.946 31.4102 281.444 31.8734 280.754 32.5068C281.091 31.2786 281.299 30.5769 281.606 29.2259C281.653 29.0226 281.652 28.8115 281.603 28.6086C281.555 28.4058 281.461 28.2165 281.328 28.0552C281.157 27.8557 280.927 27.7147 280.67 27.6522C279.263 27.4534 278.215 28.6214 277.489 29.8338C276.505 31.4789 276.045 33.3722 275.599 35.2334C275.267 36.6168 274.777 38.4904 274.556 39.9039C274.256 40.2478 273.949 40.5859 273.64 40.9225C276.238 43.6603 278.794 46.5336 281.159 49.3857L281.291 49.2313C281.631 48.8372 284.294 46.4607 284.709 46.3638C287.866 45.6258 289.603 44.5659 292.634 42.7081C294.042 41.8314 295.384 40.8542 296.649 39.7842C297.409 39.1496 298.1 38.437 298.71 37.6582C298.912 37.3892 299.046 37.0757 299.099 36.7444C299.152 36.4132 299.124 36.0741 299.017 35.7561C298.863 35.2848 298.332 34.8849 297.51 34.9169C296.86 34.9616 296.226 35.1445 295.653 35.4531C296.568 34.6734 297.413 33.9199 298.076 33.288C298.569 32.8264 298.992 32.2973 299.334 31.7167Z" fill="white"/>
<path d="M281.536 35.1419C281.565 34.4425 281.448 33.7026 281.585 33.0124C281.731 32.2698 281.992 31.5395 282.182 30.8061C282.391 29.9955 282.733 29.0808 282.466 28.2478C282.337 27.826 282.082 27.4531 281.735 27.1786C281.387 26.9041 280.964 26.7411 280.521 26.7112C278.838 26.5992 277.564 27.9351 276.754 29.2417C275.809 30.7702 275.299 32.5195 274.873 34.248C274.431 36.0398 273.944 37.835 273.651 39.658L273.891 39.2493C272.953 40.3208 271.978 41.3591 270.967 42.3642C270.117 43.2095 271.437 44.5199 272.287 43.6742C272.99 42.9751 273.676 42.26 274.346 41.5289C274.721 41.1768 275.06 40.789 275.358 40.3709C275.513 39.9747 275.608 39.5574 275.637 39.1331C275.976 37.4679 276.392 35.8097 276.818 34.1642C277.235 32.5531 277.747 30.8401 278.819 29.5235C278.995 29.262 279.226 29.0407 279.494 28.8743C279.763 28.7079 280.065 28.6003 280.379 28.5585C280.531 28.5477 280.463 28.5438 280.519 28.5848C280.561 28.6106 280.597 28.6444 280.625 28.6841C280.653 28.7239 280.674 28.7688 280.684 28.8164C280.775 29.1514 280.552 29.6304 280.47 29.96C280.261 30.7976 279.988 31.6225 279.796 32.4632C279.595 33.3467 279.704 34.2488 279.667 35.1443C279.617 36.3366 281.484 36.3343 281.534 35.1443L281.536 35.1419Z" fill="#211715"/>
<path d="M296.832 30.4569C297.208 30.1798 297.708 29.8266 298.166 29.9339C298.258 29.9489 298.345 29.9828 298.423 30.0336C298.501 30.0844 298.567 30.1508 298.617 30.2285C298.667 30.3063 298.7 30.3937 298.714 30.4849C298.728 30.5762 298.722 30.6694 298.698 30.7584C298.613 31.3848 298.072 31.9627 297.651 32.3996C297.229 32.8365 296.775 33.2333 296.328 33.6348C294.384 35.3973 292.335 37.0428 290.192 38.5623C289.983 38.6907 289.832 38.8938 289.77 39.1297C289.708 39.3656 289.739 39.6163 289.858 39.8299C289.984 40.0405 290.189 40.1934 290.427 40.2556C290.666 40.3178 290.92 40.2842 291.135 40.1622C293.233 38.6755 295.248 37.0752 297.169 35.3686C298.157 34.5763 299.049 33.6725 299.826 32.6756C300.624 31.5543 300.974 29.8482 299.851 28.7937C298.696 27.7083 297.075 27.985 295.892 28.8566C295.683 28.9856 295.533 29.1887 295.47 29.4244C295.408 29.66 295.439 29.9104 295.557 30.1242C295.683 30.3349 295.888 30.4879 296.127 30.55C296.366 30.6122 296.62 30.5786 296.834 30.4565L296.832 30.4569Z" fill="#211715"/>
<path d="M287.446 33.388C288.899 32.1367 290.342 30.8767 291.777 29.608C292.497 28.9719 293.215 28.334 293.931 27.6943C294.515 27.174 295.102 26.4746 295.829 26.1504C295.938 26.0878 296.06 26.0486 296.186 26.0352C296.312 26.0219 296.44 26.0346 296.56 26.0727C296.681 26.1108 296.792 26.1733 296.887 26.2564C296.982 26.3395 297.059 26.4412 297.112 26.5553C297.354 27.1342 296.861 27.7738 296.483 28.1714C295.38 29.3328 294.126 30.3793 292.919 31.4322C291.501 32.6689 290.06 33.8784 288.596 35.0605C288.422 35.235 288.325 35.4704 288.325 35.7156C288.325 35.9607 288.422 36.1961 288.596 36.3706C288.773 36.5392 289.01 36.6333 289.256 36.6333C289.502 36.6333 289.738 36.5392 289.916 36.3706C291.404 35.1743 292.865 33.9471 294.301 32.689C295.029 32.0524 295.75 31.4073 296.464 30.7537C297.155 30.1737 297.786 29.5272 298.348 28.8237C298.65 28.4395 298.858 27.9917 298.956 27.5149C299.055 27.0382 299.042 26.5452 298.918 26.0743C298.773 25.6122 298.505 25.1976 298.142 24.8745C297.779 24.5513 297.335 24.3317 296.856 24.2389C296.358 24.1721 295.85 24.2139 295.37 24.3614C294.889 24.5089 294.447 24.7586 294.074 25.0931C293.238 25.7493 292.47 26.5082 291.675 27.2161C289.837 28.8503 287.987 30.4715 286.125 32.0795C285.216 32.8627 286.541 34.1685 287.445 33.3896L287.446 33.388Z" fill="#211715"/>
<path d="M282.603 32.0649C284.566 30.262 286.636 28.5748 288.649 26.8267C289.558 26.0369 290.477 24.9261 291.642 24.5196C292.161 24.3382 292.666 24.415 292.88 24.9596C293.055 25.407 292.805 25.9474 292.568 26.3561C291.965 27.3898 293.58 28.3247 294.181 27.291C294.868 26.1134 295.082 24.7118 294.205 23.572C293.149 22.201 291.336 22.4565 290.013 23.2698C288.991 23.897 288.132 24.8211 287.23 25.6031C286.248 26.455 285.257 27.2968 284.268 28.1425C283.264 29.0025 282.257 29.8609 281.284 30.7549C280.4 31.5655 281.723 32.8743 282.604 32.0649H282.603Z" fill="#211715"/>
<path d="M284.795 33.3274C286.839 35.2724 288.396 37.6169 289.939 39.9548C290.068 40.1629 290.273 40.3137 290.511 40.3756C290.749 40.4375 291.002 40.4058 291.217 40.2872C291.429 40.1615 291.582 39.9584 291.645 39.7214C291.708 39.4845 291.674 39.2327 291.552 39.02C289.925 36.5554 288.27 34.067 286.116 32.0174C285.94 31.846 285.703 31.7504 285.457 31.7514C285.211 31.7523 284.975 31.8499 284.801 32.0227C284.626 32.1955 284.528 32.4296 284.527 32.6739C284.526 32.9183 284.622 33.1532 284.795 33.3274Z" fill="#211715"/>
<path d="M141.267 49.233L141.399 49.3873C143.764 46.5353 146.319 43.662 148.917 40.9242C148.608 40.5876 148.302 40.2494 148.001 39.9055C147.781 38.4924 147.291 36.6188 146.959 35.2351C146.512 33.3738 146.053 31.4805 145.068 29.8355C144.343 28.6231 143.295 27.4551 141.887 27.6538C141.631 27.7165 141.401 27.8574 141.23 28.0568C141.097 28.2182 141.003 28.4075 140.954 28.6103C140.906 28.8131 140.905 29.0242 140.951 29.2275C141.256 30.5785 141.467 31.2791 141.803 32.5084L140.612 31.4118C138.728 29.6753 134.88 26.5125 132.996 24.7775C132.541 24.3477 132.017 23.9965 131.446 23.7384C131.151 23.5881 130.826 23.5084 130.495 23.5056C130.164 23.5028 129.837 23.5769 129.54 23.7222C129.237 23.9202 128.998 24.1997 128.85 24.5279C128.702 24.8561 128.652 25.2193 128.705 25.5749C128.809 26.0101 128.969 26.4299 129.182 26.824L129.36 27.1046C128.982 26.7672 128.609 26.4337 128.243 26.1041C127.519 25.4525 126.801 24.9828 125.87 25.143C125.451 25.2281 125.076 25.4604 124.816 25.7973C124.555 26.1341 124.426 26.5529 124.451 26.9768C124.574 27.7872 124.994 28.5242 125.629 29.0476C125.93 29.3375 126.256 29.644 126.602 29.9621C126.129 29.556 125.582 29.2429 124.991 29.0392C124.63 28.9481 124.249 28.9755 123.905 29.1173C123.56 29.2591 123.272 29.5076 123.082 29.8258C122.955 30.13 122.901 30.4594 122.925 30.7878C122.949 31.1162 123.05 31.4344 123.22 31.7171C123.563 32.2984 123.987 32.8281 124.481 33.2901C125.144 33.9219 125.989 34.6754 126.905 35.4551C126.331 35.1466 125.698 34.9637 125.047 34.9189C124.226 34.8869 123.694 35.2868 123.541 35.7581C123.433 36.0761 123.405 36.4152 123.458 36.7464C123.511 37.0777 123.645 37.3912 123.847 37.6602C124.457 38.4389 125.148 39.1515 125.909 39.7863C127.174 40.8561 128.515 41.8334 129.923 42.7101C132.954 44.5679 134.691 45.6278 137.848 46.3658C138.264 46.4623 140.926 48.8389 141.267 49.233Z" fill="white"/>
<path d="M142.886 35.142C142.903 34.3525 142.878 33.5626 142.812 32.7755C142.659 32.0137 142.465 31.2607 142.229 30.5198C142.125 30.1251 142.027 29.7288 141.934 29.331C141.875 29.0778 141.776 28.8292 141.982 28.6142C142.06 28.532 142.038 28.549 142.177 28.5574C142.298 28.56 142.418 28.5759 142.535 28.6049C142.841 28.7021 143.118 28.8726 143.342 29.1013C144.544 30.2377 145.126 31.9653 145.56 33.5101C146.024 35.1594 146.416 36.8419 146.785 38.5148C146.884 38.9653 146.98 39.4173 147.057 39.8716C147.154 40.4305 147.528 40.7736 147.897 41.1839C148.663 42.0367 149.454 42.8666 150.268 43.6736C151.118 44.5189 152.438 43.2104 151.588 42.3635C150.577 41.3584 149.602 40.3201 148.664 39.2486L148.904 39.6573C148.647 38.0543 148.221 36.4822 147.842 34.905C147.422 33.1604 146.974 31.4041 146.125 29.8077C145.414 28.4687 144.309 27.0023 142.702 26.7514C142.282 26.6592 141.844 26.6891 141.441 26.8374C141.037 26.9857 140.685 27.2463 140.427 27.5878C139.831 28.4254 140.005 29.2955 140.233 30.2238C140.437 31.0629 140.679 31.8912 140.902 32.7254C141.112 33.5132 140.991 34.3349 141.025 35.1413C141.074 36.3293 142.942 36.3355 142.892 35.1413L142.886 35.142Z" fill="#211715"/>
<path d="M126.753 34.3769C125.726 33.9628 124.45 33.7644 123.475 34.4155C122.551 35.0331 122.308 36.2826 122.638 37.2946C122.992 38.3754 123.898 39.1952 124.711 39.9483C125.568 40.7417 126.478 41.4767 127.434 42.1484C129.222 43.4292 131.099 44.5819 133.052 45.5976C133.928 46.0466 134.838 46.4298 135.772 46.744C136.267 46.9092 136.769 47.0528 137.275 47.1786C137.382 47.2105 137.491 47.2363 137.602 47.2558C137.624 47.23 137.461 47.152 137.482 47.2068C137.5 47.2508 137.687 47.335 137.734 47.3682C137.794 47.4098 137.851 47.4535 137.91 47.4971C137.775 47.3956 137.951 47.5287 137.988 47.5596C138.127 47.6705 138.265 47.7827 138.402 47.8962C138.715 48.1563 139.024 48.4215 139.329 48.6917C139.778 49.0637 140.205 49.4623 140.607 49.8852C141.403 50.7811 142.72 49.4664 141.927 48.5751C141.186 47.7974 140.384 47.0792 139.529 46.4271C139.176 46.1046 138.788 45.8211 138.373 45.5818C137.976 45.4248 137.564 45.3054 137.144 45.2251C136.685 45.0965 136.231 44.9502 135.782 44.7863C134.115 44.1105 132.518 43.2732 131.015 42.2866C129.261 41.2537 127.615 40.0513 126.099 38.6969C125.487 38.1322 124.298 37.2688 124.366 36.3239C124.359 36.1898 124.4 36.0575 124.483 35.9514C124.419 36.0097 124.661 35.8796 124.701 35.8688C125.199 35.7321 125.804 35.9784 126.257 36.161C126.496 36.2253 126.75 36.1937 126.966 36.073C127.181 35.9524 127.34 35.7524 127.407 35.5164C127.467 35.2796 127.432 35.0292 127.311 34.8171C127.189 34.6049 126.99 34.4473 126.755 34.3769H126.753Z" fill="#211715"/>
<path d="M126.665 28.857C125.632 28.0958 124.302 27.7607 123.143 28.464C121.836 29.258 121.733 30.9394 122.414 32.1846C123.034 33.3178 124.058 34.189 125.012 35.0378C125.979 35.8988 126.968 36.7351 127.979 37.5467C129.1 38.4515 130.24 39.3362 131.422 40.1618C131.636 40.2837 131.89 40.3172 132.129 40.2551C132.368 40.1929 132.573 40.0401 132.699 39.8295C132.819 39.6161 132.851 39.3651 132.789 39.1289C132.726 38.8926 132.574 38.6895 132.364 38.5619C130.222 37.0426 128.173 35.3973 126.228 33.6347C125.779 33.2333 125.323 32.8323 124.906 32.3996C124.489 31.9669 123.938 31.3833 123.858 30.7583C123.834 30.6695 123.828 30.5765 123.842 30.4853C123.856 30.3942 123.889 30.307 123.939 30.2293C123.989 30.1516 124.055 30.0852 124.132 30.0343C124.21 29.9834 124.297 29.9492 124.389 29.9339C124.849 29.8262 125.347 30.1801 125.723 30.4569C125.937 30.5792 126.191 30.6129 126.43 30.5507C126.669 30.4885 126.874 30.3354 127 30.1245C127.119 29.9111 127.151 29.6602 127.089 29.4241C127.026 29.188 126.875 28.9849 126.665 28.857Z" fill="#211715"/>
<path d="M136.428 32.0758C134.771 30.6463 133.124 29.2053 131.488 27.7527C130.667 27.0255 129.849 26.2953 129.033 25.5622C128.289 24.8956 127.495 24.2884 126.463 24.1958C125.979 24.1527 125.492 24.2399 125.054 24.4483C124.616 24.6566 124.242 24.9784 123.973 25.3796C123.703 25.805 123.551 26.2932 123.531 26.7954C123.511 27.2975 123.625 27.796 123.86 28.2409C124.249 29.0681 124.955 29.693 125.613 30.3091C126.301 30.9524 126.999 31.5846 127.707 32.2058C129.319 33.6299 130.963 35.0174 132.639 36.3683C132.818 36.5356 133.054 36.6287 133.299 36.6287C133.545 36.6287 133.781 36.5356 133.96 36.3683C134.133 36.1937 134.23 35.9584 134.23 35.7133C134.23 35.4682 134.133 35.233 133.96 35.0583C131.407 33.0064 128.902 30.8757 126.532 28.6196C126.046 28.1564 125.437 27.6214 125.385 26.9077C125.379 26.7871 125.4 26.6666 125.446 26.5546C125.491 26.4426 125.561 26.3418 125.65 26.2591C125.738 26.1764 125.844 26.1137 125.96 26.0754C126.075 26.0371 126.198 26.0242 126.319 26.0373C127.033 26.1072 127.602 26.7734 128.1 27.2212C128.809 27.8586 129.52 28.4931 130.233 29.1249C131.849 30.5561 133.475 31.9772 135.11 33.3881C136.013 34.1667 137.339 32.8616 136.43 32.0781L136.428 32.0758Z" fill="#211715"/>
<path d="M141.272 30.7549C139.457 29.0882 137.549 27.521 135.683 25.9119C134.788 25.1399 133.934 24.278 132.984 23.5704C131.789 22.6827 130.01 22.0813 128.732 23.1659C127.453 24.2506 127.6 25.9613 128.375 27.291C128.977 28.3227 130.593 27.391 129.988 26.3561C129.75 25.9497 129.495 25.4058 129.677 24.9596C129.895 24.4169 130.392 24.3366 130.914 24.5196C132.078 24.9264 132.998 26.0365 133.909 26.8266C135.922 28.5748 137.994 30.262 139.956 32.0649C140.837 32.8755 142.16 31.567 141.276 30.7549H141.272Z" fill="#211715"/>
<path d="M136.439 32.0174C134.285 34.067 132.629 36.5555 131.003 39.02C130.878 39.2322 130.843 39.4849 130.906 39.7226C130.968 39.9602 131.124 40.1634 131.338 40.2874C131.552 40.4114 131.806 40.446 132.046 40.3836C132.285 40.3213 132.49 40.167 132.615 39.9549C134.158 37.6169 135.715 35.2724 137.759 33.3274C137.846 33.2413 137.915 33.139 137.962 33.0265C138.009 32.9139 138.033 32.7933 138.032 32.6716C138.032 32.5498 138.008 32.4293 137.961 32.3168C137.914 32.2044 137.845 32.1022 137.758 32.0162C137.671 31.9302 137.568 31.862 137.455 31.8155C137.341 31.769 137.22 31.7451 137.097 31.7452C136.975 31.7453 136.853 31.7694 136.74 31.8161C136.626 31.8628 136.523 31.9312 136.437 32.0174H136.439Z" fill="#211715"/>
<path d="M188.606 42.1542C188.247 31.4164 191.094 23.6291 195.582 19.3662C198.287 16.7963 204.384 13.2954 211.233 13.2954C214.643 13.2426 218.027 13.8864 221.176 15.1867L224.234 16.7206C225.559 17.4953 226.032 18.1596 227.396 19.465C230.819 22.7436 233.201 28.6419 233.581 33.9238C233.691 35.4477 233.942 39.4122 233.7 42.1562C233.821 51.2238 235.506 56.2988 236.376 58.7969C237.06 60.6146 237.417 62.5371 237.432 64.4771C237.463 67.8712 233.212 72.266 228.325 70.5268L193.446 71.357C188.97 71.4643 186.057 68.1958 186.082 65.1812C186.169 62.6444 186.532 60.1243 187.165 57.6648C188.007 54.6804 188.609 49.4321 188.609 42.1546" fill="#A98A75"/>
<path d="M232.765 42.1543C232.835 46.9791 233.325 51.8472 234.659 56.4992C235.143 58.1875 235.826 59.8229 236.193 61.5425C236.333 62.1971 236.424 62.861 236.466 63.5288C236.518 64.0671 236.51 64.6095 236.442 65.1461C236.257 66.0547 235.848 66.9035 235.251 67.6164C233.614 69.6236 231.057 70.4878 228.573 69.6329C227.435 69.2415 226.946 71.0305 228.076 71.4196C229.329 71.8379 230.669 71.9274 231.966 71.6793C233.264 71.4313 234.474 70.8542 235.48 70.0042C236.409 69.2755 237.153 68.3405 237.652 67.2746C238.15 66.2086 238.39 65.0414 238.35 63.8669C238.279 62.3168 238.002 60.7826 237.527 59.3042C237.294 58.5708 237.029 57.8478 236.796 57.1144C236.248 55.3782 235.812 53.6089 235.491 51.8175C234.941 48.6251 234.655 45.3936 234.635 42.1551C234.617 40.9639 232.75 40.9604 232.768 42.1551L232.765 42.1543Z" fill="#211715"/>
<path d="M187.674 42.1543C187.67 46.9019 187.577 51.8063 186.51 56.4459C186.302 57.3545 186.037 58.2469 185.855 59.1621C185.6 60.4494 185.41 61.7521 185.279 63.0575C185.121 64.1404 185.114 65.2398 185.258 66.3245C185.443 67.2853 185.843 68.1923 186.431 68.9778C187.247 70.0462 188.31 70.9042 189.531 71.4791C190.752 72.0541 192.094 72.3293 193.444 72.2815C194.645 72.2634 194.648 70.4106 193.444 70.4288C191.401 70.46 189.36 69.7124 188.078 68.0893C187.538 67.4212 187.184 66.6249 187.049 65.7791C187.014 65.42 187.006 65.0587 187.027 64.6984C187.05 64.1009 187.099 63.5045 187.161 62.9101C187.283 61.7471 187.463 60.5887 187.698 59.4427C187.875 58.5843 188.126 57.7463 188.321 56.8925C188.723 55.0292 189.003 53.1422 189.161 51.2432C189.446 48.2228 189.538 45.1858 189.54 42.1535C189.54 40.9612 187.673 40.9593 187.673 42.1535L187.674 42.1543Z" fill="#211715"/>
<path d="M186.899 121.105C186.899 112.312 186.457 98.8337 186.369 96.6486C186.291 94.7326 186.068 92.2097 184.64 90.4948C183.216 88.7904 181.692 87.1698 180.078 85.6414C169.137 76.3776 145.377 57.3151 140.174 50.8815C143.065 47.303 146.3 43.6426 149.583 40.2228C149.649 40.156 149.738 40.1151 149.833 40.1074C149.927 40.0997 150.021 40.1257 150.098 40.1807C156.932 45.3047 177.98 61.6239 183.294 64.8419C185.111 65.942 191.382 68.2166 192.942 68.637C195.393 69.2966 198.68 70.169 197.507 69.9304C199.341 73.4974 205.222 77.2029 211.29 77.255C218.352 77.3156 223.243 73.0218 225.182 70.4342C225.182 70.4342 225.237 70.3597 225.315 70.2581L225.754 69.6838C226.726 69.4097 228.291 68.9925 229.611 68.637C231.172 68.2166 237.443 65.942 239.259 64.8419C244.573 61.6239 265.621 45.3047 272.455 40.1807C272.532 40.1257 272.626 40.0997 272.721 40.1074C272.815 40.1151 272.904 40.156 272.971 40.2228C276.253 43.6426 279.489 47.303 282.379 50.8815C277.179 57.3151 253.418 76.3776 242.479 85.6414C240.864 87.1698 239.341 88.7904 237.916 90.4948C236.489 92.2101 236.263 94.7326 236.187 96.6486C236.099 98.8337 235.657 112.312 235.657 121.105H186.899Z" fill="#F4B3B3"/>
<path d="M281.948 49.8879C282.772 49.0175 283.672 48.2208 284.637 47.5071C284.663 47.4867 284.783 47.3971 284.646 47.4998C284.704 47.4562 284.762 47.4126 284.822 47.3709C284.896 47.3294 284.968 47.2827 285.036 47.2312C285.109 47.1605 285.202 47.2435 284.93 47.2659C284.994 47.255 285.057 47.2395 285.119 47.2196C285.434 47.1424 285.747 47.0613 286.058 46.9714C287.021 46.69 287.961 46.3348 288.868 45.9091C290.804 44.9639 292.661 43.8682 294.422 42.6321C295.388 41.9984 296.312 41.3021 297.186 40.5478C298.063 39.8431 298.846 39.0293 299.514 38.1264C300.175 37.126 300.334 35.5669 299.397 34.6672C298.429 33.7362 296.946 33.913 295.8 34.3758C295.566 34.4475 295.368 34.6053 295.247 34.8171C295.125 35.0289 295.09 35.2786 295.148 35.5152C295.216 35.7513 295.374 35.9517 295.589 36.0729C295.804 36.1941 296.058 36.2263 296.297 36.1625C296.724 35.9553 297.192 35.846 297.667 35.8429C297.798 35.847 297.925 35.8835 298.038 35.9491C298.105 35.9911 298.103 35.9877 298.133 36.0741C298.42 36.894 297.562 37.637 297.041 38.1465C295.564 39.5447 293.949 40.7915 292.22 41.8678C290.688 42.9045 289.066 43.8037 287.373 44.5547C286.533 44.8982 285.667 45.1781 284.784 45.3919C284.252 45.5378 283.761 45.8038 283.35 46.1693C282.372 46.8903 281.461 47.6959 280.626 48.5767C279.834 49.4676 281.15 50.783 281.947 49.8868L281.948 49.8879Z" fill="#211715"/>
<path d="M236.589 121.105C236.589 114.392 236.768 107.677 236.974 100.967C237.037 98.9047 236.989 96.7752 237.265 94.7268C237.362 93.8596 237.587 93.0114 237.935 92.2101C238.358 91.4134 238.894 90.6815 239.528 90.0374C240.77 88.5754 242.118 87.2055 243.56 85.9386C247.997 82.1922 252.486 78.5064 256.952 74.7943C261.953 70.636 266.946 66.4673 271.849 62.1948C275.451 59.0567 279.161 55.9144 282.347 52.3498C282.585 52.0838 282.818 51.8133 283.043 51.5365C283.209 51.3582 283.301 51.1243 283.301 50.8815C283.301 50.6387 283.209 50.4048 283.043 50.2265C280.685 47.3107 278.228 44.4778 275.672 41.7278C275.023 41.0287 274.392 40.2896 273.698 39.6345C273.443 39.372 273.095 39.2186 272.728 39.207C272.361 39.1954 272.003 39.3265 271.732 39.5724C271.128 40.0263 270.525 40.4819 269.923 40.9392C266.458 43.5678 262.997 46.203 259.542 48.845C255.629 51.8206 251.711 54.7892 247.759 57.7135C244.948 59.794 242.144 61.9277 239.184 63.7986C237.563 64.823 235.76 65.4688 233.978 66.145C231.878 66.946 229.739 67.6407 227.568 68.2267C226.85 68.4197 226.132 68.6127 225.416 68.813C224.26 69.1345 224.751 70.9228 225.912 70.5994C228.184 69.9671 230.451 69.3939 232.672 68.5976C234.889 67.853 237.056 66.9704 239.161 65.9551C240.278 65.3406 241.352 64.6507 242.374 63.8905C243.902 62.8267 245.41 61.7328 246.911 60.632C250.763 57.8085 254.575 54.9297 258.38 52.0437C261.994 49.3021 265.603 46.554 269.207 43.7994C269.91 43.2644 270.613 42.7302 271.317 42.1967L272.212 41.5197C272.348 41.4168 272.484 41.3138 272.62 41.2109C272.684 41.1691 272.744 41.1234 272.802 41.0743C272.82 41.0577 272.868 41.0388 272.878 41.0175C272.998 40.9421 272.933 40.9347 272.684 40.9951C272.434 40.9488 272.374 40.9762 272.504 41.0774C272.543 41.2152 272.842 41.4321 272.951 41.5463C273.121 41.7265 273.291 41.9066 273.46 42.0867C273.8 42.447 274.139 42.8097 274.476 43.1748C275.109 43.8596 275.737 44.5491 276.359 45.2433C277.593 46.6221 278.805 48.0205 279.994 49.4387C280.575 50.1334 281.151 50.8329 281.72 51.5369V50.2268C280.541 51.6256 279.274 52.9498 277.928 54.1917C276.016 56.0233 274.044 57.7938 272.057 59.5446C267.201 63.8241 262.238 67.9831 257.264 72.1279C252.617 75.9986 247.944 79.8384 243.312 83.7276C242.098 84.7359 240.942 85.8098 239.847 86.9445C238.464 88.3923 236.882 89.8957 236.108 91.7693C235.16 94.0637 235.245 96.6614 235.166 99.1031C234.952 105.626 234.78 112.157 234.731 118.685C234.725 119.493 234.722 120.3 234.721 121.107C234.721 122.3 236.589 122.301 236.589 121.107V121.105Z" fill="#211715"/>
<path d="M187.833 121.105C187.833 114.34 187.652 107.573 187.444 100.81C187.378 98.6627 187.405 96.4676 187.105 94.3366C186.983 93.3766 186.73 92.4376 186.353 91.5451C185.947 90.6894 185.411 89.9005 184.764 89.206C183.486 87.6599 182.093 86.21 180.599 84.8683C176.187 81.074 171.651 77.4144 167.178 73.695C162.122 69.4939 157.076 65.2805 152.12 60.9647C150.022 59.1374 147.938 57.292 145.903 55.3957C144.399 53.9941 142.901 52.5725 141.531 51.0398C141.292 50.7737 141.061 50.5026 140.835 50.2265V51.5365C143.115 48.7178 145.488 45.9761 147.954 43.3115C148.584 42.6286 149.22 41.951 149.86 41.2789C149.901 41.2357 150.036 41.1341 150.052 41.0782L150.116 41.0114L149.628 40.9805C149.625 40.9875 149.818 41.1233 149.831 41.133L150.233 41.4356C150.843 41.8954 151.453 42.3566 152.061 42.819C155.435 45.3804 158.804 47.947 162.17 50.5187C165.946 53.3901 169.729 56.2549 173.541 59.0799C176.342 61.1554 179.138 63.2617 182.064 65.1627C183.531 66.0567 185.084 66.8039 186.699 67.3934C188.606 68.1542 190.544 68.9103 192.521 69.4808C193.185 69.6738 193.857 69.8425 194.525 70.0212C195.686 70.3338 196.182 68.5471 195.022 68.2348C192.888 67.6609 190.82 66.9908 188.753 66.2103C186.964 65.5341 185.135 64.898 183.502 63.8789C180.676 62.115 178.007 60.0831 175.332 58.1076C171.478 55.2625 167.657 52.3718 163.843 49.4738C160.365 46.8319 156.891 44.1855 153.419 41.5348C152.785 41.0531 152.151 40.5721 151.515 40.092C151.243 39.8858 150.973 39.6747 150.696 39.4744C150.45 39.2845 150.146 39.1821 149.834 39.1837C149.294 39.1918 148.95 39.5369 148.603 39.9005C146.062 42.5636 143.607 45.3058 141.241 48.1271C140.659 48.8219 140.084 49.5213 139.514 50.2253C139.348 50.4037 139.256 50.6375 139.256 50.8804C139.256 51.1232 139.348 51.3571 139.514 51.5354C140.684 52.9227 141.939 54.2365 143.274 55.469C145.154 57.2712 147.092 59.0135 149.046 60.737C153.877 64.9991 158.816 69.14 163.766 73.2643C168.391 77.1176 173.042 80.9408 177.654 84.8092C178.785 85.758 179.886 86.7098 180.919 87.7663C181.66 88.5238 182.38 89.3006 183.08 90.0965C183.732 90.755 184.273 91.5137 184.681 92.3433C185.58 94.4605 185.451 96.9242 185.525 99.1861C185.737 105.682 185.908 112.182 185.957 118.682C185.963 119.49 185.966 120.297 185.966 121.104C185.966 122.296 187.834 122.298 187.834 121.104L187.833 121.105Z" fill="#211715"/>
<path d="M221.424 14.2917C217.92 12.8829 214.153 12.2335 210.376 12.3872C206.464 12.595 202.655 13.7035 199.25 15.6249C196.729 16.9744 194.535 18.8522 192.82 21.1279C191.06 23.6053 189.77 26.3801 189.013 29.3163C187.927 33.506 187.476 37.8328 187.676 42.1543C187.714 43.3435 189.582 43.349 189.543 42.1543C189.335 35.6485 190.139 28.6211 193.765 23.027C195.145 20.9212 196.982 19.1484 199.142 17.8385C202.131 15.9563 205.506 14.7613 209.02 14.3411C213.073 13.9397 217.164 14.5363 220.929 16.078C221.167 16.1417 221.422 16.1095 221.637 15.9884C221.852 15.8673 222.01 15.6671 222.077 15.4311C222.137 15.1944 222.103 14.944 221.981 14.7318C221.86 14.5196 221.661 14.362 221.425 14.2917H221.424Z" fill="#211715"/>
<path d="M234.632 42.1543C234.766 40.2288 234.775 38.2968 234.658 36.3702C234.609 34.6558 234.447 32.9464 234.175 31.2528C233.503 27.2199 231.832 23.4158 229.312 20.1818C228.607 19.3616 227.86 18.5787 227.072 17.8362C226.368 17.1004 225.573 16.4561 224.706 15.9186C223.672 15.3045 222.733 16.9056 223.763 17.5185C224.437 17.9332 225.056 18.4305 225.605 18.9988C226.27 19.6615 226.966 20.3015 227.585 21.0079C228.782 22.4229 229.768 24.0018 230.511 25.6957C231.309 27.4612 231.9 29.3116 232.273 31.2107C232.554 32.7614 232.719 34.3304 232.769 35.9051C232.909 37.9859 232.907 40.0737 232.765 42.1543C232.767 42.3994 232.866 42.6339 233.041 42.8072C233.216 42.9805 233.452 43.0787 233.699 43.0807C233.945 43.0758 234.18 42.9767 234.354 42.804C234.528 42.6313 234.628 42.3985 234.633 42.1543H234.632Z" fill="#211715"/>
<path d="M227.829 40.493C225.162 38.9583 222.326 35.1586 221.333 33.3109C220.537 31.831 219.633 28.7886 218.992 26.3453C215.724 30.5642 211.574 33.5552 206.419 35.0162C205.194 35.3775 206.349 31.5218 206.566 29.7004C202.559 33.607 198.09 37.7807 194.211 40.6404C193.945 40.3942 193.633 40.2031 193.292 40.0782C192.951 39.9534 192.588 39.8973 192.225 39.9132C191.766 39.8984 191.311 40.0075 190.91 40.2288C190.508 40.4502 190.175 40.7755 189.945 41.17C189.17 42.5028 189.203 44.9593 189.723 46.4789C190.091 47.5551 190.695 49.2017 192.149 50.382C192.485 50.6618 192.879 50.8642 193.304 50.9745C193.728 51.0849 194.172 51.1004 194.603 51.0201C195.397 53.5928 196.697 55.9842 198.426 58.0563C200.301 60.2831 202.477 62.008 204.842 62.9143C204.51 64.368 204.125 66.1952 203.826 66.8225C203.07 68.4116 200.748 69.6873 197.648 70.1987C199.635 73.6807 205.374 77.2044 211.29 77.255C218.352 77.3156 223.243 73.0219 225.182 70.4342C225.182 70.4342 225.26 70.3319 225.358 70.2026C222.245 69.6939 219.911 68.4158 219.149 66.8221C218.841 66.1725 218.504 64.2402 218.12 62.7194C222.855 61.2592 226.777 54.6275 227.428 52.8767C227.544 52.5266 227.888 51.8179 228.163 51.0212L228.323 51.0479C228.736 51.1023 229.156 51.0712 229.556 50.9566C229.956 50.842 230.328 50.6464 230.648 50.382C232.102 49.2017 232.705 47.5551 233.074 46.4789C233.593 44.9593 233.626 42.5032 232.852 41.17C232.622 40.7755 232.288 40.4502 231.887 40.2288C231.486 40.0075 231.031 39.8984 230.572 39.9132C230.172 39.8936 229.772 39.9631 229.402 40.1167C229.033 40.2703 228.702 40.5042 228.436 40.801C228.228 40.7091 228.026 40.6063 227.829 40.493Z" fill="white"/>
<path d="M218.146 26.8023C218.817 29.3236 219.469 32.0444 220.828 34.3036C222.051 36.3486 223.575 38.2012 225.348 39.8005C226.316 40.7301 227.471 41.4463 228.738 41.9022C229.885 42.2646 230.377 40.4763 229.234 40.1154C227.321 39.5114 225.63 37.6034 224.346 36.044C223.048 34.528 222.03 32.7968 221.339 30.93C220.801 29.4135 220.361 27.8634 219.947 26.3098C219.64 25.158 217.838 25.6466 218.146 26.8023Z" fill="#211715"/>
<path d="M218.316 25.7112C216.48 28.1207 214.212 30.1736 211.626 31.7669C210.322 32.5535 208.938 33.2028 207.498 33.7042C207.158 33.8221 206.815 33.9322 206.47 34.0346C206.369 34.0561 206.269 34.0852 206.172 34.1215C206.092 34.1601 206.043 34.0806 206.261 34.1118C206.372 34.1186 206.48 34.1555 206.572 34.2184C206.59 34.2288 206.872 34.4986 206.786 34.384C206.888 34.5206 206.812 34.4998 206.8 34.362C206.79 34.2338 206.812 34.5407 206.808 34.4006C206.808 34.3481 206.802 34.2956 206.801 34.2435C206.799 34.0113 206.812 33.7792 206.84 33.5487C206.968 32.3683 207.342 30.978 207.501 29.7011C207.606 28.8651 206.434 28.5335 205.906 29.045C202.642 32.2247 199.327 35.3698 195.788 38.2496C195.615 38.4242 195.517 38.6595 195.517 38.9047C195.517 39.1498 195.615 39.3851 195.788 39.5597C195.966 39.7284 196.202 39.8225 196.448 39.8225C196.694 39.8225 196.931 39.7284 197.108 39.5597C200.648 36.6798 203.962 33.5352 207.227 30.355L205.632 29.6988C205.617 29.7724 205.605 29.8467 205.598 29.9215C205.572 30.0794 205.544 30.2369 205.515 30.3944C205.455 30.7186 205.39 31.0424 205.327 31.3663C205.193 32.0553 205.066 32.7454 204.983 33.4429C204.856 34.5113 205.022 36.2197 206.558 35.9298C207.344 35.7481 208.113 35.4952 208.853 35.1745C209.677 34.8554 210.483 34.4939 211.269 34.0914C212.812 33.287 214.264 32.3207 215.6 31.2092C217.095 29.9627 218.448 28.5578 219.636 27.0197C219.804 26.8422 219.897 26.608 219.897 26.3646C219.897 26.1213 219.804 25.8871 219.636 25.7096C219.46 25.5367 219.222 25.4397 218.975 25.4397C218.727 25.4397 218.489 25.5367 218.313 25.7096L218.316 25.7112Z" fill="#211715"/>
<path d="M227.583 49.5946C227.452 50.3057 227.231 50.9977 226.926 51.6542C226.817 51.9186 226.699 52.1796 226.596 52.4459C226.567 52.5208 226.54 52.596 226.512 52.6717C226.449 52.8442 226.475 52.7609 226.5 52.7068C226.156 53.4467 225.765 54.1645 225.33 54.856C224.109 56.8881 222.555 58.7039 220.732 60.229C219.748 61.0585 218.586 61.6536 217.335 61.9686C216.164 62.2388 216.66 64.024 217.831 63.7554C220.484 63.1459 222.691 61.2206 224.419 59.2192C225.888 57.5745 227.116 55.7323 228.065 53.7471C228.726 52.4361 229.192 51.0376 229.45 49.5946C229.449 49.3492 229.35 49.1143 229.175 48.9408C229 48.7673 228.763 48.6693 228.516 48.6682C228.27 48.6742 228.036 48.7737 227.863 48.9462C227.689 49.1186 227.589 49.3508 227.583 49.5946Z" fill="#211715"/>
<path d="M193.298 49.773C194.54 55.0769 197.897 60.2333 202.743 62.9472C204.036 63.6865 205.454 64.1848 206.927 64.4174C207.166 64.4749 207.417 64.4399 207.631 64.3197C207.844 64.1995 208.003 64.0031 208.076 63.7705C208.14 63.5336 208.107 63.2812 207.985 63.0679C207.863 62.8546 207.661 62.6976 207.424 62.6307C204.192 62.1528 201.519 60.1708 199.413 57.7799C197.295 55.3399 195.814 52.4213 195.099 49.2805C194.826 48.1198 193.026 48.6112 193.298 49.773Z" fill="#211715"/>
<path d="M194.863 39.9761C194.28 39.4597 193.555 39.1284 192.78 39.0252C192.006 38.922 191.218 39.0516 190.519 39.3971C190.031 39.6684 189.609 40.0428 189.283 40.4938C188.957 40.9449 188.736 41.4616 188.634 42.0072C188.36 43.2936 188.351 44.6215 188.607 45.9115C188.862 47.2015 189.378 48.4269 190.123 49.5143C191.199 51.0861 192.733 52.2081 194.722 51.9426C194.96 51.876 195.162 51.7191 195.284 51.5058C195.406 51.2924 195.439 51.04 195.374 50.8031C195.303 50.5698 195.144 50.3725 194.93 50.2522C194.717 50.1318 194.465 50.0974 194.226 50.1562C192.886 50.3349 191.844 48.8747 191.304 47.8657C190.758 46.881 190.419 45.7964 190.308 44.6779C190.225 43.6129 190.24 42.2948 190.905 41.4047C190.786 41.5641 190.96 41.3495 190.976 41.3348C191.012 41.302 191.215 41.1306 191.167 41.1642C191.373 41.023 191.608 40.9268 191.854 40.882C192.148 40.8138 192.454 40.815 192.747 40.8855C193.04 40.9559 193.313 41.0937 193.543 41.2877C194.433 42.0844 195.758 40.7782 194.863 39.9777V39.9761Z" fill="#211715"/>
<path d="M229.256 41.2861C229.485 41.0921 229.758 40.9542 230.051 40.8838C230.344 40.8133 230.65 40.8122 230.944 40.8805C231.191 40.9253 231.425 41.0215 231.631 41.1626C231.583 41.129 231.787 41.3004 231.822 41.3332C231.857 41.366 232.011 41.5606 231.893 41.4031C232.559 42.2909 232.573 43.6117 232.49 44.6763C232.379 45.7944 232.041 46.8785 231.494 47.8626C230.953 48.8712 229.914 50.333 228.572 50.1531C228.334 50.0962 228.082 50.1316 227.869 50.252C227.655 50.3725 227.496 50.5689 227.424 50.8015C227.36 51.0384 227.392 51.2908 227.514 51.504C227.636 51.7173 227.838 51.8743 228.076 51.941C231.286 52.3698 233.142 49.2954 233.993 46.6688C234.401 45.3288 234.494 43.9138 234.265 42.5325C234.209 41.9653 234.038 41.4153 233.762 40.9154C233.486 40.4155 233.111 39.976 232.66 39.6233C231.944 39.1544 231.092 38.9346 230.236 38.9985C229.381 39.0624 228.571 39.4062 227.935 39.9761C227.04 40.7763 228.363 42.0828 229.255 41.2861H229.256Z" fill="#211715"/>
<path d="M224.509 69.7907C224.449 69.8679 224.39 69.949 224.33 70.0273C224.172 70.2335 224.449 69.881 224.281 70.0899C224.193 70.1987 224.105 70.3072 224.014 70.4137C223.774 70.6968 223.525 70.97 223.265 71.2336C222.715 71.7961 222.128 72.3214 221.508 72.8061C220.052 73.9435 218.418 74.8353 216.67 75.4458C214.472 76.1819 212.141 76.4437 209.832 76.2137C207.524 75.9837 205.291 75.2673 203.284 74.1123C201.399 73.0554 199.574 71.6419 198.47 69.7587C197.866 68.7285 196.253 69.6603 196.858 70.6939C197.969 72.5884 199.708 74.0849 201.557 75.2463C203.742 76.6257 206.187 77.5488 208.743 77.959C213.449 78.6621 218.244 77.4851 222.077 74.6862C223.615 73.572 224.979 72.2373 226.122 70.726C226.246 70.5135 226.28 70.2612 226.217 70.0239C226.155 69.7866 226 69.5834 225.787 69.4584C225.572 69.3402 225.32 69.3088 225.082 69.3707C224.844 69.4326 224.639 69.583 224.51 69.7907H224.509Z" fill="#211715"/>
<path d="M197.912 71.0891C199.894 70.7529 201.933 70.0856 203.471 68.7543C204.079 68.2361 204.545 67.5734 204.826 66.8282C205.149 65.8363 205.407 64.8245 205.598 63.7993C205.658 63.5626 205.624 63.3119 205.503 63.0996C205.381 62.8872 205.182 62.7297 204.946 62.6599C204.707 62.5973 204.453 62.6299 204.239 62.7509C204.024 62.8718 203.866 63.0714 203.797 63.3068C203.581 64.2691 203.39 65.2507 203.077 66.1878C203.052 66.26 203.025 66.331 202.999 66.4028C202.929 66.6009 203.089 66.2454 202.988 66.4183C202.902 66.5653 202.819 66.7085 202.726 66.8514C202.62 67.0123 202.829 66.7433 202.687 66.9031C202.635 66.9614 202.585 67.0212 202.531 67.0783C202.411 67.2069 202.283 67.329 202.15 67.4442C202.127 67.4635 201.944 67.6145 202.013 67.56C202.073 67.5129 201.854 67.6758 201.824 67.6963C201.673 67.8013 201.517 67.9001 201.357 67.9935C201.175 68.1 200.989 68.1992 200.8 68.2926C200.619 68.3818 200.421 68.471 200.318 68.513C199.382 68.8795 198.408 69.1442 197.414 69.3024C197.177 69.3694 196.975 69.5264 196.853 69.7396C196.731 69.9528 196.699 70.205 196.762 70.4418C196.833 70.6757 196.992 70.8736 197.206 70.9941C197.42 71.1146 197.672 71.1485 197.911 71.0887L197.912 71.0891Z" fill="#211715"/>
<path d="M217.409 63.7569C217.598 64.7933 217.846 65.8181 218.152 66.8263C218.428 67.5752 218.895 68.2403 219.508 68.7562C221.047 70.0863 223.087 70.7545 225.068 71.0911C225.306 71.1499 225.559 71.1154 225.773 70.9948C225.987 70.8742 226.146 70.6767 226.218 70.443C226.282 70.2062 226.249 69.9539 226.127 69.7408C226.005 69.5276 225.804 69.3705 225.566 69.3036C224.572 69.146 223.599 68.8813 222.663 68.5142C222.554 68.4698 222.4 68.4007 222.225 68.3158C222.02 68.2162 221.819 68.1097 221.623 67.9947C221.463 67.9013 221.308 67.8022 221.156 67.6975C221.083 67.6473 221.01 67.5959 220.94 67.5431C221.08 67.6511 220.856 67.4686 220.83 67.4462C220.696 67.331 220.568 67.2088 220.448 67.0803C220.394 67.0231 220.344 66.9645 220.292 66.905C220.13 66.7232 220.383 67.0525 220.253 66.8533C220.166 66.7209 220.087 66.5877 220.006 66.4515C219.876 66.2346 220.037 66.582 219.979 66.4036C219.956 66.3311 219.929 66.2597 219.906 66.1871C219.604 65.2348 219.433 64.2386 219.212 63.2663C219.146 63.0294 218.988 62.8282 218.772 62.7069C218.557 62.5855 218.302 62.5541 218.063 62.6194C217.825 62.6847 217.622 62.8414 217.499 63.0551C217.377 63.2688 217.345 63.5219 217.411 63.7588L217.409 63.7569Z" fill="#211715"/>
<path d="M211.078 46.9853C211.233 47.5403 211.357 48.1034 211.45 48.672L211.417 48.4258C211.428 48.5025 211.43 48.5802 211.423 48.6574L211.456 48.4111C211.451 48.4467 211.442 48.4818 211.43 48.5157L211.525 48.2945C211.514 48.318 211.502 48.3404 211.488 48.3617L211.633 48.1741C211.617 48.1942 211.598 48.2125 211.578 48.2285L211.767 48.0838C211.724 48.1104 211.679 48.134 211.632 48.1544L211.855 48.061C211.783 48.0921 211.706 48.1141 211.628 48.1266L211.877 48.0938C211.806 48.1019 211.734 48.1019 211.663 48.0938L211.912 48.1266C211.831 48.1158 211.752 48.0961 211.672 48.0853C211.552 48.0469 211.423 48.0413 211.3 48.0691C211.176 48.0743 211.056 48.1122 210.953 48.1787C210.847 48.2401 210.754 48.3216 210.68 48.4186C210.606 48.5155 210.552 48.626 210.521 48.7437C210.489 48.8614 210.482 48.984 210.499 49.1046C210.515 49.2252 210.556 49.3413 210.618 49.4463C210.677 49.5508 210.757 49.6423 210.853 49.7153C210.949 49.7882 211.059 49.8412 211.176 49.8709C211.364 49.896 211.547 49.9435 211.738 49.952C212.029 49.9534 212.316 49.8853 212.574 49.7536C212.739 49.6786 212.885 49.5682 213.001 49.4305C213.118 49.2927 213.202 49.1309 213.247 48.9569C213.307 48.6759 213.304 48.3853 213.239 48.1054C213.146 47.5619 213.02 47.0246 212.879 46.4904C212.847 46.373 212.791 46.2632 212.716 46.1671C212.64 46.071 212.547 45.9906 212.44 45.9305C212.333 45.8704 212.216 45.8317 212.094 45.8167C211.972 45.8018 211.849 45.8107 211.73 45.8431C211.494 45.9125 211.294 46.07 211.173 46.2826C211.051 46.4951 211.017 46.7462 211.078 46.9829V46.9853Z" fill="#211715"/>
<path d="M202.112 42.1914C201.828 43.1069 202.013 45.2129 203.761 45.392C206.072 45.3785 206.195 42.8321 205.417 41.6351C204.78 40.6547 202.908 40.2471 202.112 42.1914Z" fill="#211715"/>
<path d="M220.685 42.1913C220.969 43.1068 220.784 45.2128 219.036 45.3919C216.726 45.3784 216.602 42.832 217.38 41.6347C218.017 40.6547 219.889 40.2471 220.685 42.1913Z" fill="#211715"/>
<path d="M210.307 55.4987C209.93 55.1009 209.603 54.659 209.334 54.1829C209.22 53.9809 209.125 53.7684 209.052 53.5483C209.007 53.4138 208.971 53.2764 208.945 53.1372C208.901 52.8886 209.019 52.8169 208.647 53.1704C208.292 53.5074 208.301 53.4321 208.54 53.4321H209.283H210.543H213.302H214.514H214.732C214.99 53.4321 215.022 53.5178 214.656 53.1619C214.335 52.8493 214.403 52.7644 214.338 53.0403C214.301 53.1991 214.26 53.3567 214.215 53.5132C213.952 54.5569 213.397 55.5058 212.615 56.2506C212.44 56.4246 212.342 56.6606 212.342 56.9065C212.342 57.1524 212.441 57.3881 212.616 57.5618C212.791 57.7355 213.029 57.833 213.277 57.8328C213.525 57.8326 213.762 57.7347 213.938 57.5607C214.934 56.6036 215.647 55.3942 215.999 54.0636C216.228 53.2916 216.482 52.3124 215.646 51.7917C215.166 51.4921 214.531 51.5786 213.985 51.5786L210.592 51.5809H209.049C208.458 51.5809 207.851 51.5307 207.407 52.0055C206.738 52.72 207.155 53.8968 207.499 54.6688C207.875 55.4583 208.377 56.1817 208.988 56.8103C209.074 56.8962 209.177 56.9644 209.291 57.0108C209.404 57.0573 209.526 57.0811 209.648 57.081C209.771 57.0809 209.892 57.0568 210.005 57.0101C210.119 56.9634 210.222 56.8951 210.308 56.8089C210.395 56.7228 210.463 56.6206 210.51 56.5082C210.557 56.3957 210.581 56.2752 210.581 56.1535C210.581 56.0319 210.557 55.9114 210.51 55.7991C210.463 55.6867 210.394 55.5847 210.307 55.4987Z" fill="#211715"/>
</g>
<defs>
<clipPath id="clip0_59_200">
<rect width="185.218" height="122" fill="white"/>
</clipPath>
<clipPath id="clip1_59_200">
<rect width="178.564" height="122" fill="white" transform="translate(122)"/>
</clipPath>
</defs>
</svg>
