<svg width="940" height="277" viewBox="0 0 940 277" fill="none" xmlns="http://www.w3.org/2000/svg">
<rect y="59" width="166" height="160" fill="#FEFFDF"/>
<path d="M50.236 130.008H54.732V131.08H50.236V130.008ZM57.612 128.936C58.796 131.688 61.308 133.88 64.572 134.712C64.3 134.968 63.964 135.432 63.772 135.768C60.444 134.76 57.98 132.36 56.652 129.208L57.612 128.936ZM62.428 129.032L63.452 129.784C62.268 130.728 60.684 131.768 59.484 132.44L58.7 131.784C59.9 131.112 61.5 129.912 62.428 129.032ZM56.46 128.616H57.66V134.904C57.66 135.608 57.516 135.928 56.988 136.104C56.476 136.28 55.628 136.296 54.396 136.296C54.316 135.976 54.156 135.512 53.98 135.176C54.956 135.208 55.852 135.208 56.124 135.192C56.396 135.192 56.46 135.112 56.46 134.888V128.616ZM54.332 130.008H54.556L54.764 129.96L55.516 130.264C54.636 133.016 52.604 134.856 50.348 135.816C50.204 135.528 49.884 135.08 49.628 134.84C51.708 134.088 53.628 132.392 54.332 130.216V130.008ZM52.876 126.376V127.912H61.276V126.376H52.876ZM52.876 123.928V125.464H61.276V123.928H52.876ZM51.692 122.984H62.524V128.872H51.692V122.984ZM56.412 121.48L57.804 121.736C57.404 122.44 56.956 123.16 56.604 123.64L55.5 123.4C55.836 122.84 56.22 122.04 56.412 121.48ZM68.236 124.424H81.132V131.96H79.884V125.608H69.436V132.04H68.236V124.424ZM68.876 129.864H80.604V131.032H68.876V129.864ZM74.028 121.56H75.276V136.264H74.028V121.56ZM85.116 129.08H99.484V130.264H85.116V129.08ZM86.892 123.8H97.82V129.592H96.572V124.968H88.092V129.592H86.892V123.8ZM93.052 129.288C94.028 132.408 96.236 134.424 99.852 135.176C99.58 135.432 99.244 135.928 99.068 136.264C95.324 135.336 93.1 133.096 91.964 129.544L93.052 129.288ZM91.596 121.56H92.812V126.696C92.812 130.392 92.028 134.2 85.644 136.312C85.532 136.008 85.212 135.528 84.988 135.272C90.924 133.336 91.596 129.944 91.596 126.696V121.56ZM110.46 122.216H111.58V128.312C111.58 130.776 111.372 134.136 109.788 136.312C109.596 136.12 109.1 135.816 108.828 135.704C110.332 133.608 110.46 130.632 110.46 128.312V122.216ZM114.028 128.168C114.476 131.4 115.452 134.104 117.42 135.368C117.148 135.608 116.78 136.024 116.604 136.344C114.492 134.824 113.484 131.976 112.988 128.344L114.028 128.168ZM111.052 122.216H116.7V128.776H111.052V127.672H115.596V123.336H111.052V122.216ZM103.884 124.648H108.908V125.608H103.884V124.648ZM103.884 127.064H108.908V128.024H103.884V127.064ZM103.292 129.496H108.748V130.472H103.292V129.496ZM105.884 122.776H106.876V130.024H105.884V122.776ZM106.652 131.272L107.212 131.064C107.628 131.704 108.012 132.568 108.172 133.128L107.564 133.384C107.436 132.808 107.036 131.928 106.652 131.272ZM105.5 131.544L106.108 131.432C106.444 132.232 106.716 133.288 106.78 133.992L106.14 134.136C106.076 133.448 105.804 132.36 105.5 131.544ZM104.316 131.72L104.94 131.64C105.116 132.568 105.228 133.784 105.212 134.568L104.54 134.664C104.572 133.864 104.476 132.664 104.316 131.72ZM103.18 131.384L103.932 131.528C103.836 133 103.676 134.568 103.036 135.448L102.348 135.064C102.94 134.232 103.116 132.792 103.18 131.384ZM103.292 122.216H109.212V123.224H104.332V129.976H103.292V122.216ZM108.316 129.496H109.356C109.356 129.496 109.356 129.832 109.34 129.976C109.132 133.944 108.956 135.368 108.556 135.848C108.3 136.136 108.06 136.248 107.676 136.28C107.356 136.312 106.78 136.296 106.188 136.264C106.172 135.976 106.076 135.56 105.916 135.288C106.492 135.336 106.988 135.352 107.212 135.352C107.42 135.352 107.564 135.32 107.66 135.176C107.964 134.84 108.156 133.48 108.316 129.688V129.496Z" fill="#333333"/>
<path d="M16.22 148.92C16.22 145.8 17.484 143.272 19.404 141.32L20.364 141.816C18.508 143.72 17.372 146.072 17.372 148.92C17.372 151.784 18.508 154.136 20.364 156.04L19.404 156.536C17.484 154.584 16.22 152.056 16.22 148.92ZM32.204 142.072H33.372V154.28H32.204V142.072ZM28.332 145.88H29.468V155.976H28.332V145.88ZM36.236 145.88H37.404V155.88H36.236V145.88ZM28.94 153.512H36.876V154.632H28.94V153.512ZM27.116 141.608L28.252 141.96C27.164 144.664 25.452 147.352 23.676 149.128C23.564 148.856 23.228 148.232 23.004 147.944C24.62 146.424 26.188 144.04 27.116 141.608ZM25.452 145.736L26.588 144.6L26.604 144.616V156.248H25.452V145.736ZM43.74 154.408H52.748V155.576H43.74V154.408ZM43.196 149.464H53.388V156.248H52.124V150.616H44.412V156.28H43.196V149.464ZM46.412 141.512L47.724 141.976C46.764 143.832 45.42 146.04 44.348 147.448L43.308 147C44.364 145.576 45.676 143.224 46.412 141.512ZM50.252 144.104L51.196 143.4C52.828 144.696 54.716 146.584 55.548 147.912L54.524 148.712C53.724 147.384 51.9 145.448 50.252 144.104ZM41.308 146.472C44.348 146.392 49.276 146.184 53.836 145.976L53.772 147.128C49.276 147.368 44.444 147.576 41.388 147.704L41.308 146.472ZM65.212 141.496H66.476V144.488H65.212V141.496ZM65.228 144.872H66.46V156.328H65.228V144.872ZM58.7 143.784H73.116V144.952H58.7V143.784ZM60.348 147.144H70.86V148.312H61.548V154.296H60.348V147.144ZM70.396 147.144H71.628V152.776C71.628 153.464 71.468 153.832 70.94 154.04C70.38 154.232 69.484 154.248 68.108 154.248C68.06 153.88 67.868 153.4 67.692 153.064C68.78 153.096 69.756 153.096 70.028 153.08C70.316 153.064 70.396 153 70.396 152.776V147.144ZM80.46 147.304V149.16H86.652V147.304H80.46ZM79.34 146.376H87.82V150.088H79.34V146.376ZM82.716 149.64L84.06 149.768C83.772 150.568 83.436 151.4 83.164 151.976L82.124 151.784C82.348 151.176 82.604 150.264 82.716 149.64ZM78.204 151.368H89.1V156.28H87.9V152.44H79.356V156.296H78.204V151.368ZM78.812 154.632H88.428V155.688H78.812V154.632ZM76.972 144.104H90.22V147.256H89.052V145.144H78.076V147.256H76.972V144.104ZM88.012 141.704L89.26 142.136C88.604 143.016 87.836 143.992 87.212 144.632L86.252 144.216C86.844 143.544 87.596 142.472 88.012 141.704ZM77.916 142.232L78.94 141.784C79.516 142.424 80.172 143.304 80.444 143.896L79.372 144.392C79.1 143.8 78.492 142.888 77.916 142.232ZM81.916 141.912L82.956 141.544C83.452 142.216 84.012 143.176 84.22 143.8L83.132 144.216C82.924 143.592 82.396 142.616 81.916 141.912ZM103.26 141.56H104.396V152.712H103.26V141.56ZM98.22 148.168L106.844 144.536L107.292 145.56L98.684 149.224L98.22 148.168ZM99.948 143.064H101.1V153.768C101.1 154.648 101.292 154.84 102.364 154.84C102.892 154.84 105.58 154.84 106.22 154.84C107.164 154.84 107.324 154.408 107.436 152.568C107.724 152.76 108.188 152.952 108.524 153.016C108.332 155.224 107.948 155.928 106.268 155.928C105.836 155.928 102.732 155.928 102.332 155.928C100.492 155.928 99.948 155.496 99.948 153.752V143.064ZM106.636 144.696H106.492L106.78 144.456L106.988 144.28L107.836 144.6L107.788 144.824C107.788 147.832 107.74 150.232 107.628 150.856C107.532 151.496 107.228 151.8 106.764 151.912C106.332 152.024 105.692 152.024 105.26 152.024C105.212 151.704 105.116 151.256 104.972 150.984C105.34 151 105.868 151 106.044 151C106.284 151 106.444 150.936 106.524 150.568C106.62 150.152 106.636 147.88 106.636 144.696ZM93.756 145.416H98.844V146.552H93.756V145.416ZM95.82 141.752H96.956V152.136H95.82V141.752ZM93.612 152.552C94.908 152.072 96.876 151.24 98.78 150.424L99.036 151.496C97.324 152.312 95.516 153.128 94.092 153.736L93.612 152.552ZM111.58 142.744H125.82V143.96H111.58V142.744ZM117.74 143.704H119.004V156.264H117.74V143.704ZM118.444 147.496L119.228 146.568C121.148 147.496 123.676 148.952 124.956 149.912L124.108 151C122.876 150.008 120.38 148.488 118.444 147.496ZM135.196 148.696H143.644V149.832H135.196V148.696ZM140.028 149.304C140.588 152.04 141.82 154.296 143.868 155.336C143.596 155.56 143.228 156.008 143.052 156.312C140.892 155.048 139.644 152.616 139.02 149.512L140.028 149.304ZM136.524 142.168L137.66 142.36C137.276 144.568 136.62 146.648 135.692 148.024C135.468 147.864 134.972 147.576 134.684 147.448C135.612 146.168 136.204 144.2 136.524 142.168ZM138.764 141.688H139.916V146.68C139.916 149.8 139.516 153.736 134.844 156.344C134.684 156.088 134.3 155.672 134.012 155.448C138.588 153.112 138.764 149.48 138.764 146.664V141.688ZM136.668 144.552H143.276V145.672H136.38L136.668 144.552ZM130.028 145.528H134.524V146.568H130.028V145.528ZM129.164 148.264H135.02V149.32H129.164V148.264ZM129.532 150.376L130.364 150.168C130.684 151.144 130.94 152.376 131.004 153.208L130.108 153.432C130.092 152.6 129.836 151.352 129.532 150.376ZM129.02 154.68C130.572 154.408 132.924 153.928 135.164 153.448L135.26 154.456C133.148 154.936 130.924 155.432 129.26 155.784L129.02 154.68ZM133.98 150.024L134.908 150.264C134.636 151.24 134.364 152.392 134.092 153.144L133.308 152.92C133.548 152.136 133.836 150.872 133.98 150.024ZM131.676 145.912H132.732V154.632L131.676 154.808V145.912ZM131.628 141.576H132.252V141.832H132.604V142.136C131.98 143.368 130.94 145.064 129.356 146.456C129.18 146.216 128.828 145.864 128.604 145.704C130.06 144.488 131.084 142.856 131.628 141.576ZM131.852 141.576H132.732C133.692 142.44 134.844 143.672 135.404 144.488L134.604 145.384C134.076 144.568 132.988 143.224 132.076 142.424H131.852V141.576ZM150.764 148.92C150.764 152.056 149.5 154.584 147.58 156.536L146.62 156.04C148.476 154.136 149.612 151.784 149.612 148.92C149.612 146.072 148.476 143.72 146.62 141.816L147.58 141.32C149.5 143.272 150.764 145.8 150.764 148.92Z" fill="#333333"/>
<rect x="876" width="64" height="277" fill="#EF5A5A" fill-opacity="0.8"/>
<path d="M911.552 28.92C911.968 29.544 912.656 30.648 913.024 31.4L911.904 31.896C911.472 30.984 911.008 30.136 910.464 29.368L911.552 28.92ZM913.68 28.152C914.144 28.744 914.816 29.848 915.2 30.568L914.096 31.064C913.632 30.152 913.152 29.368 912.592 28.616L913.68 28.152ZM904.656 28.648C905.648 29.192 907.456 30.376 908.208 30.92L907.264 32.312C906.448 31.704 904.736 30.584 903.744 30.024L904.656 28.648ZM902.016 40.056C903.776 39.752 905.744 39.16 907.408 38.216C910.096 36.696 912.256 34.568 913.536 32.296L914.512 33.992C913.088 36.168 910.848 38.216 908.272 39.72C906.656 40.648 904.4 41.416 902.96 41.704L902.016 40.056ZM902.224 32.264C903.232 32.808 905.056 33.944 905.792 34.472L904.88 35.88C904.032 35.288 902.336 34.184 901.312 33.656L902.224 32.264ZM903.488 51.12C903.84 51.152 904.784 51.184 905.28 51.184C906.352 51.184 910.096 51.184 911.408 51.184C911.776 51.184 912.256 51.168 912.496 51.152C912.48 51.344 912.48 51.76 912.48 52.08C912.48 52.688 912.48 58.752 912.48 60.08C912.48 60.336 912.496 60.784 912.496 61.04H910.912C910.928 60.816 910.928 60.336 910.928 60.016C910.928 58.352 910.928 53.104 910.928 52.608C910.352 52.608 906.336 52.608 905.28 52.608C904.784 52.608 903.824 52.64 903.488 52.656V51.12ZM903.872 54.896C904.224 54.928 904.864 54.944 905.44 54.944C906.24 54.944 911.232 54.944 911.68 54.944V56.384C911.216 56.384 906.24 56.384 905.44 56.384C904.864 56.384 904.208 56.4 903.872 56.416V54.896ZM903.312 58.848C903.568 58.88 904.096 58.912 904.656 58.912C905.6 58.912 910.992 58.912 911.696 58.912V60.384C910.864 60.384 905.6 60.384 904.656 60.384C904.176 60.384 903.568 60.416 903.312 60.432V58.848ZM912.112 65.624C912.496 66.2 913.056 67.144 913.36 67.736L912.272 68.2C911.952 67.544 911.44 66.68 911.04 66.072L912.112 65.624ZM914.24 65.224C914.64 65.784 915.216 66.744 915.536 67.336L914.464 67.8C914.112 67.144 913.6 66.232 913.168 65.656L914.24 65.224ZM913.648 68.568C913.52 68.824 913.424 69.176 913.36 69.496C912.992 71.128 912.256 73.672 910.96 75.368C909.504 77.272 907.504 78.792 904.608 79.72L903.232 78.2C906.352 77.448 908.16 76.072 909.488 74.392C910.576 73 911.264 70.952 911.472 69.48C910.544 69.48 904.656 69.48 903.616 69.48C902.944 69.48 902.304 69.512 901.888 69.544V67.752C902.336 67.816 903.088 67.88 903.616 67.88C904.656 67.88 910.576 67.88 911.376 67.88C911.648 67.88 912.048 67.864 912.4 67.768L913.648 68.568ZM911.712 90.784C911.712 94.912 910.768 97.2 907.024 98.864L905.68 97.584C908.672 96.496 910.08 95.12 910.08 90.864V86.816C910.08 86.192 910.032 85.664 909.984 85.44H911.808C911.776 85.664 911.712 86.192 911.712 86.816V90.784ZM905.936 85.552C905.904 85.776 905.856 86.256 905.856 86.832V92.64C905.856 93.28 905.904 93.968 905.92 94.192H904.144C904.176 93.968 904.224 93.296 904.224 92.64V86.832C904.224 86.448 904.192 85.968 904.144 85.552H905.936ZM901.008 88.56C901.2 88.592 901.936 88.688 902.656 88.688H913.216C913.984 88.688 914.496 88.64 914.816 88.592V90.272C914.56 90.256 913.984 90.224 913.216 90.224H902.656C901.92 90.224 901.264 90.272 901.008 90.288V88.56ZM912.208 105.112C912.208 105.64 912.64 106.056 913.168 106.056C913.696 106.056 914.128 105.64 914.128 105.112C914.128 104.584 913.696 104.152 913.168 104.152C912.64 104.152 912.208 104.584 912.208 105.112ZM911.376 105.112C911.376 104.12 912.176 103.304 913.168 103.304C914.16 103.304 914.96 104.12 914.96 105.112C914.96 106.104 914.16 106.904 913.168 106.904C912.176 106.904 911.376 106.104 911.376 105.112ZM908.896 104.552C908.864 104.776 908.784 105.432 908.784 105.8C908.784 106.696 908.784 108.04 908.784 108.888C908.784 110.184 908.784 115.192 908.784 116.424C908.784 117.304 908.32 117.8 907.28 117.8C906.528 117.8 905.584 117.752 904.864 117.672L904.72 116.088C905.408 116.216 906.128 116.28 906.528 116.28C906.96 116.28 907.136 116.104 907.136 115.688C907.152 114.936 907.152 109.64 907.152 108.888C907.152 108.344 907.152 106.696 907.152 105.8C907.152 105.416 907.088 104.808 907.024 104.552H908.896ZM901.424 107.176C901.888 107.24 902.352 107.288 902.864 107.288C903.824 107.288 911.76 107.288 912.8 107.288C913.2 107.288 913.808 107.24 914.224 107.192V108.856C913.76 108.824 913.216 108.808 912.816 108.808C911.776 108.808 903.888 108.808 902.864 108.808C902.384 108.808 901.856 108.824 901.424 108.872V107.176ZM905.28 111.192C904.576 112.584 903.088 114.648 902.192 115.608L900.816 114.68C901.888 113.672 903.216 111.832 903.856 110.52L905.28 111.192ZM912.048 110.504C912.88 111.528 914.16 113.528 914.8 114.696L913.312 115.512C912.656 114.2 911.488 112.232 910.672 111.24L912.048 110.504ZM908.336 121.92V137.92H907.648V121.92H908.336ZM905.216 153.544C905.216 152.504 905.216 145.624 905.216 144.28C905.216 143.784 905.184 143.032 905.088 142.504H907.056C906.992 143.032 906.928 143.72 906.928 144.28C906.928 146.456 906.944 152.6 906.944 153.544C906.944 154.024 906.992 155 907.056 155.592H905.088C905.184 155.016 905.216 154.152 905.216 153.544ZM906.56 146.68C908.688 147.288 912.016 148.52 913.696 149.352L912.992 151.08C911.168 150.12 908.304 149.032 906.56 148.472V146.68Z" fill="white"/>
<path d="M893.732 181V176.552L890.18 169.224H892.164L893.54 172.36C893.908 173.224 894.244 174.056 894.628 174.952H894.692C895.092 174.056 895.46 173.224 895.828 172.36L897.188 169.224H899.124L895.588 176.552V181H893.732ZM906.391 181.224C903.351 181.224 901.255 178.872 901.255 175.064C901.255 171.272 903.351 169.016 906.391 169.016C909.415 169.016 911.511 171.272 911.511 175.064C911.511 178.872 909.415 181.224 906.391 181.224ZM906.391 179.592C908.343 179.592 909.607 177.816 909.607 175.064C909.607 172.312 908.343 170.632 906.391 170.632C904.423 170.632 903.175 172.312 903.175 175.064C903.175 177.816 904.423 179.592 906.391 179.592ZM919.894 181.224C917.27 181.224 915.51 179.784 915.51 175.96V169.224H917.366V176.072C917.366 178.728 918.422 179.592 919.894 179.592C921.366 179.592 922.47 178.728 922.47 176.072V169.224H924.262V175.96C924.262 179.784 922.502 181.224 919.894 181.224Z" fill="white"/>
<path d="M901.072 204.896H905.52V206.224H901.072V204.896ZM908.656 203.952C909.824 206.624 912.272 208.704 915.552 209.504C915.216 209.824 914.784 210.432 914.56 210.848C911.184 209.824 908.784 207.472 907.44 204.304L908.656 203.952ZM913.232 203.904L914.528 204.864C913.28 205.824 911.696 206.864 910.48 207.52L909.504 206.688C910.704 206.016 912.304 204.816 913.232 203.904ZM907.2 203.616H908.72V209.728C908.72 210.528 908.56 210.912 907.968 211.136C907.392 211.344 906.512 211.36 905.28 211.36C905.2 210.96 904.992 210.368 904.784 209.968C905.68 210 906.592 210 906.864 209.984C907.136 209.984 907.2 209.92 907.2 209.696V203.616ZM905.008 204.896H905.28L905.536 204.832L906.496 205.216C905.632 208 903.664 209.888 901.344 210.896C901.168 210.528 900.768 209.952 900.464 209.648C902.528 208.896 904.352 207.216 905.008 205.136V204.896ZM904.016 201.424V202.704H911.968V201.424H904.016ZM904.016 199.056V200.32H911.968V199.056H904.016ZM902.512 197.888H913.536V203.888H902.512V197.888ZM907.136 196.4L908.928 196.688C908.48 197.44 908 198.176 907.632 198.672L906.208 198.384C906.56 197.808 906.944 196.992 907.136 196.4ZM901.472 218.328H914.512V226.072H912.928V219.816H902.992V226.152H901.472V218.328ZM902.272 223.72H913.824V225.208H902.272V223.72ZM907.152 215.496H908.752V230.344H907.152V215.496ZM900.768 241.952H915.232V243.44H900.768V241.952ZM902.496 236.672H913.6V242.56H912.016V238.144H904.016V242.56H902.496V236.672ZM908.88 242.192C909.856 245.232 912 247.2 915.632 247.92C915.296 248.24 914.864 248.88 914.64 249.296C910.816 248.368 908.672 246.112 907.488 242.512L908.88 242.192ZM907.136 234.496H908.672V239.696C908.672 243.424 907.856 247.344 901.44 249.36C901.296 248.976 900.88 248.352 900.608 248.032C906.448 246.24 907.136 242.832 907.136 239.68V234.496Z" fill="white"/>
<path d="M166 80L876 80.0001" stroke="#333333" stroke-opacity="0.6"/>
<path d="M502.564 63.986H511.426V64.924H502.564V63.986ZM503.292 61.102H510.754V62.012H503.292V61.102ZM507.058 67.024H510.838V67.948H507.058V67.024ZM506.582 64.812H507.59V71.168L506.582 70.818V64.812ZM506.484 59.226H507.478V64.546H506.484V59.226ZM504.328 67.934C505.14 70.496 506.918 70.958 509.116 70.972C509.466 70.972 511.146 70.972 511.622 70.958C511.482 71.21 511.342 71.672 511.286 71.938H509.032C506.414 71.938 504.538 71.308 503.516 68.242L504.328 67.934ZM503.642 66.058L504.664 66.142C504.454 68.774 503.852 70.804 502.536 72.162C502.382 71.98 501.962 71.658 501.724 71.504C502.984 70.328 503.474 68.41 503.642 66.058ZM501.738 62.096L502.69 62.446C501.724 64.126 500.254 65.82 498.882 66.94C498.784 66.716 498.476 66.226 498.28 66.002C499.582 65.05 500.912 63.58 501.738 62.096ZM501.416 59.254L502.354 59.618C501.542 60.794 500.226 62.11 499.036 62.95C498.896 62.74 498.63 62.376 498.448 62.18C499.54 61.438 500.8 60.248 501.416 59.254ZM500.478 64.7L501.332 63.846L501.472 63.916V72.134H500.478V64.7ZM519.882 64.574H520.932V67.906C520.932 68.452 520.82 68.732 520.372 68.886C519.938 69.04 519.252 69.054 518.174 69.054C518.118 68.76 517.964 68.368 517.824 68.088C518.65 68.116 519.392 68.116 519.616 68.102C519.812 68.102 519.882 68.046 519.882 67.878V64.574ZM517.054 65.106L518.132 65.442C517.39 66.646 516.242 67.878 515.22 68.648C515.01 68.466 514.548 68.13 514.282 67.976C515.332 67.276 516.396 66.198 517.054 65.106ZM522.948 65.638L523.788 65.106C524.838 65.946 526.056 67.164 526.602 68.032L525.706 68.634C525.188 67.78 523.984 66.52 522.948 65.638ZM523.284 67.094L524.348 67.416C523.172 70.412 520.4 71.7 515.85 72.232C515.766 71.91 515.556 71.49 515.332 71.224C519.644 70.832 522.206 69.74 523.284 67.094ZM514.17 63.664H526.644V64.672H514.17V63.664ZM520.498 60.892H525.286V61.844H520.498V60.892ZM519.868 59.254H520.946V64.196H519.868V59.254ZM516.242 60.36H517.306V64.042H516.242V60.36ZM535.954 65.26L536.808 64.826C537.606 65.806 538.446 67.15 538.782 68.046L537.858 68.536C537.55 67.654 536.738 66.268 535.954 65.26ZM536.038 61.774H541.358V62.768H536.038V61.774ZM540.938 61.774H541.946C541.946 61.774 541.946 62.18 541.946 62.32C541.708 68.634 541.484 70.818 540.91 71.518C540.588 71.924 540.28 72.036 539.748 72.092C539.272 72.134 538.418 72.12 537.578 72.064C537.55 71.756 537.424 71.308 537.242 71.014C538.166 71.098 539.034 71.098 539.384 71.098C539.664 71.098 539.846 71.07 539.986 70.888C540.476 70.384 540.714 68.06 540.938 62.012V61.774ZM536.556 59.24L537.634 59.478C537.018 61.508 536.052 63.468 534.988 64.742C534.778 64.574 534.316 64.266 534.05 64.126C535.142 62.95 536.038 61.102 536.556 59.24ZM531.53 59.254L532.468 59.604C531.936 60.64 531.264 61.886 530.718 62.642L529.99 62.334C530.522 61.522 531.166 60.178 531.53 59.254ZM533.224 60.85L534.134 61.242C533.154 62.81 531.782 64.826 530.718 66.03L530.046 65.68C531.124 64.434 532.454 62.334 533.224 60.85ZM529.318 62.194L529.85 61.494C530.634 62.152 531.516 63.076 531.894 63.692L531.334 64.49C530.956 63.832 530.074 62.866 529.318 62.194ZM532.776 64.098L533.56 63.762C534.148 64.658 534.75 65.862 534.96 66.632L534.12 67.024C533.91 66.24 533.35 65.022 532.776 64.098ZM529.29 65.512C530.55 65.47 532.412 65.4 534.26 65.316V66.17C532.482 66.282 530.704 66.38 529.374 66.45L529.29 65.512ZM533.126 67.444L533.924 67.192C534.33 68.046 534.722 69.152 534.876 69.88L534.022 70.174C533.896 69.446 533.518 68.312 533.126 67.444ZM530.06 67.248L530.97 67.416C530.774 68.732 530.424 70.09 529.976 70.986C529.794 70.874 529.374 70.678 529.15 70.58C529.612 69.726 529.892 68.48 530.06 67.248ZM531.67 65.918H532.622V72.162H531.67V65.918ZM548.106 71.196C546.216 71.196 544.83 70.048 544.83 68.466C544.83 67.08 545.782 66.128 546.72 65.624V65.568C545.964 65.05 545.32 64.266 545.32 63.188C545.32 61.634 546.538 60.598 548.148 60.598C549.898 60.598 550.962 61.718 550.962 63.286C550.962 64.378 550.206 65.288 549.59 65.764V65.834C550.486 66.352 551.326 67.136 551.326 68.536C551.326 70.034 550.024 71.196 548.106 71.196ZM548.806 65.442C549.506 64.826 549.87 64.126 549.87 63.356C549.87 62.348 549.226 61.536 548.12 61.536C547.182 61.536 546.496 62.208 546.496 63.188C546.496 64.42 547.602 64.966 548.806 65.442ZM548.134 70.23C549.31 70.23 550.094 69.516 550.094 68.494C550.094 67.122 548.834 66.604 547.392 66.016C546.552 66.548 545.978 67.36 545.978 68.34C545.978 69.432 546.902 70.23 548.134 70.23ZM555.984 64.546H563.992V65.568H555.984V64.546ZM563.642 64.546H564.734C564.734 64.546 564.72 64.91 564.706 65.05C564.51 69.39 564.314 71.014 563.81 71.546C563.53 71.896 563.222 71.994 562.732 72.036C562.27 72.078 561.388 72.064 560.506 72.022C560.492 71.7 560.352 71.266 560.156 70.958C561.08 71.042 561.948 71.056 562.284 71.056C562.564 71.056 562.732 71.028 562.872 70.874C563.25 70.496 563.46 68.9 563.642 64.742V64.546ZM557.902 59.534L559.008 59.856C558 62.222 556.348 64.308 554.584 65.652C554.388 65.428 553.94 65.022 553.674 64.826C555.466 63.622 557.02 61.69 557.902 59.534ZM562.788 59.506C563.698 61.382 565.504 63.51 567.03 64.588C566.75 64.812 566.358 65.232 566.148 65.526C564.594 64.266 562.83 61.998 561.78 59.912L562.788 59.506ZM558.938 64.826H560.058C559.736 67.892 559.008 70.79 555.102 72.19C554.976 71.924 554.668 71.504 554.43 71.28C558.098 70.062 558.658 67.472 558.938 64.826Z" fill="#333333" fill-opacity="0.6"/>
<path d="M481.616 61.712L484.821 59.384C485.181 59.1207 485.618 58.9855 486.064 59C486.608 59.0136 487.133 59.1961 487.568 59.5223C488.003 59.8485 488.326 60.3021 488.491 60.82C488.677 61.403 488.847 61.797 489.001 62.001C489.466 62.622 490.07 63.126 490.764 63.473C491.458 63.82 492.223 64.0004 492.999 64V66C491.967 66.001 490.947 65.7731 490.013 65.3327C489.079 64.8922 488.254 64.2503 487.598 63.453L486.9 67.409L488.961 69.138L491.184 75.246L489.304 75.93L487.265 70.326L483.875 67.481C483.597 67.2565 483.384 66.9614 483.258 66.6265C483.132 66.2916 483.099 65.9292 483.161 65.577L483.67 62.692L482.993 63.184L480.866 66.112L479.248 64.936L481.599 61.7L481.616 61.712ZM487.499 58.5C486.969 58.5 486.46 58.2893 486.085 57.9142C485.71 57.5391 485.499 57.0304 485.499 56.5C485.499 55.9696 485.71 55.4609 486.085 55.0858C486.46 54.7107 486.969 54.5 487.499 54.5C488.029 54.5 488.538 54.7107 488.913 55.0858C489.288 55.4609 489.499 55.9696 489.499 56.5C489.499 57.0304 489.288 57.5391 488.913 57.9142C488.538 58.2893 488.029 58.5 487.499 58.5ZM484.529 71.681L481.315 75.511L479.783 74.226L482.758 70.68L483.504 68.5L485.295 70L484.529 71.681Z" fill="#333333" fill-opacity="0.6"/>
<path d="M651 173H876" stroke="#333333" stroke-opacity="0.6"/>
<path d="M707.616 154.712L710.821 152.384C711.181 152.121 711.618 151.986 712.064 152C712.608 152.014 713.133 152.196 713.568 152.522C714.003 152.848 714.326 153.302 714.491 153.82C714.677 154.403 714.847 154.797 715.001 155.001C715.466 155.622 716.07 156.126 716.764 156.473C717.458 156.82 718.223 157 718.999 157V159C717.967 159.001 716.947 158.773 716.013 158.333C715.079 157.892 714.254 157.25 713.598 156.453L712.9 160.409L714.961 162.138L717.184 168.246L715.304 168.93L713.265 163.326L709.875 160.481C709.597 160.256 709.384 159.961 709.258 159.627C709.132 159.292 709.099 158.929 709.161 158.577L709.67 155.692L708.993 156.184L706.866 159.112L705.248 157.936L707.599 154.7L707.616 154.712ZM713.499 151.5C712.969 151.5 712.46 151.289 712.085 150.914C711.71 150.539 711.499 150.03 711.499 149.5C711.499 148.97 711.71 148.461 712.085 148.086C712.46 147.711 712.969 147.5 713.499 147.5C714.029 147.5 714.538 147.711 714.913 148.086C715.288 148.461 715.499 148.97 715.499 149.5C715.499 150.03 715.288 150.539 714.913 150.914C714.538 151.289 714.029 151.5 713.499 151.5ZM710.529 164.681L707.315 168.511L705.783 167.226L708.758 163.68L709.504 161.5L711.295 163L710.529 164.681Z" fill="#333333" fill-opacity="0.6"/>
<path d="M732.881 156.986H741.743V157.924H732.881V156.986ZM733.609 154.102H741.071V155.012H733.609V154.102ZM737.375 160.024H741.155V160.948H737.375V160.024ZM736.899 157.812H737.907V164.168L736.899 163.818V157.812ZM736.801 152.226H737.795V157.546H736.801V152.226ZM734.645 160.934C735.457 163.496 737.235 163.958 739.433 163.972C739.783 163.972 741.463 163.972 741.939 163.958C741.799 164.21 741.659 164.672 741.603 164.938H739.349C736.731 164.938 734.855 164.308 733.833 161.242L734.645 160.934ZM733.959 159.058L734.981 159.142C734.771 161.774 734.169 163.804 732.853 165.162C732.699 164.98 732.279 164.658 732.041 164.504C733.301 163.328 733.791 161.41 733.959 159.058ZM732.055 155.096L733.007 155.446C732.041 157.126 730.571 158.82 729.199 159.94C729.101 159.716 728.793 159.226 728.597 159.002C729.899 158.05 731.229 156.58 732.055 155.096ZM731.733 152.254L732.671 152.618C731.859 153.794 730.543 155.11 729.353 155.95C729.213 155.74 728.947 155.376 728.765 155.18C729.857 154.438 731.117 153.248 731.733 152.254ZM730.795 157.7L731.649 156.846L731.789 156.916V165.134H730.795V157.7ZM750.199 157.574H751.249V160.906C751.249 161.452 751.137 161.732 750.689 161.886C750.255 162.04 749.569 162.054 748.491 162.054C748.435 161.76 748.281 161.368 748.141 161.088C748.967 161.116 749.709 161.116 749.933 161.102C750.129 161.102 750.199 161.046 750.199 160.878V157.574ZM747.371 158.106L748.449 158.442C747.707 159.646 746.559 160.878 745.537 161.648C745.327 161.466 744.865 161.13 744.599 160.976C745.649 160.276 746.713 159.198 747.371 158.106ZM753.265 158.638L754.105 158.106C755.155 158.946 756.373 160.164 756.919 161.032L756.023 161.634C755.505 160.78 754.301 159.52 753.265 158.638ZM753.601 160.094L754.665 160.416C753.489 163.412 750.717 164.7 746.167 165.232C746.083 164.91 745.873 164.49 745.649 164.224C749.961 163.832 752.523 162.74 753.601 160.094ZM744.487 156.664H756.961V157.672H744.487V156.664ZM750.815 153.892H755.603V154.844H750.815V153.892ZM750.185 152.254H751.263V157.196H750.185V152.254ZM746.559 153.36H747.623V157.042H746.559V153.36ZM766.271 158.26L767.125 157.826C767.923 158.806 768.763 160.15 769.099 161.046L768.175 161.536C767.867 160.654 767.055 159.268 766.271 158.26ZM766.355 154.774H771.675V155.768H766.355V154.774ZM771.255 154.774H772.263C772.263 154.774 772.263 155.18 772.263 155.32C772.025 161.634 771.801 163.818 771.227 164.518C770.905 164.924 770.597 165.036 770.065 165.092C769.589 165.134 768.735 165.12 767.895 165.064C767.867 164.756 767.741 164.308 767.559 164.014C768.483 164.098 769.351 164.098 769.701 164.098C769.981 164.098 770.163 164.07 770.303 163.888C770.793 163.384 771.031 161.06 771.255 155.012V154.774ZM766.873 152.24L767.951 152.478C767.335 154.508 766.369 156.468 765.305 157.742C765.095 157.574 764.633 157.266 764.367 157.126C765.459 155.95 766.355 154.102 766.873 152.24ZM761.847 152.254L762.785 152.604C762.253 153.64 761.581 154.886 761.035 155.642L760.307 155.334C760.839 154.522 761.483 153.178 761.847 152.254ZM763.541 153.85L764.451 154.242C763.471 155.81 762.099 157.826 761.035 159.03L760.363 158.68C761.441 157.434 762.771 155.334 763.541 153.85ZM759.635 155.194L760.167 154.494C760.951 155.152 761.833 156.076 762.211 156.692L761.651 157.49C761.273 156.832 760.391 155.866 759.635 155.194ZM763.093 157.098L763.877 156.762C764.465 157.658 765.067 158.862 765.277 159.632L764.437 160.024C764.227 159.24 763.667 158.022 763.093 157.098ZM759.607 158.512C760.867 158.47 762.729 158.4 764.577 158.316V159.17C762.799 159.282 761.021 159.38 759.691 159.45L759.607 158.512ZM763.443 160.444L764.241 160.192C764.647 161.046 765.039 162.152 765.193 162.88L764.339 163.174C764.213 162.446 763.835 161.312 763.443 160.444ZM760.377 160.248L761.287 160.416C761.091 161.732 760.741 163.09 760.293 163.986C760.111 163.874 759.691 163.678 759.467 163.58C759.929 162.726 760.209 161.48 760.377 160.248ZM761.987 158.918H762.939V165.162H761.987V158.918ZM775.749 164V162.936H778.031V155.292H776.197V154.466C777.121 154.312 777.779 154.074 778.325 153.738H779.305V162.936H781.377V164H775.749ZM786.301 157.546H794.309V158.568H786.301V157.546ZM793.959 157.546H795.051C795.051 157.546 795.037 157.91 795.023 158.05C794.827 162.39 794.631 164.014 794.127 164.546C793.847 164.896 793.539 164.994 793.049 165.036C792.587 165.078 791.705 165.064 790.823 165.022C790.809 164.7 790.669 164.266 790.473 163.958C791.397 164.042 792.265 164.056 792.601 164.056C792.881 164.056 793.049 164.028 793.189 163.874C793.567 163.496 793.777 161.9 793.959 157.742V157.546ZM788.219 152.534L789.325 152.856C788.317 155.222 786.665 157.308 784.901 158.652C784.705 158.428 784.257 158.022 783.991 157.826C785.783 156.622 787.337 154.69 788.219 152.534ZM793.105 152.506C794.015 154.382 795.821 156.51 797.347 157.588C797.067 157.812 796.675 158.232 796.465 158.526C794.911 157.266 793.147 154.998 792.097 152.912L793.105 152.506ZM789.255 157.826H790.375C790.053 160.892 789.325 163.79 785.419 165.19C785.293 164.924 784.985 164.504 784.747 164.28C788.415 163.062 788.975 160.472 789.255 157.826Z" fill="#333333" fill-opacity="0.6"/>
<path fill-rule="evenodd" clip-rule="evenodd" d="M587 168H166V167H587V168Z" fill="#333333" fill-opacity="0.6"/>
<path fill-rule="evenodd" clip-rule="evenodd" d="M293.93 144C294.39 144 294.844 144.106 295.257 144.309C295.669 144.512 296.03 144.808 296.31 145.173L296.426 145.336L297.496 146.941C297.783 147.371 297.954 147.868 297.992 148.384L298 148.606V155C298 155.505 297.81 155.991 297.467 156.361C297.123 156.731 296.653 156.957 296.15 156.995L296 157H295.83C295.628 157.57 295.259 158.066 294.771 158.423C294.282 158.78 293.697 158.981 293.093 158.999C292.488 159.018 291.892 158.853 291.383 158.527C290.873 158.201 290.474 157.729 290.238 157.172L290.17 157H283.829C283.627 157.57 283.258 158.066 282.77 158.422C282.281 158.779 281.697 158.979 281.092 158.998C280.488 159.017 279.892 158.852 279.383 158.526C278.873 158.201 278.474 157.728 278.238 157.172L278.17 157H278C277.495 157 277.009 156.81 276.639 156.467C276.269 156.123 276.043 155.653 276.005 155.15L276 155V147C276 146.235 276.292 145.498 276.817 144.942C277.342 144.385 278.06 144.05 278.824 144.005L279 144H293.93ZM293 155C292.735 155 292.48 155.105 292.293 155.293C292.105 155.48 292 155.735 292 156C292 156.265 292.105 156.52 292.293 156.707C292.48 156.895 292.735 157 293 157C293.265 157 293.52 156.895 293.707 156.707C293.895 156.52 294 156.265 294 156C294 155.735 293.895 155.48 293.707 155.293C293.52 155.105 293.265 155 293 155ZM281 155C280.735 155 280.48 155.105 280.293 155.293C280.105 155.48 280 155.735 280 156C280 156.265 280.105 156.52 280.293 156.707C280.48 156.895 280.735 157 281 157C281.265 157 281.52 156.895 281.707 156.707C281.895 156.52 282 156.265 282 156C282 155.735 281.895 155.48 281.707 155.293C281.52 155.105 281.265 155 281 155ZM293.93 146H293V150H296V148.606C296 148.408 295.942 148.215 295.832 148.051L294.762 146.445C294.671 146.308 294.547 146.196 294.402 146.118C294.257 146.041 294.095 146 293.93 146ZM281 146H279C278.755 146 278.519 146.09 278.336 146.253C278.153 146.415 278.036 146.64 278.007 146.883L278 147V149H281V146ZM286 146H283V149H286V146ZM291 146H288V149H291V146Z" fill="#333333" fill-opacity="0.6"/>
<path d="M308.092 142.644H315.508V143.484H308.092V142.644ZM312.976 141.684H313.864V146.868C313.864 147.396 313.756 147.66 313.372 147.804C312.988 147.948 312.352 147.96 311.404 147.96C311.368 147.708 311.236 147.336 311.104 147.072C311.848 147.096 312.52 147.096 312.736 147.084C312.928 147.072 312.976 147.036 312.976 146.856V141.684ZM314.188 136.92L314.812 137.616C313.096 138.132 310.468 138.54 308.236 138.768C308.2 138.564 308.092 138.24 307.984 138.048C310.18 137.796 312.736 137.376 314.188 136.92ZM308.416 139.392L309.172 139.14C309.556 139.824 309.94 140.736 310.06 141.324L309.256 141.612C309.136 141.036 308.788 140.088 308.416 139.392ZM310.768 138.924L311.572 138.732C311.86 139.44 312.112 140.328 312.16 140.892L311.308 141.12C311.272 140.544 311.044 139.632 310.768 138.924ZM309.052 144.372L309.796 143.976C310.42 144.588 311.104 145.476 311.404 146.076L310.624 146.532C310.36 145.92 309.676 145.008 309.052 144.372ZM306.724 136.932H307.588V147.96H306.724V136.932ZM304.3 144.78C304.972 144.432 305.98 143.832 306.964 143.232L307.252 143.988C306.4 144.588 305.512 145.2 304.756 145.704L304.3 144.78ZM304.432 138.804L305.164 138.456C305.74 139.212 306.328 140.232 306.556 140.892L305.776 141.312C305.56 140.628 304.984 139.584 304.432 138.804ZM314.476 138.588L315.292 138.996C314.644 140.004 313.768 141.156 313.084 141.936L312.388 141.54C313.06 140.76 313.972 139.524 314.476 138.588ZM318.148 142.284H323.296V143.016H318.148V142.284ZM324.136 141.708H328.192V142.488H324.136V141.708ZM324.7 136.968L325.504 137.136C325.144 138.672 324.508 140.136 323.74 141.096C323.608 140.964 323.26 140.712 323.068 140.592C323.836 139.716 324.4 138.372 324.7 136.968ZM318.148 137.376H323.188V138.096H318.988V142.572H318.148V137.376ZM318.58 138.984H322.96V141.336H318.58V140.688H322.192V139.632H318.58V138.984ZM320.416 137.628H321.172V139.332H320.416V137.628ZM320.416 140.892H321.172V142.584H320.416V140.892ZM324.58 138.744H328.492V139.512H324.268L324.58 138.744ZM317.74 146.832H328.66V147.624H317.74V146.832ZM319.084 143.868H327.364V147.264H326.476V144.6H324.832V147.264H324.004V144.6H322.372V147.264H321.532V144.6H319.924V147.264H319.084V143.868ZM332.908 140.328H340.012V141.108H332.908V140.328ZM337.528 138.792H338.38V145.032C338.38 145.524 338.26 145.764 337.9 145.884C337.564 146.016 336.976 146.016 336.04 146.016C336.004 145.8 335.884 145.464 335.776 145.236C336.46 145.26 337.096 145.26 337.288 145.248C337.468 145.236 337.528 145.188 337.528 145.02V138.792ZM333.808 142.056L334.468 141.708C335.092 142.356 335.704 143.268 335.944 143.892L335.248 144.276C335.02 143.652 334.42 142.716 333.808 142.056ZM331.384 137.484H341.44V147.96H340.516V138.348H332.284V147.96H331.384V137.484ZM331.912 146.556H340.888V147.42H331.912V146.556ZM351.22 136.92H352.072V145.284H351.22V136.92ZM347.44 141.876L353.908 139.152L354.244 139.92L347.788 142.668L347.44 141.876ZM348.736 138.048H349.6V146.076C349.6 146.736 349.744 146.88 350.548 146.88C350.944 146.88 352.96 146.88 353.44 146.88C354.148 146.88 354.268 146.556 354.352 145.176C354.568 145.32 354.916 145.464 355.168 145.512C355.024 147.168 354.736 147.696 353.476 147.696C353.152 147.696 350.824 147.696 350.524 147.696C349.144 147.696 348.736 147.372 348.736 146.064V138.048ZM353.752 139.272H353.644L353.86 139.092L354.016 138.96L354.652 139.2L354.616 139.368C354.616 141.624 354.58 143.424 354.496 143.892C354.424 144.372 354.196 144.6 353.848 144.684C353.524 144.768 353.044 144.768 352.72 144.768C352.684 144.528 352.612 144.192 352.504 143.988C352.78 144 353.176 144 353.308 144C353.488 144 353.608 143.952 353.668 143.676C353.74 143.364 353.752 141.66 353.752 139.272ZM344.092 139.812H347.908V140.664H344.092V139.812ZM345.64 137.064H346.492V144.852H345.64V137.064ZM343.984 145.164C344.956 144.804 346.432 144.18 347.86 143.568L348.052 144.372C346.768 144.984 345.412 145.596 344.344 146.052L343.984 145.164ZM367.516 142.932L368.236 143.46C367.588 144.048 366.772 144.72 366.148 145.14L365.596 144.708C366.196 144.252 367.036 143.472 367.516 142.932ZM364.54 136.908L365.536 137.1C365.248 137.676 364.912 138.3 364.636 138.696L363.88 138.504C364.108 138.06 364.396 137.388 364.54 136.908ZM362.908 140.628V141.672H366.952V140.628H362.908ZM362.908 138.888V139.932H366.952V138.888H362.908ZM362.08 138.168H367.816V142.404H362.08V138.168ZM364.504 142.008H365.32V147C365.32 147.456 365.236 147.684 364.936 147.816C364.624 147.948 364.144 147.96 363.388 147.96C363.364 147.732 363.256 147.396 363.148 147.168C363.688 147.18 364.168 147.18 364.312 147.168C364.468 147.168 364.504 147.132 364.504 147V142.008ZM361.624 143.448H363.628V144.204H361.624V143.448ZM363.424 143.448H363.58L363.736 143.424L364.228 143.628C363.796 145.536 362.848 146.796 361.648 147.48C361.54 147.288 361.264 146.988 361.084 146.856C362.212 146.268 363.076 145.164 363.424 143.592V143.448ZM365.212 142.068C365.548 143.76 366.412 145.824 368.512 146.736C368.344 146.904 368.08 147.24 367.96 147.468C365.908 146.412 365.044 144.24 364.72 142.68L365.212 142.068ZM359.152 136.932L359.944 137.232C359.488 138.12 358.924 139.2 358.456 139.86L357.844 139.596C358.276 138.9 358.84 137.724 359.152 136.932ZM360.496 138.3L361.252 138.648C360.424 139.98 359.26 141.684 358.36 142.728L357.808 142.416C358.708 141.348 359.836 139.56 360.496 138.3ZM357.232 139.428L357.712 138.852C358.36 139.44 359.092 140.244 359.404 140.796L358.888 141.468C358.588 140.892 357.868 140.04 357.232 139.428ZM360.028 141.048L360.676 140.772C361.18 141.564 361.672 142.596 361.84 143.256L361.132 143.58C360.976 142.908 360.508 141.84 360.028 141.048ZM357.136 142.236C358.18 142.188 359.68 142.116 361.192 142.032V142.788C359.764 142.884 358.324 142.968 357.232 143.04L357.136 142.236ZM360.34 143.952L361 143.748C361.312 144.432 361.564 145.32 361.636 145.896L360.94 146.112C360.88 145.536 360.628 144.636 360.34 143.952ZM357.856 143.784L358.612 143.916C358.456 145.056 358.18 146.208 357.796 146.976C357.652 146.88 357.292 146.724 357.112 146.64C357.496 145.908 357.724 144.828 357.856 143.784ZM359.128 142.584H359.92V147.96H359.128V142.584ZM380.608 138.588L372.988 142.488V142.512L380.608 146.412L380.224 147.144L371.26 142.524V142.476L380.224 137.856L380.608 138.588ZM387.292 142.644H394.708V143.484H387.292V142.644ZM392.176 141.684H393.064V146.868C393.064 147.396 392.956 147.66 392.572 147.804C392.188 147.948 391.552 147.96 390.604 147.96C390.568 147.708 390.436 147.336 390.304 147.072C391.048 147.096 391.72 147.096 391.936 147.084C392.128 147.072 392.176 147.036 392.176 146.856V141.684ZM393.388 136.92L394.012 137.616C392.296 138.132 389.668 138.54 387.436 138.768C387.4 138.564 387.292 138.24 387.184 138.048C389.38 137.796 391.936 137.376 393.388 136.92ZM387.616 139.392L388.372 139.14C388.756 139.824 389.14 140.736 389.26 141.324L388.456 141.612C388.336 141.036 387.988 140.088 387.616 139.392ZM389.968 138.924L390.772 138.732C391.06 139.44 391.312 140.328 391.36 140.892L390.508 141.12C390.472 140.544 390.244 139.632 389.968 138.924ZM388.252 144.372L388.996 143.976C389.62 144.588 390.304 145.476 390.604 146.076L389.824 146.532C389.56 145.92 388.876 145.008 388.252 144.372ZM385.924 136.932H386.788V147.96H385.924V136.932ZM383.5 144.78C384.172 144.432 385.18 143.832 386.164 143.232L386.452 143.988C385.6 144.588 384.712 145.2 383.956 145.704L383.5 144.78ZM383.632 138.804L384.364 138.456C384.94 139.212 385.528 140.232 385.756 140.892L384.976 141.312C384.76 140.628 384.184 139.584 383.632 138.804ZM393.676 138.588L394.492 138.996C393.844 140.004 392.968 141.156 392.284 141.936L391.588 141.54C392.26 140.76 393.172 139.524 393.676 138.588ZM397.348 142.284H402.496V143.016H397.348V142.284ZM403.336 141.708H407.392V142.488H403.336V141.708ZM403.9 136.968L404.704 137.136C404.344 138.672 403.708 140.136 402.94 141.096C402.808 140.964 402.46 140.712 402.268 140.592C403.036 139.716 403.6 138.372 403.9 136.968ZM397.348 137.376H402.388V138.096H398.188V142.572H397.348V137.376ZM397.78 138.984H402.16V141.336H397.78V140.688H401.392V139.632H397.78V138.984ZM399.616 137.628H400.372V139.332H399.616V137.628ZM399.616 140.892H400.372V142.584H399.616V140.892ZM403.78 138.744H407.692V139.512H403.468L403.78 138.744ZM396.94 146.832H407.86V147.624H396.94V146.832ZM398.284 143.868H406.564V147.264H405.676V144.6H404.032V147.264H403.204V144.6H401.572V147.264H400.732V144.6H399.124V147.264H398.284V143.868ZM412.324 137.652H415.72V138.564H412.324V137.652ZM415.264 137.652H416.188C416.188 139.8 416.452 144.36 421.192 147.168C420.988 147.324 420.628 147.708 420.46 147.924C415.66 145.02 415.264 139.908 415.264 137.652ZM414.928 140.004L415.948 140.196C415.084 143.856 413.5 146.388 410.848 147.948C410.68 147.756 410.272 147.384 410.032 147.216C412.696 145.824 414.196 143.4 414.928 140.004ZM424.312 138.18H433.312V147.612H432.34V139.092H425.248V147.672H424.312V138.18ZM424.732 145.716H433.012V146.64H424.732V145.716ZM440.992 137.544H446.308V138.336H440.992V137.544ZM441.448 144.012H447.016V144.828H441.448V144.012ZM440.668 146.796H447.544V147.612H440.668V146.796ZM446.056 137.544H446.236L446.404 137.508L447.016 137.784C446.044 140.544 443.788 142.092 441.244 142.908C441.136 142.68 440.908 142.344 440.728 142.164C443.08 141.504 445.24 140.004 446.056 137.7V137.544ZM442.552 138.252C443.404 140.196 445.252 141.6 447.688 142.14C447.496 142.308 447.256 142.656 447.124 142.884C444.616 142.224 442.744 140.724 441.748 138.516L442.552 138.252ZM443.752 142.284H444.628V147.312H443.752V142.284ZM438.34 136.932L439.132 137.244C438.676 138.12 438.112 139.188 437.644 139.848L437.02 139.56C437.476 138.876 438.028 137.724 438.34 136.932ZM439.684 138.3L440.44 138.636C439.624 140.016 438.472 141.756 437.584 142.812L437.032 142.5C437.92 141.42 439.048 139.596 439.684 138.3ZM436.444 139.452L436.9 138.864C437.572 139.428 438.328 140.208 438.652 140.748L438.172 141.432C437.848 140.868 437.092 140.028 436.444 139.452ZM439.264 141.084L439.888 140.832C440.38 141.6 440.86 142.632 441.028 143.292L440.356 143.604C440.188 142.932 439.744 141.876 439.264 141.084ZM436.408 142.308C437.452 142.272 438.952 142.212 440.476 142.128L440.464 142.872C439.024 142.968 437.572 143.052 436.48 143.124L436.408 142.308ZM439.576 143.916L440.224 143.712C440.56 144.384 440.884 145.296 441.004 145.896L440.308 146.136C440.2 145.536 439.876 144.612 439.576 143.916ZM437.08 143.784L437.86 143.928C437.692 145.056 437.392 146.22 437.008 146.988C436.852 146.892 436.492 146.724 436.3 146.64C436.696 145.908 436.936 144.84 437.08 143.784ZM438.376 142.644H439.18V147.996H438.376V142.644ZM450.988 142.776H459.364V143.652H450.988V142.776ZM450.988 146.328H459.328V147.216H450.988V146.328ZM450.568 139.26H459.844V147.912H458.92V140.16H451.456V147.96H450.568V139.26ZM454.696 136.932H455.62V146.796H454.696V136.932ZM473.128 142.476V142.524L464.164 147.144L463.78 146.412L471.4 142.512V142.488L463.78 138.588L464.164 137.856L473.128 142.476ZM308.092 157.644H315.508V158.484H308.092V157.644ZM312.976 156.684H313.864V161.868C313.864 162.396 313.756 162.66 313.372 162.804C312.988 162.948 312.352 162.96 311.404 162.96C311.368 162.708 311.236 162.336 311.104 162.072C311.848 162.096 312.52 162.096 312.736 162.084C312.928 162.072 312.976 162.036 312.976 161.856V156.684ZM314.188 151.92L314.812 152.616C313.096 153.132 310.468 153.54 308.236 153.768C308.2 153.564 308.092 153.24 307.984 153.048C310.18 152.796 312.736 152.376 314.188 151.92ZM308.416 154.392L309.172 154.14C309.556 154.824 309.94 155.736 310.06 156.324L309.256 156.612C309.136 156.036 308.788 155.088 308.416 154.392ZM310.768 153.924L311.572 153.732C311.86 154.44 312.112 155.328 312.16 155.892L311.308 156.12C311.272 155.544 311.044 154.632 310.768 153.924ZM309.052 159.372L309.796 158.976C310.42 159.588 311.104 160.476 311.404 161.076L310.624 161.532C310.36 160.92 309.676 160.008 309.052 159.372ZM306.724 151.932H307.588V162.96H306.724V151.932ZM304.3 159.78C304.972 159.432 305.98 158.832 306.964 158.232L307.252 158.988C306.4 159.588 305.512 160.2 304.756 160.704L304.3 159.78ZM304.432 153.804L305.164 153.456C305.74 154.212 306.328 155.232 306.556 155.892L305.776 156.312C305.56 155.628 304.984 154.584 304.432 153.804ZM314.476 153.588L315.292 153.996C314.644 155.004 313.768 156.156 313.084 156.936L312.388 156.54C313.06 155.76 313.972 154.524 314.476 153.588ZM318.148 157.284H323.296V158.016H318.148V157.284ZM324.136 156.708H328.192V157.488H324.136V156.708ZM324.7 151.968L325.504 152.136C325.144 153.672 324.508 155.136 323.74 156.096C323.608 155.964 323.26 155.712 323.068 155.592C323.836 154.716 324.4 153.372 324.7 151.968ZM318.148 152.376H323.188V153.096H318.988V157.572H318.148V152.376ZM318.58 153.984H322.96V156.336H318.58V155.688H322.192V154.632H318.58V153.984ZM320.416 152.628H321.172V154.332H320.416V152.628ZM320.416 155.892H321.172V157.584H320.416V155.892ZM324.58 153.744H328.492V154.512H324.268L324.58 153.744ZM317.74 161.832H328.66V162.624H317.74V161.832ZM319.084 158.868H327.364V162.264H326.476V159.6H324.832V162.264H324.004V159.6H322.372V162.264H321.532V159.6H319.924V162.264H319.084V158.868ZM332.908 155.328H340.012V156.108H332.908V155.328ZM337.528 153.792H338.38V160.032C338.38 160.524 338.26 160.764 337.9 160.884C337.564 161.016 336.976 161.016 336.04 161.016C336.004 160.8 335.884 160.464 335.776 160.236C336.46 160.26 337.096 160.26 337.288 160.248C337.468 160.236 337.528 160.188 337.528 160.02V153.792ZM333.808 157.056L334.468 156.708C335.092 157.356 335.704 158.268 335.944 158.892L335.248 159.276C335.02 158.652 334.42 157.716 333.808 157.056ZM331.384 152.484H341.44V162.96H340.516V153.348H332.284V162.96H331.384V152.484ZM331.912 161.556H340.888V162.42H331.912V161.556ZM351.22 151.92H352.072V160.284H351.22V151.92ZM347.44 156.876L353.908 154.152L354.244 154.92L347.788 157.668L347.44 156.876ZM348.736 153.048H349.6V161.076C349.6 161.736 349.744 161.88 350.548 161.88C350.944 161.88 352.96 161.88 353.44 161.88C354.148 161.88 354.268 161.556 354.352 160.176C354.568 160.32 354.916 160.464 355.168 160.512C355.024 162.168 354.736 162.696 353.476 162.696C353.152 162.696 350.824 162.696 350.524 162.696C349.144 162.696 348.736 162.372 348.736 161.064V153.048ZM353.752 154.272H353.644L353.86 154.092L354.016 153.96L354.652 154.2L354.616 154.368C354.616 156.624 354.58 158.424 354.496 158.892C354.424 159.372 354.196 159.6 353.848 159.684C353.524 159.768 353.044 159.768 352.72 159.768C352.684 159.528 352.612 159.192 352.504 158.988C352.78 159 353.176 159 353.308 159C353.488 159 353.608 158.952 353.668 158.676C353.74 158.364 353.752 156.66 353.752 154.272ZM344.092 154.812H347.908V155.664H344.092V154.812ZM345.64 152.064H346.492V159.852H345.64V152.064ZM343.984 160.164C344.956 159.804 346.432 159.18 347.86 158.568L348.052 159.372C346.768 159.984 345.412 160.596 344.344 161.052L343.984 160.164ZM362.02 152.652H367.912V153.516H362.02V152.652ZM365.524 156.228H366.436V161.808C366.436 162.372 366.304 162.648 365.896 162.792C365.488 162.924 364.804 162.936 363.628 162.936C363.592 162.684 363.472 162.312 363.34 162.048C364.192 162.072 364.996 162.072 365.212 162.06C365.452 162.048 365.524 162 365.524 161.796V156.228ZM361.492 155.964H368.26V156.816H361.492V155.964ZM359.092 156.888L359.884 156.108L359.992 156.156V162.996H359.092V156.888ZM360.484 154.488L361.336 154.812C360.4 156.336 358.984 157.884 357.724 158.892C357.592 158.712 357.28 158.316 357.088 158.148C358.336 157.26 359.656 155.868 360.484 154.488ZM359.992 151.92L360.856 152.268C360.052 153.324 358.816 154.488 357.748 155.256C357.616 155.064 357.376 154.716 357.22 154.536C358.216 153.864 359.38 152.784 359.992 151.92ZM372.148 153.78C373.816 153.984 375.388 154.008 376.612 153.888C377.596 153.804 378.58 153.6 379.444 153.312L379.576 154.188C378.796 154.416 377.776 154.62 376.816 154.704C375.604 154.824 373.924 154.824 372.208 154.656L372.148 153.78ZM371.908 156.24C373.96 156.456 376 156.42 377.404 156.252C378.544 156.132 379.516 155.892 380.152 155.7L380.308 156.588C379.648 156.768 378.736 156.948 377.728 157.068C376.252 157.26 374.032 157.296 371.968 157.14L371.908 156.24ZM376.012 153.624C375.916 153.276 375.808 152.904 375.676 152.556L376.696 152.424C376.816 153.432 377.188 154.644 377.488 155.496C377.812 156.432 378.34 157.584 378.964 158.508C379.096 158.7 379.24 158.868 379.42 159.024L378.916 159.756C378.244 159.588 377.128 159.468 376.3 159.384L376.372 158.652C377.02 158.712 377.8 158.796 378.172 158.844C377.512 157.812 377.008 156.66 376.66 155.688C376.36 154.86 376.18 154.224 376.012 153.624ZM373.66 158.832C373.372 159.24 373.156 159.648 373.156 160.188C373.156 161.172 374.032 161.676 375.916 161.676C377.032 161.676 377.908 161.592 378.784 161.424L378.736 162.372C377.896 162.516 376.96 162.588 375.928 162.588C373.588 162.588 372.268 161.892 372.244 160.344C372.244 159.66 372.448 159.156 372.724 158.628L373.66 158.832Z" fill="#333333" fill-opacity="0.6"/>
<path d="M366.604 177.08L367.336 176.708C368.02 177.548 368.74 178.7 369.028 179.468L368.236 179.888C367.972 179.132 367.276 177.944 366.604 177.08ZM366.676 174.092H371.236V174.944H366.676V174.092ZM370.876 174.092H371.74C371.74 174.092 371.74 174.44 371.74 174.56C371.536 179.972 371.344 181.844 370.852 182.444C370.576 182.792 370.312 182.888 369.856 182.936C369.448 182.972 368.716 182.96 367.996 182.912C367.972 182.648 367.864 182.264 367.708 182.012C368.5 182.084 369.244 182.084 369.544 182.084C369.784 182.084 369.94 182.06 370.06 181.904C370.48 181.472 370.684 179.48 370.876 174.296V174.092ZM367.12 171.92L368.044 172.124C367.516 173.864 366.688 175.544 365.776 176.636C365.596 176.492 365.2 176.228 364.972 176.108C365.908 175.1 366.676 173.516 367.12 171.92ZM362.812 171.932L363.616 172.232C363.16 173.12 362.584 174.188 362.116 174.836L361.492 174.572C361.948 173.876 362.5 172.724 362.812 171.932ZM364.264 173.3L365.044 173.636C364.204 174.98 363.028 176.708 362.116 177.74L361.54 177.44C362.464 176.372 363.604 174.572 364.264 173.3ZM360.916 174.452L361.372 173.852C362.044 174.416 362.8 175.208 363.124 175.736L362.644 176.42C362.32 175.856 361.564 175.028 360.916 174.452ZM363.88 176.084L364.552 175.796C365.056 176.564 365.572 177.596 365.752 178.256L365.032 178.592C364.852 177.92 364.372 176.876 363.88 176.084ZM360.892 177.296C361.972 177.26 363.568 177.2 365.152 177.128V177.86C363.628 177.956 362.104 178.04 360.964 178.1L360.892 177.296ZM364.18 178.952L364.864 178.736C365.212 179.468 365.548 180.416 365.68 181.04L364.948 181.292C364.84 180.668 364.516 179.696 364.18 178.952ZM361.552 178.784L362.332 178.928C362.164 180.056 361.864 181.22 361.48 181.988C361.324 181.892 360.964 181.724 360.772 181.64C361.168 180.908 361.408 179.84 361.552 178.784ZM362.932 177.644H363.748V182.996H362.932V177.644ZM374.2 182V181.364C376.96 178.952 378.22 177.188 378.22 175.688C378.22 174.68 377.704 173.936 376.612 173.936C375.892 173.936 375.268 174.38 374.776 174.956L374.14 174.344C374.86 173.564 375.628 173.048 376.744 173.048C378.316 173.048 379.3 174.068 379.3 175.64C379.3 177.404 377.92 179.192 375.844 181.148C376.312 181.1 376.84 181.064 377.284 181.064H379.72V182H374.2ZM383.772 176.468H390.636V177.344H383.772V176.468ZM390.336 176.468H391.272C391.272 176.468 391.26 176.78 391.248 176.9C391.08 180.62 390.912 182.012 390.48 182.468C390.24 182.768 389.976 182.852 389.556 182.888C389.16 182.924 388.404 182.912 387.648 182.876C387.636 182.6 387.516 182.228 387.348 181.964C388.14 182.036 388.884 182.048 389.172 182.048C389.412 182.048 389.556 182.024 389.676 181.892C390 181.568 390.18 180.2 390.336 176.636V176.468ZM385.416 172.172L386.364 172.448C385.5 174.476 384.084 176.264 382.572 177.416C382.404 177.224 382.02 176.876 381.792 176.708C383.328 175.676 384.66 174.02 385.416 172.172ZM389.604 172.148C390.384 173.756 391.932 175.58 393.24 176.504C393 176.696 392.664 177.056 392.484 177.308C391.152 176.228 389.64 174.284 388.74 172.496L389.604 172.148ZM386.304 176.708H387.264C386.988 179.336 386.364 181.82 383.016 183.02C382.908 182.792 382.644 182.432 382.44 182.24C385.584 181.196 386.064 178.976 386.304 176.708Z" fill="#333333" fill-opacity="0.6"/>
<rect x="587" y="95" width="64" height="129" fill="#FFE79A"/>
<path d="M627.008 128.568V130.68H632.944V128.568H627.008ZM625.872 127.576H634.144V131.672H625.872V127.576ZM629.328 131.096L630.704 131.336C630.48 132.216 630.288 133.208 630.112 133.864L629.056 133.624C629.184 132.92 629.296 131.832 629.328 131.096ZM624.784 133.096H635.44V138.184H634.208V134.152H625.984V138.232H624.784V133.096ZM625.328 136.52H634.768V137.592H625.328V136.52ZM629.296 123.56H630.56V125.736H629.296V123.56ZM623.296 125.096H636.752V128.728H635.52V126.2H624.48V128.728H623.296V125.096ZM622.848 146.48H627.184V147.584H622.848V146.48ZM624.528 142.752H625.664V153.472H624.528V142.752ZM622.656 153.936C623.808 153.568 625.536 152.928 627.216 152.288L627.424 153.376C625.904 154 624.304 154.624 623.04 155.136L622.656 153.936ZM628.304 145.024H637.232V146.128H628.304V145.024ZM628.512 148.288H631.472V149.312H628.512V148.288ZM627.856 145.024H628.976V150.016C628.976 152.288 628.704 155.344 626.976 157.328C626.8 157.104 626.352 156.736 626.096 156.592C627.696 154.72 627.856 152.08 627.856 150V145.024ZM631.008 148.288H632.048C632.048 148.288 632.048 148.624 632.032 148.768C631.984 152.448 631.92 153.76 631.616 154.16C631.408 154.448 631.184 154.56 630.8 154.592C630.48 154.624 629.904 154.64 629.344 154.608C629.312 154.288 629.216 153.856 629.056 153.584C629.616 153.632 630.112 153.632 630.304 153.632C630.512 153.632 630.624 153.6 630.72 153.472C630.896 153.216 630.96 152.016 631.008 148.48V148.288ZM632.672 142.56H633.824C633.76 150.08 634.704 155.984 636.08 155.984C636.4 155.984 636.56 155.2 636.624 153.344C636.848 153.6 637.232 153.856 637.52 153.968C637.344 156.368 636.992 157.12 635.936 157.12C633.456 157.12 632.736 150.304 632.672 142.56ZM634.128 143.184L634.944 142.656C635.648 143.184 636.48 143.936 636.864 144.464L636 145.056C635.632 144.528 634.832 143.744 634.128 143.184ZM635.856 147.904L636.96 148.112C635.92 152.224 634.032 155.28 631.184 157.232C631.008 157.008 630.576 156.576 630.336 156.4C633.168 154.656 634.944 151.728 635.856 147.904ZM632.304 168.072L633.584 168.424C631.824 172.888 628.304 175.112 623.392 176.344C623.264 176.04 622.88 175.496 622.624 175.208C627.472 174.2 630.832 172.12 632.304 168.072ZM627.088 165.32L628.304 165.784C627.168 167.32 625.376 168.824 623.824 169.8C623.616 169.544 623.152 169.064 622.848 168.84C624.416 168.008 626.112 166.68 627.088 165.32ZM627.728 168.152C629.216 171.944 632.464 174.328 637.424 175.144C637.152 175.416 636.8 175.96 636.624 176.296C631.52 175.32 628.304 172.76 626.592 168.504L627.728 168.152ZM622.976 163.656H637.024V164.824H622.976V163.656ZM629.344 161.544H630.576V164.408H629.344V161.544ZM631.872 165.992L632.864 165.256C634.368 166.264 636.256 167.752 637.168 168.808L636.128 169.64C635.264 168.584 633.408 167.032 631.872 165.992ZM626.128 186.88V192.544H624.992V188H622.656V186.88H626.128ZM626.128 192.064C626.912 193.248 628.288 193.792 630.176 193.856C631.936 193.936 635.632 193.888 637.552 193.76C637.408 194.032 637.232 194.592 637.168 194.944C635.392 195.024 631.968 195.056 630.176 194.976C628.08 194.896 626.624 194.336 625.632 193.072C624.816 193.76 623.952 194.464 623.04 195.152L622.448 193.968C623.248 193.472 624.24 192.752 625.088 192.064H626.128ZM622.928 181.68L623.76 180.928C624.784 181.648 625.984 182.736 626.512 183.52L625.6 184.352C625.104 183.568 623.936 182.432 622.928 181.68ZM629.328 183.248L630.096 182.576C631.6 183.104 633.616 183.984 634.688 184.624L633.872 185.376C632.864 184.752 630.88 183.84 629.328 183.248ZM627.808 184.592H636.08V185.52H628.944V192.88H627.808V184.592ZM635.504 184.592H636.656V191.68C636.656 192.272 636.544 192.544 636.112 192.72C635.696 192.912 635.024 192.912 633.952 192.912C633.904 192.608 633.76 192.192 633.616 191.92C634.368 191.952 635.04 191.936 635.248 191.936C635.456 191.936 635.504 191.872 635.504 191.664V184.592ZM627.808 181.232H635.792V182.192H627.808V181.232ZM628.432 186.928H635.968V187.824H628.432V186.928ZM628.432 189.28H635.968V190.208H628.432V189.28ZM631.632 184.976H632.72V192.816H631.632V184.976ZM635.392 181.232H635.664L635.92 181.168L636.656 181.744C635.584 182.752 633.968 183.744 632.512 184.352C632.352 184.144 632.048 183.824 631.872 183.648C633.184 183.136 634.672 182.208 635.392 181.456V181.232Z" fill="#333333"/>
<path d="M603.416 146.104H614.744V147.224H603.416V146.104ZM602.632 138.088H615.432V148.168H614.216V139.208H603.8V148.216H602.632V138.088ZM609.992 138.6H611.16V141.992C611.16 142.344 611.224 142.392 611.624 142.392C611.8 142.392 612.68 142.392 612.904 142.392C613.256 142.392 613.336 142.248 613.368 141.176C613.592 141.352 614.072 141.528 614.392 141.608C614.264 143.096 613.944 143.464 613.048 143.464C612.792 143.464 611.704 143.464 611.464 143.464C610.28 143.464 609.992 143.144 609.992 141.992V138.6ZM601.944 134.616H616.008V135.784H601.944V134.616ZM606.472 135.4H607.64V138.728H606.472V135.4ZM610.008 135.4H611.208V138.728H610.008V135.4ZM606.52 138.408H607.64V139.976C607.64 141.48 607.112 143.256 604.776 144.424C604.616 144.184 604.168 143.784 603.928 143.624C606.12 142.568 606.52 141.16 606.52 139.944V138.408ZM608.36 155.68H609.56V162.496H608.36V155.68ZM601.832 162.032H616.152V162.976H601.832V162.032ZM608.312 162.288L609.176 162.704C607.56 164.048 604.616 165.136 602.168 165.616C602.024 165.36 601.752 164.992 601.528 164.784C603.96 164.368 606.84 163.424 608.312 162.288ZM609.688 162.288C610.824 164.416 613.32 165.84 616.424 166.352C616.184 166.592 615.88 167.008 615.736 167.296C612.536 166.64 610.024 165.04 608.744 162.56L609.688 162.288ZM614.344 163.2L615.128 163.856C614.184 164.384 612.952 164.896 612.024 165.232L611.432 164.688C612.344 164.32 613.624 163.664 614.344 163.2ZM603.432 166.224C605.224 166.016 607.992 165.664 610.632 165.312L610.664 166.24C608.168 166.608 605.528 166.976 603.64 167.232L603.432 166.224ZM608.36 152.544H609.56V154.24H608.36V152.544ZM602.056 153.792H615.96V154.72H602.056V153.792ZM602.952 160.352H615.016V161.232H602.952V160.352ZM604.904 157.856V158.8H613.112V157.856H604.904ZM604.904 156.24V157.168H613.112V156.24H604.904ZM603.752 155.488H614.296V159.552H603.752V155.488ZM605.384 164.368L606.024 163.712L606.568 163.888V166.656H605.384V164.368ZM609.56 172.216H610.68V178.312C610.68 180.776 610.472 184.136 608.888 186.312C608.696 186.12 608.2 185.816 607.928 185.704C609.432 183.608 609.56 180.632 609.56 178.312V172.216ZM613.128 178.168C613.576 181.4 614.552 184.104 616.52 185.368C616.248 185.608 615.88 186.024 615.704 186.344C613.592 184.824 612.584 181.976 612.088 178.344L613.128 178.168ZM610.152 172.216H615.8V178.776H610.152V177.672H614.696V173.336H610.152V172.216ZM602.984 174.648H608.008V175.608H602.984V174.648ZM602.984 177.064H608.008V178.024H602.984V177.064ZM602.392 179.496H607.848V180.472H602.392V179.496ZM604.984 172.776H605.976V180.024H604.984V172.776ZM605.752 181.272L606.312 181.064C606.728 181.704 607.112 182.568 607.272 183.128L606.664 183.384C606.536 182.808 606.136 181.928 605.752 181.272ZM604.6 181.544L605.208 181.432C605.544 182.232 605.816 183.288 605.88 183.992L605.24 184.136C605.176 183.448 604.904 182.36 604.6 181.544ZM603.416 181.72L604.04 181.64C604.216 182.568 604.328 183.784 604.312 184.568L603.64 184.664C603.672 183.864 603.576 182.664 603.416 181.72ZM602.28 181.384L603.032 181.528C602.936 183 602.776 184.568 602.136 185.448L601.448 185.064C602.04 184.232 602.216 182.792 602.28 181.384ZM602.392 172.216H608.312V173.224H603.432V179.976H602.392V172.216ZM607.416 179.496H608.456C608.456 179.496 608.456 179.832 608.44 179.976C608.232 183.944 608.056 185.368 607.656 185.848C607.4 186.136 607.16 186.248 606.776 186.28C606.456 186.312 605.88 186.296 605.288 186.264C605.272 185.976 605.176 185.56 605.016 185.288C605.592 185.336 606.088 185.352 606.312 185.352C606.52 185.352 606.664 185.32 606.76 185.176C607.064 184.84 607.256 183.48 607.416 179.688V179.496Z" fill="#333333"/>
</svg>
