<svg width="82" height="27" viewBox="0 0 82 27" fill="none" xmlns="http://www.w3.org/2000/svg">
<path d="M7.39986 25.2536L4.36558 10.0519L6.71416 8.71996L18.2033 19.1265L16.0635 20.3401L10.074 14.563C8.84972 13.4179 7.64807 12.191 6.43889 10.9914L6.3693 11.0309C6.80549 12.6919 7.23181 14.3355 7.5862 15.9739L9.4527 24.0894L7.39986 25.2536ZM7.72114 20.266L6.82329 18.6828L12.8078 15.2888L13.7057 16.8719L7.72114 20.266Z" fill="#FFA952"/>
<path d="M19.9804 18.2906L16.5132 3.98478L20.9644 2.906C23.88 2.19937 26.2247 2.61888 26.8513 5.20403C27.1858 6.58408 26.7581 8.04595 25.5835 8.80393L25.6024 8.88168C27.3199 8.83584 28.7594 9.68055 29.2258 11.6048C29.9135 14.4427 27.9497 16.3592 24.7814 17.127L19.9804 18.2906ZM20.2336 9.40086L22.1579 8.93448C24.3349 8.40687 25.0311 7.3738 24.7108 6.05207C24.3481 4.5554 23.2007 4.23668 21.1987 4.7219L19.2161 5.2024L20.2336 9.40086ZM21.8259 15.9707L24.1001 15.4195C26.3159 14.8825 27.4056 13.7746 26.9864 12.0447C26.5954 10.4314 25.1965 10.009 22.9223 10.5602L20.6482 11.1113L21.8259 15.9707Z" fill="#FFA952"/>
<path d="M39.4342 15.478C35.6356 15.3754 33.096 12.3657 33.2245 7.60748C33.3525 2.86921 36.0477 0.120993 39.8463 0.223614C43.625 0.325694 46.1679 3.21542 46.0398 7.95369C45.9113 12.712 43.2129 15.5801 39.4342 15.478ZM39.4893 13.4388C41.9284 13.5047 43.5678 11.3282 43.6607 7.88942C43.7536 4.45067 42.2309 2.30877 39.7918 2.24288C37.3327 2.17644 35.7165 4.23355 35.6236 7.67229C35.5307 11.111 37.0302 13.3724 39.4893 13.4388Z" fill="#FFA952"/>
<path d="M55.2492 17.6966C52.1243 16.7002 50.5751 14.3169 52.0273 9.7628L54.5853 1.74077L56.7956 2.44559L54.1951 10.601C53.1865 13.7641 54.116 15.1941 55.869 15.7531C57.622 16.312 59.2649 15.7023 60.2735 12.5393L62.8741 4.38384L65.0082 5.06436L62.4502 13.0864C60.998 17.6405 58.3552 18.687 55.2492 17.6966Z" fill="#FFA952"/>
<path d="M66.2169 22.0673L73.6007 11.6606L70.0774 9.16082L71.2116 7.56231L80.1665 13.916L79.0323 15.5145L75.5091 13.0147L68.1253 23.4213L66.2169 22.0673Z" fill="#FFA952"/>
</svg>
