<svg width="89" height="30" viewBox="0 0 89 30" fill="none" xmlns="http://www.w3.org/2000/svg">
<path d="M8.49678 27.9254L4.16371 13.0418L6.38876 11.5123L18.732 20.89L16.7048 22.2835L10.2396 17.0441C8.92124 16.0087 7.61833 14.89 6.31027 13.799L6.24434 13.8444C6.82205 15.4616 7.38843 17.0623 7.8827 18.6641L10.4416 26.5886L8.49678 27.9254ZM8.38703 22.9286L7.35609 21.4287L13.0259 17.5315L14.0568 19.0314L8.38703 22.9286Z" fill="#FFA952"/>
<path d="M25.9501 18.4785C22.4509 19.6177 18.877 17.8786 17.3787 13.2764C15.8929 8.71214 17.8031 5.08252 21.3404 3.93096C23.09 3.36137 24.7127 3.75857 25.8656 4.39281L25.1509 6.20299C24.1868 5.69656 23.1448 5.46788 22.0037 5.83935C19.5885 6.62564 18.5712 9.18632 19.6361 12.4574C20.7195 15.7854 22.9414 17.3126 25.4137 16.5078C26.6879 16.093 27.4911 15.2005 28.0117 14.0214L29.6617 15.0197C28.9669 16.6972 27.7758 17.8842 25.9501 18.4785Z" fill="#FFA952"/>
<path d="M39.1525 15.9288C35.4816 16.1875 32.4346 13.6354 32.0944 8.80737C31.757 4.01924 34.4887 0.959647 38.1995 0.698147C40.0349 0.568803 41.5133 1.34681 42.4785 2.24117L41.347 3.82462C40.5341 3.09997 39.5784 2.62598 38.3814 2.71034C35.8477 2.88889 34.241 5.12736 34.4829 8.55886C34.7289 12.0502 36.5153 14.0696 39.1088 13.8868C40.4455 13.7927 41.4408 13.121 42.2312 12.103L43.5907 13.4708C42.5106 14.9303 41.0677 15.7939 39.1525 15.9288Z" fill="#FFA952"/>
<path d="M46.9814 15.3995L49.221 0.850839L57.8394 2.17754L57.5412 4.11472L51.2355 3.14404L50.6148 7.17654L55.9321 7.99508L55.6309 9.95203L50.3135 9.13349L49.5923 13.8183L56.1155 14.8225L55.8173 16.7596L46.9814 15.3995Z" fill="#FFA952"/>
<path d="M62.5997 19.1996C60.7173 18.4133 59.3093 16.9583 58.597 15.1869L60.4763 14.2162C61.0274 15.5952 62.1125 16.7853 63.4228 17.3326C65.0469 18.011 66.2856 17.6398 66.7713 16.4771C67.2877 15.2406 66.5269 14.4677 65.4955 13.4083L63.96 11.7916C62.8732 10.7091 61.8654 9.07435 62.6903 7.09968C63.5844 4.95892 66.119 4.13191 68.7027 5.2111C70.3082 5.88173 71.5256 7.17049 72.1012 8.64638L70.4312 9.53107C69.8906 8.43829 69.1237 7.57608 67.9241 7.07503C66.54 6.4969 65.3767 6.79126 64.9296 7.86164C64.444 9.02429 65.3478 9.92201 66.2624 10.8459L67.8025 12.3995C69.1229 13.753 69.8693 15.2352 69.0368 17.2283C68.1272 19.406 65.5709 20.4407 62.5997 19.1996Z" fill="#FFA952"/>
<path d="M73.459 25.2272C71.9115 23.8981 71.0217 22.0793 70.8913 20.1745L72.9785 19.8317C73.0768 21.3134 73.7413 22.7805 74.8185 23.7058C76.1537 24.8525 77.4466 24.882 78.2675 23.9261C79.1406 22.9096 78.6556 21.9395 78.0019 20.6134L77.0407 18.6014C76.3414 17.2362 75.8877 15.3702 77.282 13.7468C78.7936 11.9868 81.4597 11.983 83.5838 13.8073C84.9038 14.941 85.6636 16.5428 85.7553 18.1243L83.8937 18.45C83.717 17.2437 83.2539 16.1867 82.2677 15.3397C81.1298 14.3624 79.9324 14.2831 79.1766 15.1631C78.3556 16.1189 78.938 17.2519 79.5226 18.413L80.5076 20.3664C81.3455 22.0615 81.5976 23.7017 80.1903 25.3403C78.6526 27.1306 75.9017 27.3252 73.459 25.2272Z" fill="#FFA952"/>
</svg>
