<svg width="96" height="32" viewBox="0 0 96 32" fill="none" xmlns="http://www.w3.org/2000/svg">
<path d="M14.6136 27.0782C13.066 28.4074 11.1338 29.0124 9.23113 28.8538L9.20731 26.7387C10.6869 26.8652 12.2375 26.4298 13.3147 25.5046C14.6499 24.3579 14.8742 23.0842 14.0532 22.1284C13.1802 21.1119 12.1479 21.4448 10.7383 21.8909L8.60436 22.5374C7.14925 23.0226 5.23609 23.1894 3.84176 21.566C2.33015 19.806 2.72883 17.1699 4.85291 15.3456C6.17288 14.2119 7.87093 13.7025 9.44817 13.8506L9.48912 15.7401C8.26996 15.7326 7.15523 16.0309 6.16905 16.8779C5.03115 17.8553 4.77201 19.027 5.52781 19.9069C6.34877 20.8628 7.55667 20.4581 8.79277 20.0555L10.8724 19.3766C12.6746 18.8042 14.3341 18.8026 15.7414 20.4412C17.2791 22.2315 17.0563 24.9802 14.6136 27.0782Z" fill="#FFA952"/>
<path d="M21.2197 21.5239L15.4593 7.97786L23.4838 4.56542L24.2509 6.3691L18.3797 8.86582L19.9763 12.6204L24.9273 10.5151L25.7021 12.3371L20.7512 14.4425L22.6061 18.8045L28.6797 16.2217L29.4468 18.0254L21.2197 21.5239Z" fill="#FFA952"/>
<path d="M32.5752 16.8698L30.4165 2.30895L35.1844 1.6021C38.1915 1.15629 40.6053 1.89026 41.0745 5.05566C41.5262 8.10237 39.4791 9.84137 36.472 10.2872L34.0188 10.6509L34.8899 16.5266L32.5752 16.8698ZM33.746 8.81098L35.942 8.48542C38.0391 8.17452 39.0575 7.13393 38.7994 5.39295C38.5384 3.6322 37.3 3.18901 35.2029 3.49991L33.0069 3.82546L33.746 8.81098ZM40.548 15.6878L35.9487 9.75819L37.4507 8.16066L43.1199 15.3065L40.548 15.6878Z" fill="#FFA952"/>
<path d="M49.3631 15.3206L45.9728 0.27583L48.4246 0.475451L49.9791 8.24722C50.3196 9.98057 50.5632 11.4251 50.9236 13.1601L51.0232 13.1682C51.6795 11.516 52.1336 10.1283 52.7499 8.47281L55.5212 1.05322L57.8933 1.24635L52.114 15.5445L49.3631 15.3206Z" fill="#FFA952"/>
<path d="M58.9879 16.4702L62.7876 2.24903L65.0483 2.85305L61.2486 17.0742L58.9879 16.4702Z" fill="#FFA952"/>
<path d="M71.3929 21.216C68.1312 19.5119 66.8744 15.7412 69.1156 11.4514C71.3384 7.1971 75.2685 6.02364 78.5657 7.74625C80.1965 8.5983 81.0476 10.0358 81.4007 11.3035L79.6071 12.0587C79.2947 11.0155 78.7293 10.1108 77.6657 9.55515C75.4144 8.37895 72.8728 9.44296 71.2799 12.4919C69.6591 15.594 70.1217 18.2502 72.4262 19.4542C73.6138 20.0747 74.8134 20.0245 76.0202 19.5719L76.4609 21.4494C74.776 22.1261 73.0946 22.1051 71.3929 21.216Z" fill="#FFA952"/>
<path d="M77.5395 24.3128L88.1765 14.1377L94.2041 20.4389L92.7878 21.7938L88.3777 17.1835L85.4294 20.0037L89.1483 23.8914L87.7175 25.2601L83.9986 21.3724L80.5734 24.6489L85.1356 29.4182L83.7192 30.773L77.5395 24.3128Z" fill="#FFA952"/>
</svg>
