<svg width="104" height="38" viewBox="0 0 104 38" fill="none" xmlns="http://www.w3.org/2000/svg">
<path d="M16.3782 28.4741C13.8569 31.1547 9.88695 31.3469 6.36149 28.0307C2.86516 24.742 2.79628 20.641 5.34504 17.9313C6.60572 16.5911 8.21963 16.1597 9.53553 16.1619L9.77854 18.0928C8.68967 18.112 7.666 18.4121 6.84382 19.2862C5.10354 21.1363 5.44188 23.8708 7.94758 26.2278C10.497 28.6258 13.1794 28.8974 14.9608 27.0036C15.8789 26.0275 16.1544 24.8589 16.0444 23.5747L17.9711 23.6573C18.1679 25.4623 17.6937 27.0756 16.3782 28.4741Z" fill="#FFA952"/>
<path d="M16.3782 28.4741C13.8569 31.1547 9.88695 31.3469 6.36149 28.0307C2.86516 24.742 2.79628 20.641 5.34504 17.9313C6.60572 16.5911 8.21963 16.1597 9.53553 16.1619L9.77854 18.0928C8.68967 18.112 7.666 18.4121 6.84382 19.2862C5.10354 21.1363 5.44188 23.8708 7.94758 26.2278C10.497 28.6258 13.1794 28.8974 14.9608 27.0036C15.8789 26.0275 16.1544 24.8589 16.0444 23.5747L17.9711 23.6573C18.1679 25.4623 17.6937 27.0756 16.3782 28.4741Z" fill="#FFA952"/>
<path d="M25.9592 21.2934C22.5339 22.9389 18.8992 21.4233 16.8381 17.1327C14.7856 12.8601 15.9261 9.18371 19.3514 7.53826C22.7586 5.90147 26.3414 7.30889 28.3938 11.5815C30.455 15.8721 29.3664 19.6566 25.9592 21.2934ZM25.0758 19.4546C27.2752 18.3981 27.7381 15.7128 26.2485 12.612C24.759 9.51127 22.4255 8.30252 20.2261 9.35907C18.0087 10.4243 17.5118 12.9927 19.0014 16.0935C20.491 19.1942 22.8584 20.5198 25.0758 19.4546Z" fill="#FFA952"/>
<path d="M25.9592 21.2934C22.5339 22.9389 18.8992 21.4233 16.8381 17.1327C14.7856 12.8601 15.9261 9.18371 19.3514 7.53826C22.7586 5.90147 26.3414 7.30889 28.3938 11.5815C30.455 15.8721 29.3664 19.6566 25.9592 21.2934ZM25.0758 19.4546C27.2752 18.3981 27.7381 15.7128 26.2485 12.612C24.759 9.51127 22.4255 8.30252 20.2261 9.35907C18.0087 10.4243 17.5118 12.9927 19.0014 16.0935C20.491 19.1942 22.8584 20.5198 25.0758 19.4546Z" fill="#FFA952"/>
<path d="M35.1389 16.995L32.9803 2.43413L35.3346 2.08511L41.4515 9.93291L43.4295 12.7736L43.5284 12.7589C43.17 11.2956 42.7279 9.54149 42.4962 7.97858L41.4873 1.17296L43.6833 0.847398L45.842 15.4083L43.4679 15.7602L37.3905 7.90655L35.4125 5.0659L35.3136 5.08056C35.6384 6.58925 36.0826 8.22176 36.3201 9.82424L37.3349 16.6694L35.1389 16.995Z" fill="#FFA952"/>
<path d="M35.1389 16.995L32.9803 2.43413L35.3346 2.08511L41.4515 9.93291L43.4295 12.7736L43.5284 12.7589C43.17 11.2956 42.7279 9.54149 42.4962 7.97858L41.4873 1.17296L43.6833 0.847398L45.842 15.4083L43.4679 15.7602L37.3905 7.90655L35.4125 5.0659L35.3136 5.08056C35.6384 6.58925 36.0826 8.22176 36.3201 9.82424L37.3349 16.6694L35.1389 16.995Z" fill="#FFA952"/>
<path d="M53.2971 15.4081L54.5406 2.70881L50.2412 2.28781L50.4322 0.337138L61.3599 1.40718L61.1689 3.35785L56.8695 2.93685L55.6259 15.6361L53.2971 15.4081Z" fill="#FFA952"/>
<path d="M53.2971 15.4081L54.5406 2.70881L50.2412 2.28781L50.4322 0.337138L61.3599 1.40718L61.1689 3.35785L56.8695 2.93685L55.6259 15.6361L53.2971 15.4081Z" fill="#FFA952"/>
<path d="M61.2996 15.8548L70.7801 3.59033L73.3263 4.48862L73.012 19.987L70.6922 19.1685L71.1216 10.858C71.1824 9.18277 71.3197 7.47094 71.4316 5.77133L71.3561 5.74471C70.3889 7.16376 69.4283 8.56394 68.4245 9.90644L63.5251 16.64L61.2996 15.8548ZM65.2742 12.8246L65.8797 11.1082L72.3678 13.3972L71.7622 15.1135L65.2742 12.8246Z" fill="#FFA952"/>
<path d="M61.2996 15.8548L70.7801 3.59033L73.3263 4.48862L73.012 19.987L70.6922 19.1685L71.1216 10.858C71.1824 9.18277 71.3197 7.47094 71.4316 5.77133L71.3561 5.74471C70.3889 7.16376 69.4283 8.56394 68.4245 9.90644L63.5251 16.64L61.2996 15.8548ZM65.2742 12.8246L65.8797 11.1082L72.3678 13.3972L71.7622 15.1135L65.2742 12.8246Z" fill="#FFA952"/>
<path d="M79.6987 24.544C76.7463 22.3472 76.0995 18.4256 78.9888 14.5427C81.8542 10.6918 85.9202 10.1524 88.9046 12.3731C90.3808 13.4715 90.9947 15.0252 91.1436 16.3326L89.2534 16.7958C89.1093 15.7163 88.6936 14.7339 87.7308 14.0175C85.6931 12.5012 83.0155 13.1514 80.962 15.9112C78.8726 18.7191 78.9108 21.415 80.9967 22.9671C82.0717 23.767 83.2643 23.9065 84.5273 23.6497L84.6666 25.5732C82.8961 25.9759 81.239 25.6902 79.6987 24.544Z" fill="#FFA952"/>
<path d="M79.6987 24.5442C76.7463 22.3473 76.0995 18.4258 78.9888 14.5428C81.8542 10.6919 85.9202 10.1525 88.9046 12.3732C90.3808 13.4716 90.9947 15.0253 91.1436 16.3328L89.2534 16.7959C89.1093 15.7165 88.6936 14.734 87.7308 14.0177C85.6931 12.5014 83.0155 13.1515 80.962 15.9113C78.8726 18.7193 78.9108 21.4151 80.9967 22.9672C82.0717 23.7672 83.2643 23.9067 84.5273 23.6499L84.6666 25.5734C82.8961 25.9761 81.239 25.6903 79.6987 24.5442Z" fill="#FFA952"/>
<path d="M86.7587 30.9639L97.6172 24.2623L95.3483 20.5861L97.0162 19.5567L102.783 28.9004L101.115 29.9298L98.8461 26.2536L87.9877 32.9552L86.7587 30.9639Z" fill="#FFA952"/>
<path d="M86.7587 30.9639L97.6172 24.2623L95.3483 20.5861L97.0162 19.5567L102.783 28.9004L101.115 29.9298L98.8461 26.2536L87.9877 32.9552L86.7587 30.9639Z" fill="#FFA952"/>
</svg>
